<mxfile host="app.diagrams.net" agent="Mozilla/5.0 (Windows NT 10.0; Win64; x64) AppleWebKit/537.36 (KHTML, like Gecko) Chrome/122.0.0.0 Safari/537.36 Edg/122.0.0.0" version="24.7.7">
  <diagram name="第 1 页" id="Wr2u7NoWOpPFrPuyKYMf">
    <mxGraphModel dx="1516" dy="965" grid="1" gridSize="10" guides="1" tooltips="1" connect="1" arrows="1" fold="1" page="1" pageScale="1" pageWidth="3300" pageHeight="4681" math="0" shadow="0">
      <root>
        <mxCell id="0" />
        <mxCell id="1" parent="0" />
        <mxCell id="BStY4UZLv6UZcWrJa_nu-1" value="" style="whiteSpace=wrap;html=1;dashed=1;dashPattern=8 8;strokeWidth=2;" parent="1" vertex="1">
          <mxGeometry x="620.4099999999999" y="1040.7199999999998" width="1800.07" height="593.44" as="geometry" />
        </mxCell>
        <mxCell id="BStY4UZLv6UZcWrJa_nu-156" value="" style="rounded=1;whiteSpace=wrap;html=1;fillColor=#fff2cc;strokeColor=#d6b656;" parent="1" vertex="1">
          <mxGeometry x="812" y="1436.67" width="310" height="124.53" as="geometry" />
        </mxCell>
        <mxCell id="BStY4UZLv6UZcWrJa_nu-6" value="" style="rounded=1;whiteSpace=wrap;html=1;arcSize=3;fillColor=#ffe6cc;strokeColor=#d79b00;" parent="1" vertex="1">
          <mxGeometry x="1142" y="1159.11" width="310" height="320" as="geometry" />
        </mxCell>
        <mxCell id="BStY4UZLv6UZcWrJa_nu-7" value="" style="rounded=1;whiteSpace=wrap;html=1;dashed=1;dashPattern=8 8;arcSize=4;strokeWidth=1;" parent="1" vertex="1">
          <mxGeometry x="636.9" y="1076.5" width="214" height="268.5" as="geometry" />
        </mxCell>
        <mxCell id="BStY4UZLv6UZcWrJa_nu-8" value="" style="whiteSpace=wrap;html=1;dashed=1;rounded=1;arcSize=6;" parent="1" vertex="1">
          <mxGeometry x="1996" y="1050" width="404" height="520.11" as="geometry" />
        </mxCell>
        <mxCell id="BStY4UZLv6UZcWrJa_nu-9" value="" style="rounded=1;whiteSpace=wrap;html=1;fillColor=#dae8fc;strokeColor=#6c8ebf;fontFamily=Arial;arcSize=6;" parent="1" vertex="1">
          <mxGeometry x="1467.76" y="1068" width="513.45" height="482" as="geometry" />
        </mxCell>
        <mxCell id="BStY4UZLv6UZcWrJa_nu-10" value="" style="rounded=0;whiteSpace=wrap;html=1;fillColor=#f5f5f5;fontColor=#333333;strokeColor=#666666;" parent="1" vertex="1">
          <mxGeometry x="1534.1" y="1088.44" width="140" height="30" as="geometry" />
        </mxCell>
        <mxCell id="BStY4UZLv6UZcWrJa_nu-11" style="edgeStyle=orthogonalEdgeStyle;rounded=0;orthogonalLoop=1;jettySize=auto;html=1;exitX=0.5;exitY=0;exitDx=0;exitDy=0;entryX=0.5;entryY=1;entryDx=0;entryDy=0;" parent="1" target="BStY4UZLv6UZcWrJa_nu-116" edge="1">
          <mxGeometry relative="1" as="geometry">
            <mxPoint x="968" y="1355.06" as="sourcePoint" />
          </mxGeometry>
        </mxCell>
        <mxCell id="BStY4UZLv6UZcWrJa_nu-12" value="&lt;font style=&quot;font-size: 20px;&quot;&gt;Phoneme &lt;br style=&quot;&quot;&gt;Embedding Layer&lt;/font&gt;" style="rounded=1;whiteSpace=wrap;html=1;fillColor=#d5e8d4;strokeColor=#82b366;fontFamily=Arial;fontSize=14;fontStyle=0" parent="1" vertex="1">
          <mxGeometry x="868" y="1332.06" width="200" height="60" as="geometry" />
        </mxCell>
        <mxCell id="BStY4UZLv6UZcWrJa_nu-13" style="edgeStyle=orthogonalEdgeStyle;rounded=0;orthogonalLoop=1;jettySize=auto;html=1;entryX=0.5;entryY=1;entryDx=0;entryDy=0;fillColor=#fff2cc;strokeColor=#000000;fontFamily=Arial;fontStyle=0" parent="1" source="BStY4UZLv6UZcWrJa_nu-14" target="BStY4UZLv6UZcWrJa_nu-16" edge="1">
          <mxGeometry relative="1" as="geometry" />
        </mxCell>
        <mxCell id="BStY4UZLv6UZcWrJa_nu-14" value="&lt;font style=&quot;font-size: 20px;&quot;&gt;MEGA Encoder&lt;/font&gt;" style="rounded=1;whiteSpace=wrap;html=1;fillColor=#fff2cc;strokeColor=#d6b656;fontFamily=Arial;fontSize=20;fontStyle=0;align=center;verticalAlign=middle;fontColor=default;" parent="1" vertex="1">
          <mxGeometry x="868" y="1244.22" width="200" height="40" as="geometry" />
        </mxCell>
        <mxCell id="BStY4UZLv6UZcWrJa_nu-15" style="edgeStyle=orthogonalEdgeStyle;rounded=0;orthogonalLoop=1;jettySize=auto;html=1;entryX=0.5;entryY=1;entryDx=0;entryDy=0;fillColor=#fff2cc;strokeColor=#000000;fontFamily=Arial;fontStyle=0" parent="1" source="BStY4UZLv6UZcWrJa_nu-16" target="BStY4UZLv6UZcWrJa_nu-18" edge="1">
          <mxGeometry relative="1" as="geometry" />
        </mxCell>
        <mxCell id="BStY4UZLv6UZcWrJa_nu-16" value="Variance Adaptor" style="rounded=1;whiteSpace=wrap;html=1;fillColor=#d5e8d4;strokeColor=#82b366;fontFamily=Arial;fontSize=20;fontStyle=0" parent="1" vertex="1">
          <mxGeometry x="868" y="1191.22" width="200" height="40" as="geometry" />
        </mxCell>
        <mxCell id="BStY4UZLv6UZcWrJa_nu-17" style="edgeStyle=orthogonalEdgeStyle;rounded=0;orthogonalLoop=1;jettySize=auto;html=1;exitX=0.5;exitY=0;exitDx=0;exitDy=0;fontFamily=Arial;entryX=0.5;entryY=1;entryDx=0;entryDy=0;" parent="1" source="BStY4UZLv6UZcWrJa_nu-18" target="BStY4UZLv6UZcWrJa_nu-57" edge="1">
          <mxGeometry relative="1" as="geometry">
            <mxPoint x="968" y="1097.22" as="targetPoint" />
          </mxGeometry>
        </mxCell>
        <mxCell id="BStY4UZLv6UZcWrJa_nu-18" value="&lt;span style=&quot;font-size: 20px;&quot;&gt;&lt;font style=&quot;font-size: 20px;&quot;&gt;MEGA Decoder&lt;/font&gt;&lt;/span&gt;" style="rounded=1;whiteSpace=wrap;html=1;fillColor=#fff2cc;strokeColor=#d6b656;fontFamily=Arial;fontSize=20;fontStyle=0" parent="1" vertex="1">
          <mxGeometry x="868" y="1137.22" width="200" height="40" as="geometry" />
        </mxCell>
        <mxCell id="BStY4UZLv6UZcWrJa_nu-19" value="&lt;font style=&quot;font-size: 20px;&quot;&gt;Phoneme Sequence&amp;nbsp;&lt;/font&gt;&lt;span style=&quot;font-size: 20px; background-color: initial;&quot;&gt;with Pause&lt;/span&gt;" style="text;html=1;align=center;verticalAlign=middle;resizable=0;points=[];autosize=1;strokeColor=none;fillColor=none;fontFamily=Arial;" parent="1" vertex="1">
          <mxGeometry x="812.8" y="1395.44" width="310" height="40" as="geometry" />
        </mxCell>
        <mxCell id="BStY4UZLv6UZcWrJa_nu-20" value="&lt;font style=&quot;font-size: 20px;&quot;&gt;Word Sequence&lt;/font&gt;" style="text;html=1;align=center;verticalAlign=middle;resizable=0;points=[];autosize=1;strokeColor=none;fillColor=none;fontFamily=Arial;fontSize=12;fontColor=default;" parent="1" vertex="1">
          <mxGeometry x="882.8" y="1559.08" width="170" height="40" as="geometry" />
        </mxCell>
        <mxCell id="BStY4UZLv6UZcWrJa_nu-21" style="edgeStyle=orthogonalEdgeStyle;rounded=0;orthogonalLoop=1;jettySize=auto;html=1;exitX=0.5;exitY=1;exitDx=0;exitDy=0;entryX=0.5;entryY=0;entryDx=0;entryDy=0;" parent="1" source="BStY4UZLv6UZcWrJa_nu-22" target="BStY4UZLv6UZcWrJa_nu-24" edge="1">
          <mxGeometry relative="1" as="geometry" />
        </mxCell>
        <mxCell id="BStY4UZLv6UZcWrJa_nu-22" value="&lt;div style=&quot;&quot;&gt;&lt;span style=&quot;background-color: initial; white-space-collapse: preserve;&quot;&gt;&lt;font style=&quot;font-size: 20px;&quot; face=&quot;Söhne, ui-sans-serif, system-ui, -apple-system, Segoe UI, Roboto, Ubuntu, Cantarell, Noto Sans, sans-serif, Helvetica Neue, Arial, Apple Color Emoji, Segoe UI Emoji, Segoe UI Symbol, Noto Color Emoji&quot; color=&quot;#0d0d0d&quot;&gt;Generated Contexts&lt;/font&gt;&lt;/span&gt;&lt;/div&gt;" style="shape=datastore;whiteSpace=wrap;html=1;fillColor=#f5f5f5;strokeColor=#666666;fontFamily=Arial;align=center;fontColor=#333333;" parent="1" vertex="1">
          <mxGeometry x="691.4000000000001" y="1186.5" width="108.5" height="78.44" as="geometry" />
        </mxCell>
        <mxCell id="BStY4UZLv6UZcWrJa_nu-148" style="edgeStyle=orthogonalEdgeStyle;rounded=0;orthogonalLoop=1;jettySize=auto;html=1;exitX=1;exitY=0.5;exitDx=0;exitDy=0;entryX=0;entryY=0.5;entryDx=0;entryDy=0;" parent="1" source="BStY4UZLv6UZcWrJa_nu-24" target="BStY4UZLv6UZcWrJa_nu-116" edge="1">
          <mxGeometry relative="1" as="geometry" />
        </mxCell>
        <mxCell id="BStY4UZLv6UZcWrJa_nu-24" value="&lt;font style=&quot;font-size: 20px;&quot;&gt;Context Encoder&lt;/font&gt;" style="rounded=1;whiteSpace=wrap;html=1;fontFamily=Arial;fillColor=#dae8fc;strokeColor=#6c8ebf;" parent="1" vertex="1">
          <mxGeometry x="664.9000000000001" y="1285.94" width="161" height="42.5" as="geometry" />
        </mxCell>
        <mxCell id="BStY4UZLv6UZcWrJa_nu-25" value="&lt;font style=&quot;font-size: 20px;&quot;&gt;BiLSTM&lt;/font&gt;" style="rounded=1;html=1;fillColor=#e1d5e7;strokeColor=#9673a6;fontFamily=Arial;fontSize=14;fontStyle=0" parent="1" vertex="1">
          <mxGeometry x="1190.75" y="1407.47" width="200" height="40" as="geometry" />
        </mxCell>
        <mxCell id="BStY4UZLv6UZcWrJa_nu-26" value="&lt;font style=&quot;font-size: 20px;&quot;&gt;Global Context Mechanism&lt;/font&gt;" style="rounded=1;html=1;fillColor=#f8cecc;strokeColor=#b85450;fontFamily=Arial;fontSize=14;fontStyle=0" parent="1" vertex="1">
          <mxGeometry x="1149.5" y="1350.76" width="282.5" height="40" as="geometry" />
        </mxCell>
        <mxCell id="BStY4UZLv6UZcWrJa_nu-27" value="&lt;font style=&quot;font-size: 20px;&quot;&gt;Linear Layer&lt;/font&gt;" style="rounded=1;html=1;fillColor=#f5f5f5;strokeColor=#666666;fontFamily=Arial;fontSize=14;fontStyle=0;fontColor=#333333;" parent="1" vertex="1">
          <mxGeometry x="1149.5" y="1296.91" width="125" height="40" as="geometry" />
        </mxCell>
        <mxCell id="BStY4UZLv6UZcWrJa_nu-28" value="&lt;font style=&quot;font-size: 20px;&quot;&gt;Linear Layer&lt;/font&gt;" style="rounded=1;html=1;fillColor=#f5f5f5;strokeColor=#666666;fontFamily=Arial;fontSize=14;fontStyle=0;fontColor=#333333;" parent="1" vertex="1">
          <mxGeometry x="1309.5" y="1296.91" width="125" height="40" as="geometry" />
        </mxCell>
        <mxCell id="BStY4UZLv6UZcWrJa_nu-29" value="&lt;font style=&quot;font-size: 20px;&quot;&gt;Sigmoid&lt;/font&gt;" style="rounded=1;html=1;fontFamily=Arial;fontSize=14;fontStyle=0" parent="1" vertex="1">
          <mxGeometry x="1149.5" y="1241.91" width="125" height="40" as="geometry" />
        </mxCell>
        <mxCell id="BStY4UZLv6UZcWrJa_nu-30" value="&lt;font style=&quot;font-size: 20px;&quot;&gt;Softmax&lt;/font&gt;" style="rounded=1;html=1;fontFamily=Arial;fontSize=14;fontStyle=0" parent="1" vertex="1">
          <mxGeometry x="1309.5" y="1241.91" width="125" height="40" as="geometry" />
        </mxCell>
        <mxCell id="BStY4UZLv6UZcWrJa_nu-31" value="Positions of&amp;nbsp;&lt;span style=&quot;font-size: 17px;&quot;&gt;RPs&lt;/span&gt;" style="text;html=1;align=center;verticalAlign=middle;resizable=0;points=[];autosize=1;strokeColor=none;fillColor=none;fontFamily=Arial;fontSize=15;" parent="1" vertex="1">
          <mxGeometry x="1142" y="1196.91" width="140" height="30" as="geometry" />
        </mxCell>
        <mxCell id="BStY4UZLv6UZcWrJa_nu-32" value="Categories of&amp;nbsp;&lt;span style=&quot;font-size: 17px;&quot;&gt;RPs&lt;/span&gt;" style="text;html=1;align=center;verticalAlign=middle;resizable=0;points=[];autosize=1;strokeColor=none;fillColor=none;fontFamily=Arial;fontSize=15;" parent="1" vertex="1">
          <mxGeometry x="1297" y="1196.91" width="150" height="30" as="geometry" />
        </mxCell>
        <mxCell id="BStY4UZLv6UZcWrJa_nu-33" value="× 2" style="text;html=1;align=center;verticalAlign=middle;resizable=0;points=[];autosize=1;strokeColor=none;fillColor=none;fontFamily=Arial;fontSize=16;" parent="1" vertex="1">
          <mxGeometry x="1384.5" y="1412.47" width="50" height="30" as="geometry" />
        </mxCell>
        <mxCell id="BStY4UZLv6UZcWrJa_nu-34" value="" style="edgeStyle=none;orthogonalLoop=1;jettySize=auto;html=1;rounded=0;exitX=0.5;exitY=0;exitDx=0;exitDy=0;entryX=0.5;entryY=1;entryDx=0;entryDy=0;fontFamily=Arial;" parent="1" source="BStY4UZLv6UZcWrJa_nu-25" target="BStY4UZLv6UZcWrJa_nu-26" edge="1">
          <mxGeometry width="100" relative="1" as="geometry">
            <mxPoint x="1244.5" y="1458.91" as="sourcePoint" />
            <mxPoint x="1344.5" y="1458.91" as="targetPoint" />
            <Array as="points" />
          </mxGeometry>
        </mxCell>
        <mxCell id="BStY4UZLv6UZcWrJa_nu-35" value="" style="edgeStyle=none;orthogonalLoop=1;jettySize=auto;html=1;rounded=0;exitX=0.786;exitY=0.023;exitDx=0;exitDy=0;fontFamily=Arial;exitPerimeter=0;entryX=0.5;entryY=1;entryDx=0;entryDy=0;" parent="1" source="BStY4UZLv6UZcWrJa_nu-26" target="BStY4UZLv6UZcWrJa_nu-28" edge="1">
          <mxGeometry width="100" relative="1" as="geometry">
            <mxPoint x="1371.5" y="1408.91" as="sourcePoint" />
            <mxPoint x="1371.5" y="1368.91" as="targetPoint" />
            <Array as="points" />
          </mxGeometry>
        </mxCell>
        <mxCell id="BStY4UZLv6UZcWrJa_nu-36" value="" style="edgeStyle=none;orthogonalLoop=1;jettySize=auto;html=1;rounded=0;entryX=0.5;entryY=1;entryDx=0;entryDy=0;fontFamily=Arial;" parent="1" target="BStY4UZLv6UZcWrJa_nu-27" edge="1">
          <mxGeometry width="100" relative="1" as="geometry">
            <mxPoint x="1212" y="1350.47" as="sourcePoint" />
            <mxPoint x="1264.5" y="1388.91" as="targetPoint" />
            <Array as="points" />
          </mxGeometry>
        </mxCell>
        <mxCell id="BStY4UZLv6UZcWrJa_nu-37" value="" style="edgeStyle=none;orthogonalLoop=1;jettySize=auto;html=1;rounded=0;exitX=0.5;exitY=0;exitDx=0;exitDy=0;entryX=0.5;entryY=1;entryDx=0;entryDy=0;fontFamily=Arial;" parent="1" source="BStY4UZLv6UZcWrJa_nu-27" target="BStY4UZLv6UZcWrJa_nu-29" edge="1">
          <mxGeometry width="100" relative="1" as="geometry">
            <mxPoint x="1164.5" y="1308.91" as="sourcePoint" />
            <mxPoint x="1264.5" y="1308.91" as="targetPoint" />
            <Array as="points" />
          </mxGeometry>
        </mxCell>
        <mxCell id="BStY4UZLv6UZcWrJa_nu-38" value="" style="edgeStyle=none;orthogonalLoop=1;jettySize=auto;html=1;rounded=0;exitX=0.5;exitY=0;exitDx=0;exitDy=0;entryX=0.5;entryY=1;entryDx=0;entryDy=0;fontFamily=Arial;" parent="1" source="BStY4UZLv6UZcWrJa_nu-28" target="BStY4UZLv6UZcWrJa_nu-30" edge="1">
          <mxGeometry width="100" relative="1" as="geometry">
            <mxPoint x="1329.5" y="1308.91" as="sourcePoint" />
            <mxPoint x="1429.5" y="1308.91" as="targetPoint" />
            <Array as="points" />
          </mxGeometry>
        </mxCell>
        <mxCell id="BStY4UZLv6UZcWrJa_nu-39" value="" style="edgeStyle=none;orthogonalLoop=1;jettySize=auto;html=1;rounded=0;exitX=0.5;exitY=0;exitDx=0;exitDy=0;fontFamily=Arial;" parent="1" source="BStY4UZLv6UZcWrJa_nu-29" target="BStY4UZLv6UZcWrJa_nu-31" edge="1">
          <mxGeometry width="100" relative="1" as="geometry">
            <mxPoint x="1164.5" y="1238.91" as="sourcePoint" />
            <mxPoint x="1264.5" y="1238.91" as="targetPoint" />
            <Array as="points" />
          </mxGeometry>
        </mxCell>
        <mxCell id="BStY4UZLv6UZcWrJa_nu-40" value="" style="edgeStyle=none;orthogonalLoop=1;jettySize=auto;html=1;rounded=0;exitX=0.5;exitY=0;exitDx=0;exitDy=0;entryX=0.5;entryY=1.027;entryDx=0;entryDy=0;entryPerimeter=0;fontFamily=Arial;" parent="1" source="BStY4UZLv6UZcWrJa_nu-30" edge="1">
          <mxGeometry width="100" relative="1" as="geometry">
            <mxPoint x="1329.5" y="1238.91" as="sourcePoint" />
            <mxPoint x="1372" y="1227.72" as="targetPoint" />
            <Array as="points" />
          </mxGeometry>
        </mxCell>
        <mxCell id="BStY4UZLv6UZcWrJa_nu-41" style="edgeStyle=orthogonalEdgeStyle;rounded=0;orthogonalLoop=1;jettySize=auto;html=1;exitX=0.5;exitY=0;exitDx=0;exitDy=0;entryX=0.5;entryY=1;entryDx=0;entryDy=0;" parent="1" source="BStY4UZLv6UZcWrJa_nu-42" target="BStY4UZLv6UZcWrJa_nu-87" edge="1">
          <mxGeometry relative="1" as="geometry" />
        </mxCell>
        <mxCell id="BStY4UZLv6UZcWrJa_nu-42" value="ERNIE" style="rounded=1;whiteSpace=wrap;html=1;fontFamily=Arial;fontSize=20;fillColor=#E6E6E6;strokeColor=#666666;fontColor=#333333;" parent="1" vertex="1">
          <mxGeometry x="1647.1" y="1487.44" width="120" height="40" as="geometry" />
        </mxCell>
        <mxCell id="BStY4UZLv6UZcWrJa_nu-43" style="edgeStyle=orthogonalEdgeStyle;rounded=0;orthogonalLoop=1;jettySize=auto;html=1;exitX=0.5;exitY=0;exitDx=0;exitDy=0;entryX=0.5;entryY=1;entryDx=0;entryDy=0;" parent="1" source="BStY4UZLv6UZcWrJa_nu-44" target="BStY4UZLv6UZcWrJa_nu-61" edge="1">
          <mxGeometry relative="1" as="geometry" />
        </mxCell>
        <mxCell id="BStY4UZLv6UZcWrJa_nu-44" value="Conv Layer" style="rounded=1;whiteSpace=wrap;html=1;fontFamily=Arial;fontSize=20;fillColor=#e1d5e7;strokeColor=#9673a6;" parent="1" vertex="1">
          <mxGeometry x="1543.8600000000001" y="1333.44" width="120" height="40" as="geometry" />
        </mxCell>
        <mxCell id="BStY4UZLv6UZcWrJa_nu-45" style="edgeStyle=orthogonalEdgeStyle;rounded=0;orthogonalLoop=1;jettySize=auto;html=1;exitX=0.5;exitY=0;exitDx=0;exitDy=0;entryX=0.5;entryY=1;entryDx=0;entryDy=0;fontFamily=Arial;" parent="1" source="BStY4UZLv6UZcWrJa_nu-46" target="BStY4UZLv6UZcWrJa_nu-48" edge="1">
          <mxGeometry relative="1" as="geometry" />
        </mxCell>
        <mxCell id="BStY4UZLv6UZcWrJa_nu-46" value="BiGRU" style="rounded=1;whiteSpace=wrap;html=1;fontFamily=Arial;fontSize=20;fillColor=#f5f5f5;strokeColor=#666666;swimlaneLine=0;fontColor=#333333;" parent="1" vertex="1">
          <mxGeometry x="1751.96" y="1273.44" width="120" height="40" as="geometry" />
        </mxCell>
        <mxCell id="BStY4UZLv6UZcWrJa_nu-47" style="edgeStyle=orthogonalEdgeStyle;rounded=0;orthogonalLoop=1;jettySize=auto;html=1;exitX=0.5;exitY=0;exitDx=0;exitDy=0;entryX=0.5;entryY=1;entryDx=0;entryDy=0;" parent="1" source="BStY4UZLv6UZcWrJa_nu-48" target="BStY4UZLv6UZcWrJa_nu-107" edge="1">
          <mxGeometry relative="1" as="geometry" />
        </mxCell>
        <mxCell id="BStY4UZLv6UZcWrJa_nu-48" value="Project Layer" style="rounded=1;whiteSpace=wrap;html=1;fontFamily=Arial;fontSize=20;fillColor=#ffe6cc;strokeColor=#d79b00;swimlaneLine=0;" parent="1" vertex="1">
          <mxGeometry x="1739.46" y="1211.44" width="145" height="40" as="geometry" />
        </mxCell>
        <mxCell id="BStY4UZLv6UZcWrJa_nu-49" value="× 2" style="text;html=1;align=center;verticalAlign=middle;resizable=0;points=[];autosize=1;strokeColor=none;fillColor=none;fontFamily=Arial;fontSize=16;" parent="1" vertex="1">
          <mxGeometry x="1498.44" y="1338.44" width="50" height="30" as="geometry" />
        </mxCell>
        <mxCell id="BStY4UZLv6UZcWrJa_nu-50" value="&lt;font style=&quot;font-size: 18px;&quot;&gt;Sum and Average&lt;/font&gt;" style="text;html=1;align=center;verticalAlign=middle;resizable=0;points=[];autosize=1;strokeColor=none;fillColor=none;fontFamily=Arial;" parent="1" vertex="1">
          <mxGeometry x="1806.3500000000001" y="1374.7600000000002" width="170" height="40" as="geometry" />
        </mxCell>
        <mxCell id="BStY4UZLv6UZcWrJa_nu-51" value="&lt;font style=&quot;font-size: 18px;&quot;&gt;Select and &lt;br&gt;Upsampling&lt;/font&gt;" style="text;html=1;align=center;verticalAlign=middle;resizable=0;points=[];autosize=1;strokeColor=none;fillColor=none;fontFamily=Arial;" parent="1" vertex="1">
          <mxGeometry x="1811.21" y="1110.44" width="120" height="60" as="geometry" />
        </mxCell>
        <mxCell id="BStY4UZLv6UZcWrJa_nu-52" value="&lt;font style=&quot;font-size: 20px;&quot;&gt;Word Sequence of Paragraph&lt;/font&gt;" style="text;html=1;align=center;verticalAlign=middle;resizable=0;points=[];autosize=1;strokeColor=none;fillColor=none;fontFamily=Arial;" parent="1" vertex="1">
          <mxGeometry x="1564.65" y="1550.58" width="290" height="40" as="geometry" />
        </mxCell>
        <mxCell id="BStY4UZLv6UZcWrJa_nu-53" value="&lt;font style=&quot;font-size: 18px;&quot;&gt;Select&amp;nbsp;and &lt;br&gt;Upsampling&lt;/font&gt;" style="text;html=1;align=center;verticalAlign=middle;resizable=0;points=[];autosize=1;strokeColor=none;fillColor=none;fontFamily=Arial;" parent="1" vertex="1">
          <mxGeometry x="1483.6" y="1149.94" width="120" height="60" as="geometry" />
        </mxCell>
        <mxCell id="BStY4UZLv6UZcWrJa_nu-54" value="&lt;font&gt;&lt;span style=&quot;font-size: 18px;&quot;&gt;Token Level &lt;br&gt;Features&lt;/span&gt;&lt;/font&gt;" style="text;html=1;align=center;verticalAlign=middle;resizable=0;points=[];autosize=1;strokeColor=none;fillColor=none;fontFamily=Arial;" parent="1" vertex="1">
          <mxGeometry x="1479.27" y="1256.44" width="120" height="60" as="geometry" />
        </mxCell>
        <mxCell id="BStY4UZLv6UZcWrJa_nu-55" style="edgeStyle=orthogonalEdgeStyle;rounded=0;orthogonalLoop=1;jettySize=auto;html=1;exitX=0.5;exitY=0;exitDx=0;exitDy=0;exitPerimeter=0;fontFamily=Arial;" parent="1" source="BStY4UZLv6UZcWrJa_nu-56" edge="1">
          <mxGeometry relative="1" as="geometry">
            <mxPoint x="1707" y="1048.44" as="targetPoint" />
          </mxGeometry>
        </mxCell>
        <mxCell id="BStY4UZLv6UZcWrJa_nu-56" value="" style="verticalLabelPosition=bottom;verticalAlign=top;html=1;shape=mxgraph.flowchart.summing_function;fontFamily=Arial;" parent="1" vertex="1">
          <mxGeometry x="1697.1" y="1093.44" width="20" height="20" as="geometry" />
        </mxCell>
        <mxCell id="BStY4UZLv6UZcWrJa_nu-57" value="" style="shape=image;verticalLabelPosition=bottom;labelBackgroundColor=default;verticalAlign=top;aspect=fixed;imageAspect=0;image=data:image/png,iVBORw0KGgoAAAANSUhEUgAAAI0AAABPCAYAAADWfkYaAAAgAElEQVR4AVS9d3dcd5IsyO8xIoDyKF+F8g7lANB77y1I0Bt4W/76W0VKlKGkltTqVtvp7jc7O2/evLd7zu5+sdgT+aN2Zv/AmWmRRN26N3+ZkRGReQ/N39xC/domKo+2UOhvoOiuoeCsotDdRHl5G/Wza2ifWEPjyhbmr25g/tomqs92UFzfQXF1B9V7W1hovcJi4iEWQjdxJHQLx6P3cTTzGEeyj7AQuYmlufvyd9oLb7HYfIOF4/ydq1g8uob24ioWm69wpPUaraXXqF5ZQ+nVNgobO6g82kTj0hqax15jsfwMS/XXWDi2itbJNbROrKO9+BYLzTdot19jqbSCpdBNLAZvYCG7jIUjq/J3FqvPsDB7C63gDdTbT8Dv2zi5ioXycxzNrmAht4LFxis0T2ygcXEbtfPrqN3YQvUO78sWGmc20D62joXaCyymHmIhv4LW4lu0Gy/Qjt/BQuQWWq3naJ5bx0LrBRZjd7Hku4pj6UdYqr3CwtIq2ifXUT+/jsrDTRS2t5DtbiC/tYnq/U00T6xhofkaiwuv5R4tVF5gceEtmmfXUb+4ieaZdSxWnuJ4YhkLtaeoPtxAYXMbub1tFN5soX55He32S7QXX6B+fQ3V5W1Ub2yheWwNC5WXWMo+xdGM+jmSe4al9GMcCd7CYu0Z5q/toHFxC0vVFziaeIjFuWUsVp+jcXYN5ZUdFNa3kdvZRn57F6Vnm2g1V9BK38Wh2HMb8Sc2wjsmwj/2kfqXPST/ZQ+RHweIbNtI3zSRu2IhvTxBcsVB/KmN2cEEnncufK6L+FsbleNDNFN7aM9uYDG4hqXIJlrZfTSze2iF3qKd2kL9iIbqCRPVozqKl23kr5gon7dQPm2iemyE+aMaSmd0JB9ZCOpj+CZjhHYspB9YKJ7TMD/fxfzCCOVzJgpXLRSv8N/qqC0NUTs2QrPaQTvwBm3/G9RLe6icM1G6bKPe7qMd3kDL9xbFowdIP3GQv2xivtFHq3CAemEP9cUBClcsZO9PkL5rIfnEQfyVg9SKg8xNC6VLJuoLAzQzu6hXuqieMuVz68ktNCPrqCz1Ubhho3ZkiGZkAwuHX6I9ty/XWzpronDNwdx9B+FNF94vXEx9b8DzuYnIhoXMVR2lY0NUT45QPaGj1hyidkJH4ZqNzB0HhesO6vMdLCV3UWv3EFt34HlnYeqjCb9lI/3IRPHECIXTIySe2ohsuYg/t5G/oGO+MUAz38VCtoOFXBcLhS7amQO0g2uoNbvILL9H/s4Y9foAi/EdtHL7mG8NMXfLRvBgjJmJg8NfuJh+P0ao46C4tI9qcg2Hwm8dRF5aCPVGiP1xH8V/30Dh3zcQ+0MP4b6DxCMb6bsO4i/eIfraRXjVhtd28E/fmvjsawPBPQv5ywYa9RFahZ5cYDvXQb02QKM6QCuxjWZhX4KjcNFG/qKF5AMX8ccu5u64yF53UbhooXjRQuaGjcgrB56xhamvLPh6FmJPHWSvW6guDVE5aSB7w0LqkY3EYwdzt00ULuooXLYk8Fpze2jPHaBybITsXRfpZRfF8zrmK13MZ3aRP9dD8rWLzB0b5VM65heHqLV6qJweIX3XRuLZBLEnFiJvHITXPwXOAwv5WzaqZwzMN4aoHtFRuOpIwPM7tnIdlM5oSD1wUDpnoJE9QDu0gWalj/JpC+lbljpsL10EuxamP5r47Ochpr/RENozMXfXROm8geJlUw5T6aSB0gVLrif+2MbcPReVI0O0ygPkT+sI7juY/kbH9E9DeD43EH9lIn/JQvaKichbG/6OjfCahcwtA9WTOubbI9QbQ9SbQzSWNDRaGhpz+ygeH8ozTT0eo3JMR7vSR72lgUGeWLHhH9mY/qDjnz4a+OwbU/534fQAleIuDkXfOIg+txDpjZD60x4q/7GO0n+8RewvBwhpFuIrPO02om8miK6OEVq35aEe/l7H1EcdgY4tD7J2RFcXVuujWe2j0RihWWMG2kW9cIDSaQP5yzZy1y3En7oSgKlHDjK3HeQlc5jI3LIReatO0vQ3BvwDE9Hnrpz26pEByid1ZG6ZSD6zEXntIv7EkpvOoC6eNzFf7qJRHqB41pQsEXtmI3vdRK3dx3x5H7nLfcTWxkg9dFC8YMpNrS4NUD6jycFIPp0gtmLJ92RWiL92kXpoI3vLlgc7v6ChcsJE7qYjgVpv6WiV+yieHSH10ELhoolGqYdmbAeN+hDlCzZSvHevbIQ2LHg0A599p+Ozn0fwfKNjdt9E5p4th4b3IH/VRvGULtfGYEo+MiVDlY9raNRGyJ3XEejZmP5Ow8zPQ3g/GIitmsheNzB3U0N43YK/72B2y0b6gSkHkfesclRD+ZiG6ikdtWMmGoUeiqcGiL90JauWTmloMMMdZxUwkHhuwmdYmP5aw9S3GqY/6gjqFgrnRqhUD1ieXERXLES6GlJ/3kf5f6yh8B+riP2VQWPKiU7edxF+O5bACa06mJlY+Ow3Kmj8XVsyBMvOfFuTjNOsDtGoa2iWB2gmWaY6qBw3UbjEdG8j/myMyFsXiSc25m5ZyF80UTprIXuVweBg5nMb098yuk1EX7ry+yuLmvyO3HVmhDHCqxPE+KUf2Ug+HKN43sZ8sY96qY/iGQPJFRfRp46UQd6QRqmD7JURIpsTJCUrmKge11FjyTvNgB0jtTxG4pGJ6NoEwW1+37Fkxew1B6WTLGkjVI8byF135EHP89SWeyie0TB330Xhgo1msY9WfBf15giliw7SD11EXzly2LwDGzNfW5j+QYfnKwOze8wkDvIXbOQuWRL4paMjlM6ZyN52kHroInPXlYferGgonNURHNiY/o2O6d+N4PmK12oje83E3A0NoQ0bnuFYrj350EHuio3iGROVEwYqxwxUTxiYP2KiWRigdHqE5Msx0k9clE9qcsirxwwULlmIvbDhMR0c/kbHZ98ZmP5IyGAhd36I0nwHh3jq448tRLsaEn86QPbfNjD3bxuI/KmH4NBActlB+p6LyBsX8RdjhF+rTPNP32uSafxdS8pHbUmTG9WsEV8waEZoVIZoJffRyuyrtH7extwNG4knLqL8fU9tVWIumJLKc5ctRPn7P7cx860hQRN75UjQlP9L0MSfTzC7PkFMso2LxGMVNM18D83cgdR4ZjFiNZaveq2P+WIH2WsjRDfHSN8nHjJQO6pJDS9L2WNWcRF/ZCCy7iK04yL6dixlhze/dNzA/PwAlaMj5K7Zkg3m6wM0yh2UTo2QucNSaKFZ7KGZ2EG9NULpkgqa2EsHs6sOfF0HMx8sTH2rY+YLE7M7NjJ3bRQu/HpwDJSXhlIisrdcpB6oUsrS3C4PUTyrI8TA+42OmZ9H8H4wEX1rC0bLXdMwy6AZjRHaVhmSWLR0xkDtuIHaEQO1YzrmFwy08n2UTmtIMGhWHJRPaGjM91E9qgl8YIb2ag6mvjTxTx9NTH1tI6DbyF0YoNT4FDSsYZGOjtnfdxH7+y4if9tD4OchAn1TgmburovYSxvJp65gDq/r4LNvdbCEBDsWctcszC+OFK6pjNCuDNFoMKUqgNwkKFzUUD5D/GNhjg/nhUqNmdu2pNHKWXUyoq8deN85mPnaRGBoIf5yjOwNG5JpTpjIX7fBoAmvT6R8MACTjxg0Ftq5HtrZAzCdE88Q0JYuGhI09WIHOQbNhou5exYqxDRHNNQbA1SO68hes5F+6CC2YmJWgmaM2OoE6QcuclccKUv1+lCCJn/NRvm8ifp8H61SB5WTI2RvOSifs9Eq9dFI7mL+U9BIIL5Uhy6w58IzdjD9hQWPQ9w0Rua2i+JFW8odQX5laSTlNXuTh9VB9paF2sIA7dJQGoJQ38bUdzqmf9TheW8h9lplvfxVBrsD33CM2S1XGgjeax6O+WMGakssTcRxBpp5ZhoNsRcuUo9tlWnqAzlELLGJFQeBPoGwjc8+dzD1uQP/yEHuwgjlZheH+BcIdsMHOvy/7SPwpy58f+jC8xsNzCKJZQdzd9g1WVLfoy8c+BxXUtfMVwZCBzZyVy3Mt4doVvnl+NNHY36EenWARmpXOisCssopQ75EnmD2oY25u7YEXJE365QlKZqpnDd25ktTgpbBlbtho8pMc8xA/gqBsMJExDbpZQUWWWJa2S5aha6cnLn7tgBmgsxGtQ8JmuufguYuS9NIuhs++OoRTQXzfQaNhdCmi9DufwZN/r8GzdJIgGflDH9vTwXNiZFcI0ssy1P916BhebrvIP7MQfSlg+CWA6/pYNq14dFchN+MkbnJssbSbaJ8xkB5cSjlNXvdxtwdhRfnW30s5Fl2Rwj0Lbn3h7/TMTM2EX1ho3DOlGYksubA1x9jdsPB3F1Lfm/lhDoctfYItaUR5ls6GjlmmpEEDct7+cRIMk3tiIbieVYXG8F9F17DxozlYsZ2JDkUzg5RbnRxaO4ecYWJyI4O349DeH8ZwPP7IWa+N+DvWYizPN1xkHrAjGIjvuLAb7uC/j1f6pg9sFTQNAdoF/+ze2LgsJtqJ/bQTuxivjlULeXSCJWTuqRBflmWhgpT56KBwmkd0ReW6p4+6PD3DcRe2cjdMCUoK0dGKJw3kbnBem8jtaw6u/x1V1r5ZuYADQbNUQ25G9b/1yU1SgyaLjIMmk0HmVsaau0B5tnhlfuoLY5QOm8hd8tFfMVGcMeF/8BBmDf/AbOKBd7Q+VoPtdYAldOmUASNYld9HoPmOk+sjjYDN7krwLJ03kHuxqfAWXEQ3HTg0V3MWCojRF65yFw3UTxryA9xYbU+kM4uf404y0KeLXejj4XUPgon+/ANTRz+RsPUNxo8jonYExOl4yPkL2iIrNrw9V3MrivsWDrFDKOBAJ5tdaMxQJ3QIXuA4ukhEs9cpJYdyZ4sq+ywCIpTD1g6HfiH7KJcKVXhHRvF0yNUGj0c4gPJX9IQ29Tg/VHDzO+HmObPDzr8AwvJR6yrLjK3TeTP6kg8tOCzHcEzLE+hro3cFdZ7VRoWknuQn9S+fNHF2C7ayT3MNwdg1NfrzEJ9dcoJUOeHUsaIf8pLAySemfC+s6WeeodsIy1kbhrqYR0Zqtb9PE8gg9nG3E0HxUs2agtDLKR3hYdga8wTQz6mujRCM9dFI99B5sYIkW0X2VuK92nke2gXemgQDBOI33AQe2ojcOCCoDW4Y0tXxCBv1AdoFTtoMHCW2MaStzlAM9eRzMZsyLK4MHeAxcQumk1eA7OwLR1ifNlGYMuFxxhjxnSljBD0Z64ZkmHI0fBgsQPk5xWumcjeMoWnma/30Ypto3i8h4BmY+ojwakJj2sjtmKguNBH/twQ0TU+aBezPBg3LWmlWSbr7RGalR7axa6U8GZ6F4XTQySfj6Uk1xaHQlWwEyTOy9y1MLvtwjdQv887chHediRoSq0eDmVvsixoiG5qmP5+hMM/jfDZTwNMf6/B3/81aMZSSrLnDCSWbXgdF5991HH4W0NawNwlHY1KB+30HhYSe1iI76Id3cZCdAeL0V20U3uotRXPMl9jCTnAQkWl9lb+AK18D618F5V2D8mnBryOg+n3fHDq1KRvm6i0+6gcZdBYKJ1zkLvmInPLgXQ2F1TQtBPbWGC7W+xJi1k6TYKrj1b6AI1cBxm2pTvsSHTU5rvS1S3mGTQaSucYgGyPLeEkZiwbvoErHAs7mmb+QIKyWTiQ39ng95jbRzPfEZIxe4cdlo6F7AEWkjtoLAyleyFRRl6IZT64OYFX448Df28sXRXbZZal6nENBNYE7ORX8ldNZG/+GjQ9tGJbKB7vImCMcfhrHio+B2Z+AyUGzXmWXgc+jSBeNRgldocSNJoEDa9tMXWAVmoXxTNDJF6MkV52IEGT3EMr2xFeJ3fLFp7K1yHv48Lbc+V/F09pKC70WJ4cJO9YmN01MP21gcPfmPjso4bpT3iFnEbqLrsKB+nrDqLPXMy4LlhT2RYH+g4Kl3S0Sryp+1hgt5TcRTu+i8X4ngTNwicgXDltodoaCNnGE9uo9NAsdtAq9sASUj4ykKAJGCQQXfi7rpSI1D1Laj1JOwJeBgq5GZZWEn+lyw5qxww0kztYiGyDXVTtqC5kYKM2QDt5IAHCoJnd4+kyUWv1JVgXCsx6GgrnVakLr5nwmCam3lmYNsmuupCgybDMbqMprOkAjfkemtkD1Etd6aRSyxNpnZvkadK7QjYm7zgC0lni2ALPrk4Q6IwR7DiY3SXWUddPYpM0QXVhhHliLHJaV1me/kvQJHeQP9ODz3Bx+Asb0xMbft1GcsVC8egQmUsjhLds+AwHoV3iRQssT2wgCIJZntpFHuwDtNJ7KJ3VEH89QfIJS/tIDnYj20GtpSF/3ZKADm7ZCO04COw6iL0m86+h3BYgbCP6zBKgM/OFhanPbUy9Y1vtSuvGzil7eyw3L/bERWjdwfQ7W3ga4p6gRsJOQ7PWQzvXlZreznTQLHQko7RTu1jIHwgnwgfO9q5KJnZpJKmQeKLR5hfTULigIfXCRKhPtD5G8IBp0UbqsYXicQ2lE7qSNO7aSD76xGPccpG7RXLPkmzQSu6hVumjcsYUhpblkBmhkT9A9oaGyM4YqUcWysdGaFV5AkeotXXkz7FT5E2yMeOyY1AgkG095Y1WsSsHolnuSlaoHhmhXu5LZ5a/Zsj9IQfFh8PPq57QkHysusTUii3NRvSVi9ldF8FdHoaxcGCZm8ya7BxVe8wHWDlnIX+N2MuWbrHa7kv2zF8cITByMeO4mObBGthCW+TP6Zi7bsoDZoYMHqgmoHDRQOmUrrDkIjm0IerFARqZjmQm4d6eOSie1NDM8h51UG2PkLtiCocWeWNLySPATj6xUTo2QGmhg0Nscdmqsb2dfmdi2rUwbVvwmi5CbN2IG+6yPXQxuz2Gf9/G9BcmPvtxhOkfNfhsC6kHhmAHdiLMHtKt8NS0B2jm9tCqdKVrKlwis2qJfkSqvHzJEcq8ck613Twdsbe26Bz+novAnoPQNsk8S0By8STZT+pgDuLP2dG5Qr6lHymMU2fJy3VRZbt7hSCSWheJvS7mSe7d0BHeIq9jonhGR6NJDofXSYBtgA+Xp3TatjH9zgIfAHECTz0JQv7uWrOP4kUT7Pj4OcRq2VuG8E7p+65gKz6AyilNCMb4S0do+cRjG/z/Ca5DWw6ib10kHzNj2kjdU8xx7rYlckLhCr+Pi7lbrtAN5aMD1JuaXD9Lpnc0hq9ry7OgdkjKg7+Dh2zGtQVWUIei5JK7aMr9pgTDlrva1FAv9AQ4h9+6YDecP62hWewKXcBDnL9kCJaLPWfGIXfGe26jtNRHsX2AQ4z6AOuWwZSnbpTHJNhVqSnxwBLyz9u34NXG8BCIfaVj6ucBpn4eYua9KRwObzrp6urCUAKInAW7jHq5g2a9jyJZz6t8AMxM7NhckIvgT+bmGOnbY0SfqA6DQDS4r0iq0K6LxCtHHlJRmFtLAmZ2jSyrg/ArG9G3jrC51eYArcoQlWMacnwQj5QwWlskHzNE7qaB2R0XsWcWcpcNzB81UG+o1jt3yUDihY3QnoUZk9mGrKiN8KaD7F1HKPZGrY/SESXokbEtnzIktZP3mV0bI/HQFZ5lPr+P8smRcCCxFw6ilE3488pBZMMWEo7XTHJTiNVnJiKvbcRfOEjdN5G+qQC+aHOUME6OUDtmIXWfepwDf3cs2YpAncRh+p4lVIG/xyphwTPiw7aRvmcLIM5fUVIFORgyxGS2C5cMYeV5fcVzBlq1IVo8QEcM8F6k7hmIPzHBwGFgZu45qC70UWp1cMijO5jWbczwdE0c6ct50jwTF4HBGJGXZEYdeF3159O2iemPI0z/0sP0L314vuBpdCXaSSRVj1Gf0VG4wq7Gkq6KymnushInc6S879gqQzCL3VIBRNY5+lxxGcH9CUI7E4Q2mMoniL8Zo3DeggTNbWYjR05VoOcgcKBOWPTFBOUjGprzVMs1pJ7YIjxS++G/qy5omLtlyM2OvLIwd8NEmWp1ayjqNEsBv4e/Y2LGsuBx2ekw0xGX2AJ2G/UeSidGSC27SD8ZizJOTW3ugYPI2gTJ+7YcGpbC6klNndanFqIvxoi8eYfwBr+Xi8CWg9mNT6z4Swa9Jewws2D8mYX0HYq3zPJjkREK5wxUTjlIPrDg7/K7v0dwZ4LgLuWYsQRn/LmJIEXGL2zMmJZUhuRT6myqe2NnmLltIX/DQZVQ4LKF2OpYApWMdLM+kmxWPmli7pqJ5ENLMBcJwPgzBQGompfJCHvfO5hxyFBamCGpZjiYthxMT8bwjcZgCmOJmPnSgocUuGVg5tsRfH8cwMufDwbCb0hlW2J9IONI8VKC5gqDpotqeyhZRjLLdVMEw9iTMZIPCT4tzN22BNSKRWONloh3CG9NwGzCTBh/6wqBVThFVdiS9o/lk4CcnQjBYXTdESDdqAyE1uepJeNKIF8+oaPSGGDu+gihXQfhNZ5o0vcG5hfIhI6kBEc2JvB1WJ5JwDFoXAT3VEYonhqhUSYHNJSyQusEWVh2FHwwEX7WfUsANgFy5aSGBMXKZxbib1xEVvl9JghtjoWvIQFHsZiiIe0lEV7Xniu6Dw8VW/i52yRWXRTO6KAuxMwRYpbZmyC4NRYCMsIM99hG4qlSoqc+qKBh2518RkZbsc48FEKo3rdFqqC8Elnl56l7S/6m1tBEYyM7TuAef0qw7gpDTN6oUemiRsGSOo/HNeGxTOEPvH0H/JnRxlIiKBiyBk8xaL60MGXr8Hw7RPDPfYT+0of/gyaEHEUvloBmlcIl0b8rnpBao6ci+7qDLIPjto3o8zFm34wRe+Yg/tgBSyAjO/bEQfjNBKH1CcKrzHIWgtsOYquOYI78aVMIvWDXwdQ7F4ffufBoDryGi9iWhfKRvgDw0skBoq/I6I6Ru2miXmd31kXu0lDKQ3jVkRvNLoGYh0FDJZt6WGCX5cnFYZdgU92DOFnXsyPMl7oCoJNPHSRe2iid01A8NkRy2RKvDAnQaquP+cweytR2noxFjWdmZBlh1mYZow5FkMnvT0BP4ZbfUXlhmBEYNOpepT8FDe0LqbsOZvfHmN10MfuWbTGrADtb3jsTPp3QwYLHtjC7TvKTthL6hygqW0pHXHZQXuijcFETLEvGnYLrfLmHGgXZkyYKl22k7vMeMWBc+XdkrBvFDuYr+zjkYaZ5Z8FrmPD1HfFrBPYd+Nm5rDLibCUivrfh+crF1FiH74cBwn/rIPb3fYS/IbNootrsikmJVD6NRNIV3LJRafaErc3fGCNL0LfsyIljeuUpib4eS1mKPOdNHSNMneali9hzR7wtDNjIhoPcZR35s4ZQ8uQipiZjTFsufCTiemPENmzJNLRhFM4OEKNC/dwBqe/G3A6ayV2UyE28tOV3x5+Q7XUkU7Bzy18yRaua3VQU/5St2NvAwRixt66A4WqjC2YcMqlJaja0aywMpBsLbytgK11V7gBlXuvrd/JgY68U0xx7bKvAYfPxguXGwdxNliMTiadsa8dyqllGyJ+xCUmzez2ro3jakPI3u/kJMjxTlgv53SzFL3nwlRjqdYlXFJ6hYFk+YSB/gQdujDkGTbOLwgVduBcGMy0PbPVri6QpTBQvGJi7wyCzVaDdV9YTGrrqxQMcmhnbmH5PkGsJdS7AmCB0j/WOPALbW0avjekvx5h6P0Lwdz3E6fD7121Efugh8dxArbqPBbrWxGE2EMmfnpBiuyNEW441+h55BQezOxPwYZB1VIHzyXrxeiwpkbaG1GNXsk9kna5CAmZTsg01HFLxLKH+HgPQxezWGPG3jhiLSB7mro7kQc89JCPcQyu6gWZkC6UTA/HZ8CAkHlmStUjhz7d1AbVzd0xE31jwDBwBwZ6RA4qM0TUGvIPKsaGo5onnLlJ3DVRZehs9sHsLb49FvadvpZ49kDY9/nosinniKf8+T68lto7IizFiT8eYu+3KwyTwpFaWWGHJVtiDhGby7qeguUSvjcJWtIQkViZCsjJDUdfiAaPxio6+6Z80+N/riL2ykJPyS6wyEuIx/XAsskhl/kC4NeI1Blf2ii4Kd+WkJTivdFZH5oaJ5D12ZTS7OSidobbXQz3H8uQ4mHpvwzuyhcQJbrPVnUi9TDxll2EhddeUP5/+fILpz3WE/thF/H/fReJftxH+bQ+JNwZqtQMszK5jIbGD2tIA6QcOMnSlNTsoHxlJ8KXuWOJXYdsZ2LMlhbLlZ11lxom/4mm15IvR5pm+Z4j0H94lI02TkwGife/QBR8oQWXs5ViySuKVi+LxEcqtnjC+fNCZBzZqiwO0aT9l0BwfyENJ3aZ78FPQnDHkppI4zF0zEH1hgp2ix7DgGzoI7Dhiyso8YLc0QuGKgeQzF+mbOmqlA9TqPaQf24LBkitjlBg0mU8t9wsXsTdK32FGkdP7dCLGMnJezMbMIMQspP0TDx0kqQXetiDXeJd0xxiZ6zay9xiU7JZo7RiDhCclHWpl7Mpmd214vzLh+WWEwBc0UrFx0NGYH4iQXD6qiwswc99CtXYAckt0AbKMzd2ke9BC6YKL0ikTZNLZsPB5MdtR6yufMNFKd+S7HfpVdfX2bcEPs1sOgnsq05AfESvDHRO+LrPNGDPvTPh/6SH8L3sI00LxmwFi6zoqrQ7a4S2REapHhsqRdtNEbb4j3IX4jOm6u6cj/tLG7Bq7CkXS8eRTCGXap+OMHhMGydxt1QYTFJOHyF8wkHiiSqe3y85mjNjLCSJvJ2LWInNLuWFOgu0TCD42RCu+jXZ0C+VjfUnx6RsmUrdN4UhKYkCi0q24nTi1LwaNRWBJTsWGeHrIsJ4cIn+R/Au7Gw310oF0h2zt2T3RRlE+wnK4Jy16emUsQDLNDuamgcwdE6mnLMf0EjnCoxALFmmtuG4IFOABZQDRnCYPjcz3DVPZSZ7YwuBSluD9YeAn6IV6bSN0YMH7UYfnDwME39OExvj+1UUAACAASURBVOtVmlmz1kfliKZU83sWatWO3NtA1wbLMbs12j8Kl12I3fQUSVQGrwpgCtXV4wyaPdTndnDIp9lSC2mDIOiUoNl1VXkSPoMPz4T/wPyk0Nrw/jRA4K8d+P7Qwcw3Q4Q3TZSOUB/ZVjrT4kDQf/GSgXppH/VPhJjYEq9rggGiz1RbxwsjCZVhVC/TlGQhy4sVMdIQszSzBv9e/pyS7Ult+w4sBHeZXl2xMpDnoIGJwmnupo7YG0WqEYM0UztoRbdQOtZH6q4lIiHTL3EDTe3kkcjE0rDO1tU7tKWj9GkqaBIk0G7Q6zJA4Ry7J4qoDJoO5qtdMCh4Hbz55fYAjfQu6kdH4tqLrdB6SVqBOMFE6olqABj8tL5Wjo9Epc5e+8+gIQjmPfmVWM1c0ZFn9nnIhsEW9ZtBxXLP/yaHcM+C7ysdvp9HCNq0tJBqoHtgiPlmH2VeD+/xPVMsm+m7CsPyULCDzV2mHER2WBeG+NegEaX9ii24tE31PrWNQ15yNKYhJm5aAn4NGmYb2v7mrttI37dB4shDCnvkwPPtCJ5f+pj+7RCHvzSkJS+cGoJmq1bmQJhg2gYJwkh0UTQki5q7biJ71ZAsxC8lreU1B8XLZG9V283gUYSfo/iCRzzpLuauWyicMQU8igLbU9cUpDZyQFabnps+GoUD5C9rwrkQn+SuaKjn9tCIb0umEQ/PdT4UUzoUliVaDyhv0K/MNtg7Ig3hwKsrB1+CBBjJQPI0JxUuIl6r1bqCa1LLlgQNb3C1QT/NNuaPDJXV86nKpnwwLCnEa8wyiZVPmeYE8YYmkkGcncp9dW3/NWhofipd0iU7MPvwz+iA5LRChljoGTOGBe87A95vdQSHqhuljZYlqnR8KAo1nyNxVbm2L+5FH6vLpsro9PRQladVhaQlCUESmLmblnA6tIYscGIhsYVDAnBtni7iDLq+FDdCRjayyhpLY5ILBpfHYOCwi9Lh+VnD1A8aDn+wxEqQu6KDNH6z0BWugjQ7P7yW3wPbbnYnmZsmMhTiqPry9N1RKjXd9DRykdnkjWXLSctD5go5HTKSLrLUZk4ZUvOZEX9ttanC+geujNvUFvtSc6naEzyHd5XxfL7aQT21I5iGgJPYgumdrrjScU26vfx5Q9pLut58I5qlSNdPENgnZmLQ8Pt1FS56rjoldk70l7BRiKy5gkWIceqJLVTZij9ypRuk5MFui0o323AGDYVCXkP+PL1Fhvy5tM/0Td9mJqNQ7AgTm6f56YymvMDSjitfNss4sxixziyFVssWN19w3xTsSBqBozmF8yw3unSHvI5Sqytsua9HXMlSq3AMpyk4jVA6b4LuRHI7zMY81PRSt2M7aCY2ccjzhYnpdwbIDPsOxuIuY9qnwjxLjmTFQZhm77EFz3sdM7aJGRqAfqdhmjaKrxVITt2nmWqI+nxP3P/sSmQuqbCPWqMv0crMQjxBBz7bOaZXnpi5q6YIbjyxiSfUshzM3Rojc5XWDJVpsteUdZEMLwEc3WQk3/y7DnwdB+EtRziXev5AZomoJIcO2GbyC1Oo2xe3Wlq4B0fKHu2dBbLFi7pkt9kNdnWOOPpJP/i6Y/gPxohssTzpQlQWzgwFGFPILFJGWBoi+ZSEo2JfqU3RrVg+pUmwh9ZpK3BlykLY9ecsTy7YgfFhs0wwa0XWLPle5G9IPLKzYueSve8if3Yk0xzMwHP3x6p837akLDIASfWHVg052CRoA/u2tPT0GNMET7cjP4cllNddOD6QzyYk4agOQTq5msJlmuYpkvJAqeDlwWLgUYpheRJM4/lOx9RXGqbJCvdcBDdt6Ri8fRJbjoDV8KoFBpfnW0O6p6nvlVFr6ncjfPatJqAx8cyQGSMOr3EshCMidNXLzFFzgOIV4hUHqTsm5ji3xNP2qUQproJp1pFug63nHCn0azxF5GkmcvporJKZnAFVeLrfXMy+4TWTxndROaFJyUjfpeuQlk12SI5MEDCYacxOPlNTBvQBU3XOsoyeMJBeHiPQnYj5m9oXxVL/LmUFVyyt6WUD5aN9aU9nd8YIb44lhbPTiL+yRNZg+1s5MhDFmPNWkVUGnYtA10Vgn+aoCSKv3wm5yRGc8Ft2QxQybQQ7NHO7YPdKwpP8TOq+i8xDtuU6CmcNIdxST94JgJc5radjhMmgr9HgRUuHjanPXakas6vUwnjwlBEs+cBGaH2M2fUxcuc1UeX9QyWTkA6gFicl9JErYzOCKdmQECQTCB/RZQCwkd/HIbr1pj5qmBrbcsPYghEc+T6pzNFnDiKvOCFgYuY7DrGZOPz9EId/O8LUT2oiwWuaiL80pU0jNqBjn246cdRVWa44wahEL9bU1DNXJhgZODzt0gmQRHyjLANxtqO0PFyxQGd8aO8dEpw/uqQj+pKdjQ3PO54oR+yoPG3ywDjb0+ohtWyIb4WniFbVynFDWGFqUjTHM2B8VNA3VWfClpeqMIPQd8DvP5Y/YzDSiMTWmw+WrLDoVyKmKnccU3/sDeeNaB4fo3RqiHpuF/nLOsI77zBDbY8CqG5L4NDiGflk0Oe9Dq9SYnDh79tCVjJI6R5kUAj5x6C5aMiYT2LFQuL5WHVVt6n0K2okuGcLhUH65LMvyZA78juleThjoHBOdWN0CvKzshcNYczJpJMvk4mTWyainND8NBbEoGF5Ik7jc5BMk95DI7eHQ76fdMx8T5OyLTpL5I2ioAXfbLrCHXCa0Wc6mPnKwfTnNg7TrPXRxPTXJmY+59QAiSmam+mX0cX2yM6Akn2l2hEgzBQnBNYjC4nXJMwcGZgj8SWzRk+VoZsUOQkuUWbPGaLeBg44+WhL2aEPlgHjea+CO800yjJH3WdhKC13+qEhxCE5Hc5SiWenTFsmcYYSMsV2sUMcYqqR1hVLwH5glxOKY9G9Zum5ZddoKlaaI7Spe/StkC1Xv5sZgICbmJC6Eh101dwWslc1hPrvMMXR1oklZCQ5nwilk2VbAoPZJvJ6IveB7S8Jy0CPAqEqWcwOnJvKXjIF08WfWxL09M5QH+IkRnDPleuW8RjHxdQHB35NBTmDrcx7Il4lQ/ikxHMHuXOayBv0DTHYOXQYf2iKhsgulHIIp12Ja4g1KWjSArIQ20YjtYVDMz8YmPpRg2dsShfEfyRC4TYJN2ILU9pUf3cC78TFtGPj8HtHfqbHbNdthPZdZcA+S6uALrWedgECW87J1AmEr9LkZCH63ERkk2SUi+CWi9Cai/ArE6FVC/59F+E1F+nbahaIyJ+6FEE56zZvFiUFKuveicIBJL5IhJHbqFGyaPWlo+A0KIkvipI0YtHXw/JCvoeWhMgGDV6fyt5xTflRSDVsOhIQFGo56xWgVcK2Edy1kbhNEdJQ9PtzNeRGBT36xoRHo1LNkqWjmt9E9voQQX2CqS8+mdqoY22MESPTzY6H/ppntGmQtyFOY6PB0RHqVMR9pkxnCot72UT6Bltr5QTkaDN/KMaS1SX+ol7ooYg7dhHojcU0RZxCo3q9TueBIaw2wXn+1BDRN7bIR36N5KCJyDMT4TXaM0w5SPQ2F9iGX7ZlpIY+5YXIJhqJDRya/s7A1A86vI4hRA8DJbzB1lsNkmevKldYcGcMH0ca6LuhsdymIm7DO7QQ3CCgNQRTUHaniy5F6pxur0UC44EgdGYL6lnBHrsxsrrEDJQTWIL4ZSdiZ5i7ocYv2IqyxQztjAVbpW4xg7BUciKCMz8coCdxRrRvoVbvoNrsC9fDeSCOo7A7qVe7aGV2JWjIVYg4KuYzsq3kXzTxB1PXYabjaLBkAYq1/DzbQWiPeIy4gp3SWAbx8mRzTxqIbtjwmTZm9ybCtM4Xtv4zaD5wItWBb+RidpVZ1VFBs6zm0fm/OWtFbww7QgZN5JUJNhYCiB+6SN+gKYqz5WqAjjYRnn6Ox4TXbQQ6Dvz7jhjBSRcwkKS15mgKJy5qI1SO6kIpUBooHu3LvZv+XMlDnF6gU4H/N75CoxurhprFYvXgmDP5r4Uog2YTh2Y+Wpj5jQW/owxHDJrZDbbeY+n/8xd1Qd/0ggQGNrx9nirVfvuGFgIdchQOMpc1VBaH4knNXrLFAyPmqWN9VBcGQlVHnxCMURx18Nl7C4dpGDJtBPs2An0VNASG7JSKdPZxdvuGKRYH+mlTt3XM7pCPcMQ7wv/GL0WLAofiqMDW5nvI3qYx7FPQXNBRL3fRSu+gfGwgnQc7CXIbsVdjqe+1tiZEW2RrLM4+YiuRNp5y04MNn+XKSAevhWKitMYrpjC5hZP05lrwWvTmjpG/pqOW3xL9KzSciHWWFg4Cc0n9y8qWQRwhvpz7zB7M8uqhhw6UWYt8DYOGLsXEPV3kE14XO04eSo4A0yfNbotkJ60Q9B3Lv3/DrsnG/NIQzTKdlEPR/0hx8N+XF3uIv7REc5SZpi2WYzUqze6U0KBIoo/3luPCZzkYyKDZQiPJoPnKEoO4z+IHqyE0disiwK2QUKPp2hQ/CAPE11Uttm/IB83S5EgXIpsbFnVUl0xkrqvZ5eiqicJR+mn6Uj7ol5ldN+G1bdlEQCO7550yck8bJvwDgjtDNCCarWU+6poJCn+cBEzfHCG0pdp+Lh7gkF+OoyoXNJS5jqSwL7NJ+ZsWUq/GoIWBai4lfZrO6XGlPYPjOORWeD1UzusNDfSLRLdcFTRUwp+4iD12EH5rwa+5agDtsi6rV6KrE6TYKdGdf2qEyI4a6+HDI5lYy20if0VDkJjGscXPS5ts+IUqKQwGAZ/3yXTT62whvMVu1UZkU4mQYgH9FDTxZR306UZXlf22SA/xRdL/LqIvicE4A88MqNaZsAulAa7eGghvxtkuCqncQEH8V1mgyGxieqI6LgJ/dnriAqRRS7Z42P//oKEHfHYdjfgGDnk/DjHz0xDe9xYCrOk0C21OlJf2kYXCWQ1cEUJ/C4fnPEOKeWRLbQHATI0hzu9ctVA9zhUeNuYeuQj1XSHYcsd7EjQkidjlBNdU3T383RAzvxlg5nsLM187mP7AFD9WJYdsLbsvaiA3TCReq1GLuWuU8034jTFmDyZys4VEvOSielaXwbVGYyhsL9tpdlT0u9L/ykUExeMD4UTYGZCRTj12ZI5qvmGIFZTjLexmkiskx2hdYIm2EJKpRReZawTzDsI7nCMfi62icKqHyJ4B/9gSYjR/SUctu4n8pRGCvYl4W6Y/4T52JqmHY3ChQoy0A0sPTfuPKN8wyzli2ErQcUfbJ0XVFVfwBsu3cCq3FMYg28tMQ7cjnZVk71m+6HIkgUedjo7JVqGPZqkvUgWbAHZghaWOBI3XUh4csuqxtYncL0KD/AVLqIjcZa5yMYXZr1c7WAisoRnewKHZX4YI/qUHz9ca/AcEwfTmjhGmN5cnlYzlZVPsiZzu82pkHgm6aFGwQX2Gg1Sp60MUTgyRu2CqGt23ENtxUDjxqTzdUrtmgjLN4MDzWw3en3rwfNeB/6sOvJ+P4NNVbU3cszBH5H5OR+qO8n0wqzBoIqumfCZrOP213G2TvcwFRgYqzaF4R2QKlEQlb8ZDC5XFkbj56a0hN0Q1mW1t8ikfgIHqoiFjLeHuBOFXHFP+VQdSyxFC+zxE7zF3jfrRELO7GvxbOjLX6MPREN6z4R/bUh4IhGu5bWSvGPAN3mF6bOHwmJ2ZheAbqtKuMMME6eSgko/HoFUitDVB+DXvkQWxUnDshXjnufI1cQiOTDg5FT7UHAnRB8ojzH06XBfD0k54QRFTgndhiFZlIIN++TOKm2Gw504PJdjoBac3nNQFMx19xSQaWZ7yV1xxXxIIc8acA45LYZanLRya/eM2wn/ZgP/bPgIDlih6T0loMXrp+uLNYZs5hscwMePoMnMzzYE2y8GUwyk8JduT9qeLnitAfAMD4W0CRaUgkzPgzBSDhu2y5+c+on8dIvHfBkj8vYfZPw7h+8YUtZbBQMIve1FDYlkXKoAnau66gciqDq/OeSs1HjJ3leXGBUtS6agqpazXAd1CUDPFZyNfut5H4fxALS164mCWhvSXamMUFWAOndHNL8H00BQ5g9+FfAlPOFldzoeRLghO3mPWeIfsPXIYujDnPteRKQpOPNQKu+L/8ZrvMPOVialvDPhcZnIbkee2lD1KC8wQskBp1UF0nSXPBRlr+o8p3nKpEbOTgHH6hw647IDSC7tFJT2QdyEWoy+GZCGvlZuwaPOoUeFvDNQA3BUT8dUxohvEcboo7awY/CGjLjaJTQasYoO5bIoeHs6x0zbBDpTd0/zcFg6V/vsOqv9zC8nfdxAa6oKg2fuzw4m+4QXS62FK2+vhtMJXtnA1UxY9OKoroD7DcYzcde6S4TKgMWatMSIHDnKn+rKZim722Av6YylHmPD+rovgH7fh+8Mu/L904fl5hKmvldOevAFBZ/7CCInHupitwi8p0umIrVkI2JyLYqvugJON3A2TuWugdFSN40bXLPjeG/CMhwhuG8hd1MSiUTzTEwAceT1GkNQ+ia5LutgZaOgmkKSoR6qAbjretOxNWjHHiO9MxJ/DiQV6pwPbtmhj5DzImHsF0NOwpKGS20LmtgbPxMbMD0P5bt4PGnx9NXXA7V5cY0LgTM6HI0SyYOguPSymGNAIgFlOGNihHQMexxAuiG06DxQtFDxIgW1XqIrApq0koD3iE6VrlU9yA1ZPbB+kJIQbW3OQPTcSeYhVwkv3I0eQB2xEbDWcKIz8BDTOcf6KTQknUluhVcxzfVrynzuI//MuAt/3EOgacgNopmY6JJdBL0fqtiEek5mv32H63Vg6HvpviGeCdM9JO6ojf54qNr0xllDv/PfZkwMZwaApK/qSTCvJOQP+P/SQ/N/2kfzXfST+sYfInw7g/3Yk8+Osu0y/ZGCTjwwEdRexNRPpWwZCmwZmXEPafQJ21nUSU6llE+XjQxTOa4huWQh+M4b/G1vwiHiBG10UzvTF7klrJrci0P3PWWrurKP9gR0IqfTsJza0eEWx0mRKyWukbmmIPjWkLWZXVbhmyaRi4hXLtAvS8omHI5SLW8jc1zDz3ha86P/zCKEf1Y48glliFlmc1J0ImcfskHwyRv6mK1u20o/J0iqgTyY6vG2BFk6vzhJE7oxlhPzKWKyuzPScglRE36f9NMsWKmc1NNpDAevsxmKrZOInavj/IRsPV5qSGd2QZ8o5L7oZqE9xhkt0qKs0Z5mYr3FX3xvUk+s4FP6FQbOPyA86QkTv3L9HGYG6Dhc13lFyup+6xkdbugEOhvMi/ds2vPvkWGg/VJwIUycFTtLisbcWCicHAqbFqMQTvmXDS3Lu9wOE/3SA6F/2kfzrPlJ/6CH6cYTZniEBQCDHh8lBvKDmILrBkmFgtmci+K2J0Hs19xR9xNRMPcdC4cRABc2mAy8nK3RmTlWC6Fbjzrj4awchakEjV5GStJGeMpAiySbdCbdHcGWa86mm085gIb5mIb1iIkYOazBB6oXaElE8OhIdx9tXQZN8rKNS3hWGeoY+5u85tdGH5/sePBadiI5YXik5BDoT+AmyVxn4DuYum0hdNRFf4UYuRwzjDBqZBnmv3ISUVYj30reVl2iGCwVsV0qMf5/NykRMdCQwiUe5N6hwTpcgJOahUZy+ouQ9Q+aniE858jI9VmZ9Vg+OxUjQXPu0N4cdZq2LpcgGWnPbOBT/RUP6Lz1EvhkgtEVXOw1FnNIjRW0jfp+dhA2/a2D6+yH87ywpXdzhQmKJP7Jm7DE5ChO5q7r4c4PWe8Q3Ob03kAUD/BIktwJ7JjxfDhD7ex/Jv+8j9PMBPN8OMP2FJqCMO/2o73DlRWVpiMxtA7PDsVgf4g/5RQ1Mf8m2W0dgyxKcRLBIpbl4aojsZQ2BLsvoWIRUSv/F8xqI/ounB5IxSLMzqIIj8h4WZMrhETsl4iYLuZskDAkGVes6x1P/diKeYhrSCTbTN3SZpSovjWSqwMsZrKEjs+iV6h4y9x147Ammvh7C9wcNsz8ZCFg0tTP4TVDT40wXt2hyOSVHTZjZOJ+UePpOjfRyyuClsuFOcRGSRrM3DydlBPJFijic/kKJt4F9zorzd07kdzJbc2ETJZz0I2Y4eqNcmUZI3zbECuPhACTHlsYuDk8ceAckFznd6UjrTasEd/E1SwyaLTTTO7RGkGHlAzNEMabng3WUg2jENXTQk7H0vxsg/HsNgTE/jIbusfh3ybxyVRnRekl8G9SLTIQYcC9s5E/2JZCkNq9z78sEnm80xP6xg8J/30P8nzsI/DKC5ztLVsxG1rl7TwN30dSaA2Su6XIdxBv8vZHRENGfegh/1BDuOojwv5Fep6v+zEgG4YMHJvzjMSL9MZIvXVlZW8/vyaoOjpnS/zv9wYTfVqb5/BlDrJrcnJW9aonrkFhGLJDnDWG7mUkTdzWZziSgJEabP851HkP5bxQ2yeYmn5oo13Yxd085Hac/1zD1vQ7/1wa4xYoPna174r4lM2Vk32mR4MYK6liZS1wyORFcw8PK/TwUMae/IvnHv8f9ebpMRXKzJ4VkaoAUVTkLRZWcWIkAO33dQP4UN6LyGSmjPmWXar0rZCv5GU5rciacrDeHJLkdlKNE2cvKLkpHY7M1xEKmg8UQu6cdHCJA83+jI+CaoEAntDa3NnVcWaEV45rUFybCH4eI0+neHSG0wQ0IakUsia70U3IWah8d15vRszq7zVNhonCsL+Yh6jicDff1LQR+HCDxj22EftrD1JcDTH8+gtc1wXkmYgtyK+UlDdUGg4Yr2sjIUuQzEHeHyP29g9jPffi7ptT18N47mRnKXtCQuaTL0gD6YjiolrpioFzeRz25ieKxvvAZProVvzbg+5zMsNq7w+6OHQvZZXpQBASSSr9oIcelThxbeWYixnu0PpbuiD6hSruD2DNT2U87KmgqtV3JkGKAn+g4/FHHzHtdRn6574+qMT+P4670H3OIjUsMyhdJ35tIsy3/ZNpii+wbWDJ35tvngeLuZDXSQg5J3AfchNq3xCIRWiNfpCYoqPDnRG74tEL3Dlfy2qhWuXbFFLlIcFCX4J6SEJlpZSmlVMFpWa7NZQfGvTtLoW2xzh4K8AR8pyNom0JJk2iSVV8dpltXzDzRVQPRnwwEvxrAv0t2cozwm3fSWpPaTryaIMdpwxMjuZnkeILaWBzxNPyQ2KNyzDFS3oDZ33ZQ+h97iP1uHzPvNHhGOnz7GsJvqLko3al81JANBtxcyfUg0W2KeyYCFkdo9uH97gC+kRIwOe8d2XWRuWogzb+/z2tXBBwXBrA0Ned2xBhOwo/UAle/eb82EH+jaj//nnAUl3WhDbI3xshfUpxI9raLxIv3khHYms/d01E62sV8fk+Chp2Xb0+5BGgiq9T3xEpKfEFNj/sDuXSaFD+3TDFomMlo+WTJEAsn1+Ke08FdPxzzobdYsv5bFz7NgveDg+A2sx8XXxvi/2WG8lA0/mCKH4cyRfiVJZxaZH0iUwucn0+uqPaduwvL5x1hzbnGhAwy5QvCEJrWAvuUhJQ3mdKBbD89MkKDM/K5juwbamRpjTC5M1aT9RSctmOmkaDpOghQc5HIteD7Tof3K27HIpbhls+JYABeONlV3gTuwqXhOcyssjuReaDiiYEMyZEwZGtOPBH65QDJ/7aH6A8j+CiaOVzTZcmWqvQjUv/shDizpIs0T9zECURRp8cDZP+xhew/HyDmmuDJYmmY7U+QpiLPIf8tblRg1nJQvGrKNnOq3PTTkLDk+MwMW/Kv2YZSitAlu3CYT2yntyaYu6mChuQfRU81HUCPsgWOgRBkcqkiN3vSQ0w2nSecbXKl0ZHpUvqA/BpBpgnvgIeSBnoGjZo4YIZJP1SDcSTRuBYkd1YTTYoSRpzzVNyjRwxmu5h9rSj+2hHaM2kcU+SqxzYR2jRFFqE0QodehBMcXNB9y1YuwWUaraiXKW8zpRRSKnQV0NXAMWHOTnHoP8OdP2dMWVEi2WZhBO7dWUgdyPaNQ76RAZ9hItThcByDhh0UV4jZ8DmcLeI4CzunAQJfO6I1MaXGniuvK9XX7EVL5n04uslWkEFEAxGn+koyA8VBPK7HcOA3TMT/2kX4dwfwDw34tk0ENunhMaUM8rRzAwXnbMpHuHWTtZ/tpSU3MW6PUPrHPvJ/6yJkDxGg7vPeRmDM8V4DydtqMXXkkYn8mQGq9Q6aiS00U9sonRkpOmCdI8g6ZmSl6n/qa3SvMWAzNyfIXh/L1lHupuHEIackaAqPvX6H5PN30o5SOeZ2CI7eUCHnQ6ChrFrryOJFmr38HYqZrjqUzwmyWZ64N9CU6QBaT8gVUYSsnVTBkLmnjFEsUTSM86BxXw9BeOGshcqSIeMp/Cy6DNnqMyB5zzlOy0Mv2qFMcdpIvCTg565mA2Vu+pzvifDK9p00CKc9pbN6rjgqShSyEeO4pkoUl3By9VpiT2a9DnkmuqxLp/jID2NaZND49k1MWyYC3N7QdWQ0IuRaiDzRkVoxhYJnVDOFFi44mK8OZK45vWwhznHep6a0epX2APxvXBdGU7rXGSH5lwOk/9JBUNelDkc4JP/QEAtA7qIuu2Po/+DYBbsxYiT5YrQs7hoIfhjB/x2XD/Tg5UKCr3UEvzSFgpcx4vWxTDCQFeWm82Z+X97VwM3isr3zjQ0Pwd97R2gBZgtuoqK5nKvMOIfORUNkQql/EWfQCC6DeSsOUtc0FNtd1AtdVBcHkr24cYJMLG0FtfK+lJrwKxfBHUu0stBgItdE7y2z2a/TBmkGEfW9o0NU53uotPqCp0T34r4cBg3pgR61Ng7XMQOroOHkBssLMye7Xrbh9BaTAKR4yqWXnPPmvuA8t2Sc1FDh3iBimtsc1xkLZ0R7KUsiF1+yTMvC6uO6Wt50jEsth7IUiuvwWJIPcQUXFzKy1ZWBfKa3V5YAuxkKWvsWgoaB8E/csG0hssyBNUMFDV+wxkv+9QAAIABJREFUsUIDFve3KG8w3XkUE2dpzLrLbNFD8okaPKNw5/3CQvBPXQQ5N/XNEH6T0oEtWx9SXGl/h+vUOUahtlaSkeY+GQGG9zgVaCDwTR/5v+6j8Kd9eNwhPvtCx+xHOugMySTcnsXtlMlXLgq3LNQJ5riO/vxIBLvwS5rG+UIQB4nXDAxux7SkxeZnc2ie/mRmSm7M4noRRXLaYqUoLnFJ0r6stOdmTeKkGIPmGQPCRK24h+JpDZHn9BLzs9ROGmpitLGyQ5MxFI6IXCemUtMA81zH3x7ICzi4Q1hlGuWu8+/aiN81JLi5SLpyykSOYJplZVN5hDhCnb1JJ54riwJkEZXoURNZ/MgVMFy5ooKGB5svSeGAP8VbiqnsHk0ZmCOe4R5AeckHtbtCBwvhbdSzuzhE9pfLgegfpdYkuOG1LSs3AhOu8jDgdUcIfsmFQJasHY29pEahgBxXhNF5xslIvliDD51bEjiHNHdHl+WCsVc6ZhwTUxMTs99rSPxtDzPfd2Q+3DtgR2YivO8iRn3nEcU2Lt+xZGiL2w54cjIPmM41zA51JP68i/Z/rKL2p2347BEC348Q+3mAyOZI6jqH/AlIxQEoBqK+pFfyNbRYkI8hI+wzLSRf8NRysTMH3y01ksqguWEjR3vGcU2CjpMVNCbRZslMwQ5PWRT4rgZXuCneO5ae+eKeTCNwkRGFQP+Ahm4GPo1cXANrS5mSERO+D4EC5CUyuKasfeNni0eY2yg2SPGPhYhM8H0H57iB3JJF3tyXSGWcLkhmCjYNvD6Koew4g52JbBQNr7Ocqustn3bA7B+/QwfjWLQs0gAc4iMTzf01xDNcGiDvVeCbYfgijl+DJrOLQ15iGk3D7CczFRlHonB6Y730ukxM2bbpsQ3BI2yLafwhoORkAE07HLVILlPiJxdAzy4H43RUOKh1pIvI2ghTX2g4/LmJ6I99lP99C+GvOwhuvkPkOW+mKWYj6j7USOil4XZz7oIjypcNEEyfBG/7NuK/6WPuTweIfN9D5GMHtX/dROYv+4hu6iLysWxSw8nR7tgagvtiuGq/cH4kNkgKqiTVfg0a7sclR1LghoXTNH5xRYeNMoOIr965rFz5zBSy5YJD+E/HUsJY/6V08V0P9N9yEXeRO/d0IR45LsvN4vwsvvCCQFoG3W4R/3BgjlsbVLnhbJEswr6q1o3w7xKchmjg6vChqkXVlRM0RtGkxY6K5UmtBGGWY2dGoZPbzeg3/nUKghaT4kVuVR+jujiS5QL8PvwM/nAei7Posr/wDA1wLGe6LKjifsRfg0Z1Tx9M+L7VEbBpi3CFqWQbze6DmMbH1aiGjcPvRgix7WOn8lqtxpCTw+VA500UTuoysE8LJvkZjkkwQqsLXUS2R5j+ZoTD3EL+wxD5f9vB3C97mNWHAnLpXKPbjqmRNgeePK5+ZQufoUjJEVvaRwly31rwaTq8X4wQ+90A5X9soPk/3yDz531E1zTZdEBQRwkjtUwv0EjtpykeIH9hKLiDxBfHSvymI4shOR1K/w7b0+x5HTSri17F78UVHfc5eqIM4GwWUnxn1A2FlyiSskRzhIZ/JkGT35d2lXKKd0QCzoaP3t1Pe4kZkCxTqQek6x1ZV1Y+PpL3OnEJFEd/yBXR98MGgKWeelrqIacgDeksicF4yLiKhXZbDhmyEVFBo1bO0uzOqZLIhtrTU76kgqFWUTwNqwTHlBk0vPbIp/afHI3Ag1ME+roY87lHcCG4IWtbDgUo2ZuGLP0L0x3/TI1icHUpt0wFCIK5u+YHG7OuhdkXHHWgK54PUgEoIePKXeRO9RBbtRDZc5F6SeeXifJSF7G9EbzfjTD1lQEPraV/3EP0z32Ef+5h9oONWdNEuGsjusUJRDVtyRTJcVJmLGY/6QxuGQjvmoh80FH+6waO/98vkP/7BmZ/vy0vOIu9HiJzw0D4rYkAvTlkaF/Y8gKueoVBM5ASzEmCQM8S/w4Be5H62GUHxVsTGRiTsQ05mcQQ6lU6NMazvJVODOW6as0ueOqq8x3BBNyERQGR3d58bheVk0P1uh6X621NBHZpR+ByA0ecjenbtF0wo3waV+a6+8uOmnC8oHxCnOigVYP+ZM7Lx5cNWR/C0VlSARz/Uath6AFiwHDhNue4VXYiK+5xWCKppRnio2a2qVW7gtG4tIglXDzTXDJFqeTRWGa6ZV/zaWJLlqeRrLltz6wKSXqIRBiRPzENNz3S80L3GkVJnzsGRzd9loXgdxT4OB3gIP1oIkET4WTBG8Wkllt9lFufJvdIafcV5smd6CG2r8H3GwaNjvBvdYR+2QNtpsEPOoJUbx0LUw6HvFTbypPILoFz1nyPApVZutgSt4cImxqyf9vBsf/1FIv/9grB7w4w/Z2J4G8sJJ9zibSO+DJfisElQdRQqNB20Ehvo3CuLyox/4xzzF6Nb9XjCrShrITNXTRQvKTLuC4Dh0YqamCNxSEadMHVBqi3ueZekwXRjeZItqwTQ3CLFTN0hhtF82zv+/ICNa6cC36twz8aCuOeejCRaU5R0/muJ1pALnNExZHykaf/l2s/WBb5cotlSwRIGsTiLyfgWHPpNANYvSNCFlAN2DobyFzX1Lsjlm3M7lvwTixMvacx35CXhrHs5q6OUav31XTDylgCl0BYuB3ZOMpsyeC1hQti6z2/pKHFPcozb1FPrOMQxT2OaTBiScoxaKi6Mq16v7Rl/z7nvf2M2FUOxZHPmUinFSX+WVPSfeamjiLf6HadD498BsExVW4GjQ7vb1iehkj8coDCPzbgdwy1GvXlp71uRPKPVbrmvE2JdfWEhuwdE7FNZUVM3tcQG46Q/P0OMr/fQ4iDYV9pSPy1g/BPXM7IN42MhFjL3p6geMZGfX6IxdAG2qE1eZDclccFkNRxyJ9wSwRHbek4ZNDQASiDYtxSISyt4jcKfOXfiaHYI4gz+P2Ec7mgyXJFuhejqxygM1AtbqN4gS+/GGPquyGif+4h+Nu+aF7Rp3yJhlqcTQ8SB/jJS3EYjVvc6ZArn+QKXDLEaqdNeHOC6P47Adwsf8XTiuSjYi2NDF/byAaCEshVS5jmwAGXZxuY4cDAp0wjr3E8Z8kqfXZvxDDEo+TmmCjC3AG4ojxRxQvEP5Z6D4QEzT4WPGvKWB78coDQ9x0EPteEpiYfwjHPmaEp+4KnaZgyVW2kmy+gqQ2cdJSxq6HPRFx+q7QiKpdf4YKLHM3P53UUjncR3dfg/Y6t8Qih3/ZQ+z82kPpxD4GuhtArsqzqARFUsgMrXuKDIk7iegyOiDAI6a2leZo6iY4pZwDPhwEqf93Csf/rFVK/30fqEcmrPubuGzIjlL7NN6r1sZDgUqN1lWneqD2+VIw5x5Xgwz9H+cPG3PJYzFecS+IGCb4nk+woa3/iiSm/P8q3t9GjvMf2lhrQUDoytvnsZObuGqiUdlC4qsvfm/pxiPCfe4j/PMSsyaVMDAQ1EBjl5sznDCI1S11pdMFNXtVjFvInFV/CDWBc30ajV+KhKYo1SzcXIrDFJynLHTNcBlC+rF7dGObipxG3hXHkiKWNZdBA8TrvqYYqs+41Qgy1kVRK4LbaqEqFO3nXlU5RguaMKe8fbWf2sOR5iyaH5aJ/6SH1L/uIfE/vK5coqhbcO6Bkzpab714cC3vr/1aXF1P5d7mnlgNs/NLqi1NNFqqfq9s5K3Oc5UVH4UgH0f0RfN9qmHpvwvdRR/XftnHkf71E+ndrCL7vItAdio2Tk4Wph9zCxPaQPhdNai7JKRqsCdpo7GInMvvVARp/f4Nz/88zHP8/XyP5cxfpxyQGhwhvGPB9MBBwOaxvCBNM51nuMl86oTSiGZvLtmk4oozAvcPU0N4h9piA00X2zlhehpG6ZYrZm20tZ7YTL+mt4Yy1hcrCAOUmN2FZ4kXiqSf1UCnR7qnD75iY+VmTF57xxPv2KVJypYoaX+GhSz5zkF5R79LilAIN+oVzfDmHicppQzAPS19wx0DkOeUMtYmdQ/2JFxb8uivTElwQRTsHXX3k2fyGi5kvuUSbYNlC8r4uQJpltzi/LwNxief/b09n2lblmW95P0jCsOcZNvMgo1OMRhMThzjPooDIuGGz52feI2wGAQEBAXE2qIlW1JiqSmWoOn2qTp8X3X1d3V9l9Vn3Y/eLvDKIbJ7nvv/DWr9V+KizMb3oDmp7WFfS5XHiIyicI4vPFHRWhbGnpA9tNMs5FjW4ZmXYtDScIwXxIPDOF1JONQ1HiKqwAhyzCnwbChyaLrxLZMYIxuzHrqZaZB/m4YpOwHVLR8U5FfVfqUL57mUs0KyOsoIO6oA99/4rXOvNMPa8GULNowRcKynYb8uw5XW4xqmyTwuAEbsnisDYctPmUXlOhluXENwaw+evu3Hur5ex6+kAHEtx2Dj/uaGg5htFnAKuZbb3Kpw6TWUZoR+u+ZZES9NTzSu3bOKjR5sP6Lc51JIvR1AQgYbnebebCTPEwPGqJRuPSHkhZCc+vjmJhva4gBzRfkKNMa+JJj40pyi9MGBZk2FblFCuy7BS6H6jIMK/hJrgOr3s3GVlUXWlgCoy8UjzZL7mPpPHXHnO1AfZ0mkRlBq4zBdKE7GBnDcJjS9lIKM86U2nqWAKS4Z4wcumSDgzwK/jiKSiuyiGloI+1psX4nwfHa7i3/9xLMDJsEjPY21FxK+M9uAoOj/pQYt/iBNhFfaoKmynnCAK6N9wDhZK/wppWMOUAKbhWdfgmZHhHjTH+rSIkPXG4o9okLoDEirOUQpZQHkuC5ecRSUFzocS8I4asE6lUZZT4VmT4FyPwb4QQeCODN+MJroh95QOZ5Y8XU6Yc6KNJ1ZMeIKik6Yn55KCYDGBQ2/6cfZDD3Y9GYatkMSnUwosC8xe1EQhKtyCUR3eURNXyweaYqnqk5qQA7AjFHrnGXONIE4aouLPc2xAjW5eWFVYkNeyjf1GFQp+otFYGHNVwLkHl5Y1RxQBcKb01Z4w/VmNzeOooUQ2nYPlroz6p0nUbCTgyZLpxxOT096skEUQUUfnKP1bjFoWtdNhgohUUYhWnKfgPQu7xtOG+zVzwEcWIl9ci5YVDhGOIkh4oGnfTw1OimsgTehkhFv2ipl34O8qCHcmjXo0C9L9QE01FQ00QvJUEpNrIko4p2KcIdN6g2MiOrqVhbAjbcAl63BqBhzjZlIZN6sMoCqnJ4nfOCvDvqyKdFfqf7kAY7dFli2zBLzDjElm5a4JiyrFTfZ8Dr6xLKq/Tor8aYGeTWuo3YyhbXsE7knqYQpwjdBhwGvCEMZ3QYg6ZyJI67hBvsLUXMKWC6Kt9MgKfCspVKyk4M4osBkavHfjYtJMRR1dhJxtiCk1Ic6UEuxXRIQNrcO835nOVjqlofROGt4QF4ayEI1zqMn8JI7UCQtircEjn0c67St86PzXqYsxpQhcHdAuws7DRmtswvRMCRHWWQUWbRKld2Q0vhpDy5sx+OYl02XJdBZ+3UgaHjoArupCN8QajlxiYs/qGN/zJYEDabjDk6LgdVExyKzMr3QhA2F+pT3NTlUXyX+1p3NCpkpFnyVNHjLF6CRxMAXYJGZxVcAOk3GNFNhzfCKSfA2zPefPwBIlSADA16yr+NAoQlqyh91TcBQ7KleTqN2IInA3CUdKExphOvYYX2O5o6N8SjOF3Jk07JzBEJo8SNARt89puKQ03NkMKnqJkdfEhyj+bIgreRIKUuJJJk+G1pPa1TiO/9yLjgdDcFHaENGEjsZ/zRBqtgB5/iQ4MaLvkDmso8+Z2g/RGoYogjbMKL7JOOruj6HjxxAqNmJiwEbnImszd5Srf2pTKKoiRswQMgGBXlPSKJvRULpEOUYa1cdVVN4owBmdEMGuoqugZvesSSOlip9yCya0ULJpW8jAPss5EB2OpnGe22yOJ/zdOprao0Jhx2ynTxdUcbL61rmV14Xhv5KYkGtcERhgYhv/fj8biR6TfsEBHRelTMdl8c9il2oEOjk4DOTbz408w0fsRR32SRVuBsOfz6H+lDm24DS/9DZPGmq+82JoyyEp6en0pJsSGLMLdoRyArhNcBXhlFRZcnTAh5MPMCUgHO7tdYRABeSOth/GsPfdEGofxOCWSG+i9jQvqm9r3vwFMazLzrWCpMOZoQCdmpm0QGy4FB3OJR2uggZ3SIPvBgMhNPFD0QtMDKtvwExBK2dS3GwK3/x0A1f+fhWfvbiFmtUIfFMS3LoCT9Js4eku5EPDpR9FWc5hhnEa4urwpRQEF8fR+rAfh9/cwJE/X8fe97dQuRUVRRyFWq6cCv+KBN9yEq48/VekSlEfawjFvjD6zasoW9bgGTVQRfHWFTOHmw+6n13FlY9OhxtpMcJnBKOD5no1A1cmA0+SNNKMuJJ5VZNrI6J0enU0dcSEGI0QzDIm484pKEmrILWLYwWGm1HsxiuFLyGbCtJBKSOlwJ0wg1ZGHH2hoeISpStZWOcysBsm3ZwPEweqFJBZpw3YFw24JRNjX0cL0c08bDQ0znGFYZrhaITjKeuO86rPm1pwsnIIVArTCVoAcy+EIaCXA0iGseniiuRwj4Gy+6ncI9SoZiuCurUwfJOKKELFQzOYh1XjfanBFqLeJQOHnhT1iGdVFce7k21gPzEgGhyTKhyzGTjyxLAbCFzSxMyDAesN+5Lw3dJgYRyQlIZ1SkXt4wFc+PUKLv12BfveDqL2RQSBRwl412R4sixoNWErFTUNB3XcN90gDVRBw+0Yzny4jNi/H8bIP09i7/YtBFaj8N5T4ArTC6TCOZmC72ECgUdJeOd0kTnAIrHyoiZ0QgwMta9IcKwl4QmZAVsUWVFEzxqKuyTKBcROjcw/fuAUgXVn4Gdu9zWCoXXUcr5zkMFm5vVULnPpS7xKVJj3qHOxcJm6noTzdhwuyUyi5ZyGJyJXHYRE+2m/Pc0C28yi5BsuNswHVVRc5G4wh/KZDOyKiSjhQ8OinOOOsryOsgn6yblWMLmG1G0TzsA5DSnmxKRRTCdMkAx0vWqaBViTUunHvM7yqSxKZ3ShFacvnHofjj0YVktHQ2dwHHs4EWbLbS3KsEuaudgaMcU4oq3NGbDlVHEF+UI6AusR1L2MwbMgCS6dc3ACzkETT+GlK2GMDxZdCxnhBmCdwl9A3cEEfP0arNk0bLIG36IE68Y4qu6PoO3hMOpWI6i8k4BvXoWrqMItk1ZlwgspWeD14tTz4rTw9ipoWhzHhb9cxsDvx/Hlq+twFOlk0OBeS8E9zj2QAbuiwzKhwKYpIpszeFZD7SF2YhocCcojVfgexFD9JIaKaArVx2Uhjudwk0Y9OhuoYBPsP26lSYSie/RrDXR0VpzPChBA3UFFNACURjBShx0n3Z0NfGjOZGCXCrAsSGJB2/p6CMH5lHhIuOmmoIriNnZdwpbCFLlDjHBmbKOJdKOSj6cu92RlrDuHSUbNirefxT2vbBvnaJoqMPe8TunkcA/rsFJmqqiC2sqvp1SU3R0ftKpvJME99HJtxIcmoaNsXodlVYeVn+WQZgKpvzLb/rY9KhhhuKukHy0VI9hhn06ZYiiZ/hreZyYWlg5FaoedSQMeXUPtdgw1GzG4kjIIH6Sw3MVp8LD5AVSeUsVbbmctxFNnOgdvNI3qbxLwDmoitMOmKNi5GcXO7WHYb8dgKSRhkxU4w6ow9ntu6vDd4AdlZg7VHabDkg9BTnjLPX06vBMpNGyNoHFzEO7bMTjTSQTvhlG1NQZXVIX3WhquOJWIGtxiriGjYW8KTW1xVJ3W4JAysN6RUfXdGHa+DKNKkYRzk3c95xS07/gpXqKGh1t7DvxIIj1lFsKV1BKFDQRGeaWxQKa43XQKsJPhydHA6+lcRhgOS6cVVD0eQ/v2MILzSXi57KXbtJs5W1y+psFkGN9wHkGGz3OOQg7gQc6XeD0Zwv1opVuE6wAWsnQtHNfhCRlw35HhnjWvWY4F2EG52K1SAz2twkLcLxeXpH2oaXjDOQSPK8KXJSzBvOKSjKJUUbakwjrJsYSJVGmkgo8Wln0qOqsi2GMZRGv1KHYc+f4Gjr/sxq77YfhUYrUyQutqKepwrOtCF1x+W4FnXYJX1gR/7/9rS0P0L1Njw+1wGrVHZPhuKbDrOuwTabgSaVSdSMIzrAmJhVXT0PEghOu/XsKep/1wLsbgLkhwpVKmFqZXBwvi4FlzYUdiBQdNtMzwiuAp4s7JcC4lYL0TR2AljC+f9+D6X8/hwOteuOgfp3Miq8A3w3+vjIpbivBdMfyC2HybnobjXgrVr0Ko/24UAZkCKxbyTEH56J3mOoVSya6MKPi5anEkKUIz4CuoqN6SEFxNwR/PwH+ZVxeXnwQEmXUKRVqcvxBkRKCRZVKFNyPBneTylWQx86FxjtPuzGTaj7E9ZALd5Mmmo/mQjKYvNUGXED7xZR2OHNV2FN7rIKzaO6bCdVeCdzMlXmyekhwQckBnLeqwMGd0Vhc6JkYulUxqcKQLpmz2alqsDqgPtik6yu8o+HRBQWmWJxjTkcmoMWGbTKTrrI1hn2sU7Q3j2JH4jyPQ/vMQvv3xGipyCVGcsa8vL+goX1RhKfIXrgnXgD2sihaZSjEKkamOc/GbZHj38vjmkZ4W1bcgIHA6/I0kJrTlzMU00gguR3Hll5Po+8e3uPyXs7j69hpOvuzCgQc30bI8hqCREtlFFCXxoam4noZdYqqIhkCPgl1rIRx9dw3H3l5Ezy+nEfvnMcT/dQwnPlyFT0/APaQguBTB7jfD2PsihAY+XES5n06Lu9yRNeC+n0TFixACj8NwxXnSED2bhvuGKjw/rgFzY80tPotwptKWTXOBmxVDTu9WHP47MQRuyag6rsLXz9qBvBeuEtKoO5BAkAw/eQJWIufyFL9z15Yxaedn2WWZeyM+MJSJUk7ClUnlKXZG3PlogtbAtD3x2d2VYRXdlyHAjexuPOO6iBmwLSbgTOjwMQboEjFuaSGrLcsx+U9H6bSZf1EybcDJ+Rm/z6W0CPugTdqWJulcheWeDkuRJDSuUzJmwDytLJ8T10I3whhamiLYceXXczjx/jwa7w/ApSmimqdGg8IheoPKpTSIh+VT6poJo3I+ATsnxVSMRXQE5pNoehJGdSYB/4AuxvK84zl7oMic4GTXsGZSl4yMaOFrt/px8v01DP37EST/+5eI/vNrXP39HA68ZTcVhW9URZAIryMaKvtVeOZluNMq/OMSjn/Xg8R/fAX5Pw4g/s+jOP3+Ag6+6sJnb/vgzcZho0t0SULrD4PofD0orlRflL8QA/5rOpx5MxDE8zyMwNMYvLKEigsqfEOcObErNIteb39BaExY7FNvK8COwxx+aaIG9IRZjKpCx8wWVbAIpyh1zaD2sBmyYY9OwppX4bonwXdHgjudhod5EBfYMWXhMAw4cqR7aWJGFTyjoua4CsYDNB2mrsgU29OfVTKTgjVOuoWpbORL4I1r8K5F4ZpKCvsxESqBKwY8PP1nVdizKZTnNJQtMAGZgAXagQxUfSOLrpT0UoIMLFkVZVyorqmwTROwxAfLzMVg1ij12swm3V1JKUgMO/a8uQnvZgi22aSgBngHiBqhgV6DfzUFuyLDo8k48LQXQ38+hnM/d8E/nxSmf1tMh3cujvZXITQ/iyLIgdu0IjDr/CCITyPW3jNCsxjfRvO6K5uW4bsjo+3BEA4868GB7W60P+tD1f0wXLMSvGO8orjDMhAIyfCvJ+BfUIS7suP+IE68u4Sjby5h/5ObqJgfhWMpgurn43AVUrAQSjCTg5c5VJMSAoqGwHUN1cc4szHgKGqwbSXgfBJFzasoaopJ+Hs1+As6qu4psBuqgDWSFMGikfUBcyfdtwz4rqvi+mOcIDU71ScU1H2VgmdIF6l8dDq6ZEbmyMLwRsCARVbh3aAFOQnXbWp9TLg0xxDuGQXedRmeBQWBGQ0VuoaA2FibJj221YQo+u6m4OccalKBb9hE75KgVZHS0PxsBG2PwgimeeKZYWFeVUfTwxhaH4VQsR6FYzOBkrsplNKvn9fENU8yKMln3JdZChpKlxWUzMhC+8NbhJg1seU/yihG3eTTVJNpmMSO9te3YF2PoWxBFfeye5gG8jRq7o7j4Js+BJdH0LE+gPl/7cPP/8ePyO9foGopJCag1kgeDlVHYC6OyrUIqp+NYOfLQex7OogDjwfQPD+O4I0k3KMshHWU6woq7iUQWIqLoswlZeDRdNizGhxZGTZdEcUh5x6UedYcV+AbVeBYkkVn5YypcE/JcC8l4ZxWYM/wQdREh+J+SJqXjjL6uGi51YmYNReSFdy+f800XAP2aQWWzShsDyLwfxdGxUwSzmENrtsSKp5EYKHTgYh/okiGuNVPw86JOL/3MIvWDOx6Gi7NgJdE917uhMzMT9sdHR6d1loGp2VEnDP91S5O3Sdl2BRDNBo0zPkGufNLwrUZg5MrBroz7seFsY4Mn+pjdJpSS5RG08Mx7Pt5AHVPo/AlVTOV5ayBQEpC2/MhHPqpFzs3w0KCQqGXS5PQ8GQQhz50Yc+7HgSehVB2V0H5Gus5DU6JFuwCKLmgwMs2qcJ6T0bp7SRKM6qYEJsPDQEApq5GMPeCUexsS2JH7+9f49yHUzj4qhvB6Qhc9CHFDOxcG0bfHydw4v0Z9P/8FT787yBW/udn+PLVVdhnJJEKT3+1m3BAUrZJmCho2Pk0gpN/vYzB/3YUp7+/joZQBK4QZQIZ2FUNLQ9DOPS6F1XLIZRxZzTBRaUmkLSluawgfno5JzjNh0ZFIKzCuaDCpupC1ujKpkWdxTRb76yM9gfD+Ox1F6q/G0bpDOUcaThX+QvR4FJ1uJPcrWgIXtYEz89aVFG2JqN8XYZ1Q4LD0OAYZFS0Bse0GS3Nq4iCbk6B/TMK2raH0XZ/BPWLETStD6Njuxet2zdRfT8GT94QviMCBdx3dXjbgRqIAAAQq0lEQVQzGqqOpQSMm/xjh5wXuH3XsA7/QAHBriIqLhKMmBNyFNIkyvgCzKiwT2pCWiva9o/AaV+fjvrNEXT+eAvBrTDccRNeyVgjb0JH9WYMO58PoXolAm9EBoVxNjkD95KE5ochtH8/IoT8pYsKSpZ1WJYV2FI6WLdRBsqXwFbUYH8gwb4uo3xKh2PMxPlSBfj/glHaWhMCc8/Ynx3r/6MFm/+rHol/fIXO5WHRtjLvqHY1gu4/TqLr7yfQ8/u3UP5+BN++vArvbEq4BkVHQfMbsR3CAppBkAzavIRdj/px8scL+HL7JmrDUfADcxAEJGXQvD6Oc79exck/X8GB13344lUPDr24gUMvuvHFdjc6NwYRjCcEaZxb5rp4Eg2bY6JIp8SieW0Mnc/68NmzHpx7ewmjfz+KgX87iT1v+mCZk1F+J4XGV6PY9aYfbdv9qH0URmCJnY4C95Au2IIlKwrK70mwc3kqKXDe0mGjHjqfQhkdoMIbTnawgablCC79fhGX/ziPg+96ceDtTZz6y3Uc+akHzc9G4Z3m1+goZYF9V4U3ryJ4QhJE9nIpD/usAg9PMyMJV0oHnRzU5BJk5J7R4LjDK4FtsQ5rRBEkDGGFYcjIUQ2eWxq8S0m4l5PghN45Ynqr6FvyELtyLyEoZg6d6wxTUkrLke2OAutsAp57UTg2JHw6r+LTOQ2lGQ3uvgICPRPwjRjCI89EuvJ7MixrCspnuNoxlQECAE5d8WETn7a7IoK25jh2DPx2FNf+cgQHX19C5XwUjjjXBTk4F1NofN6Hxkf9CG6MwbsQhk1LojxlCMsJN7o2NQ/rJB2AbD0nEDxDzQl91Qq8UgzujAp/L9t48ue4Rc3BMSmhYXMIX/2pC6d/uYjLv55Hzx+nMfJvx8V/5z9cRtNUVGQaUB/clhjH0df9+OzZMIILEXz1pg+9fz+JW/84jq7fz+LrHy5gz5Mu1L8YRfkdCdblJBpfDGLvux7s+rEHTS9H4F+LwyNL4kO15tPi/ravR9G8PYq6uRjcCRUNq0l8tj2MwHxCvAjc9jLD2z8TEfVWx+MB1C2Po3o6gvrZMKqmI/AlYqJbIxathOBoeq8KJICqwt/On9e7EMfeN5SnDqNhMw5vWBYQJt+IjrqVOFpfjqHxURTtj8fRztNsOYZARBK1oNgvUWayIsOzmoKDycTjnBlRJpJFQFHRuB1C3UPWOxqc9Nnf0hHIK9j53Tjqn4zA/yAMq4hYUlHClGN2UBFalhgMS4yJDlsxLfaMn0xqKMmZxFYa58RLS23UVzpa25MitodouB0NW2G45hWUz6dRXsiLBBICGB13FTiZ6ZQnwr0Iq5yHg7/0HDeojM4pwJlTUbsxjvqNEfiSKXj6TcGSv3cCPkpCRyYQvMh0OHPAVKazlZ8UwKRKVUZNMY7a2Rh2LoyJU65jbQgNq2H4MjK81w1UnFVRnYij49UgWr8fgXsljrrNUex52Iddq/1oKEbglmU40im4NyWUUId8V0P5vZTYcfm4+tAVOOIKvDeZq5CBhZmdKyk4tsaw880IGmmFySloeTaMo7+dR+2jIRNZH6Zoe0LUSZwgl6oa7BG2/iZRyhMqoOJyHtWc7g5mYDHyYmtunWTnocDXr6BcysFaUNG0FcXOFwPwPRiHI0FrcAb+UAZ1K+PY82MPDny4jjN/u4wrf7uEr9/1oS4bE7Oa2hMy/AMyGp+MoeNDP+pejMJDPdFFDcGLMoJKBJ3f9+GLn3vQ8mjMnLMNGQhMRrH7zU0c+etV7H3XjcAmazUddqoIH6XgnEvCEZbgZ80WS8M5LyHwMA7XSgS2GUVAnyhFpWpQmPmOZtDamUSHZxgtVSHsCNxJmDlOjFnOGKLFLjNUVGwkUP8oClc+AZemomJxHLufdOPwm6uovj+CkgkNrikVB7f7cO6Xi/ji2XV0rg2hZj4MRyYFu5aCQ+ceSYa/TxfKf7L2/Ksy3GoKHnYsvSadkpYT/600vMPmsIvkp8qrNMYbqKSKfzkB31wKDoP+IdMTTog1HwL6pqwpHbZVBZ8yHGSNC0JV8PMYO8SIHGpGiPjgxNWVzZj3+oYEz4MEPHdYUGvwLsbQuDkG77Iq4NpkwliSOTFZtU3QnkyZKCmnZjFMBg7x9hy2cedlyxtwbSThmNXgvySLCXd5egJluTzspFtIKhwqp+0FuPlvjnHGwv3YOGoehtG6FcLerUG0b4yhKkkYdg51xw14B9Oo2Yqi9fsBVD8Iw6lSHmsGpLrVDCofpNDwPISa9Rg8qiZmQa4JFdVrSbTfD6NlewyuBwmBO7Es66JusU5LsIaJlpkAecwclga3xxB8Og73qgwHd2jC5muIFQpPnJZdKXS4+k3mXufjYTTfG8LOrREEFuJCvmBNG2h7EMKxD93Y/agXex/cwoU/n4f0r4OI/+cX+PzNDZTNS7DMadjzog9Xfj+Fq799i6u/ncKpD5fwxatuHHx5A7sejiAYTojuhPkCljkJ+18PYNfWILyZFJyKBrdkwJ004I6T18twDt6zVNozhDyLqpgM720JDkWDI66LjsmqJ2CXUvCqMoKFuOjwnA/HUbIiwXY/Ds96BP5iFH4lAb+impPiUV2Mx2nZKV9WUXZPQfmiBsHSlQ2UZXThJi3LT8Cim+EaJFlUb0TQ/HAI1XNRVM8kUT8fw867YTSvhVC/OIaKKQ7dsnDMpdD5Qz8aV0fh65LFasC+kETFvTg8igLHMOnuefCEYpKMLaHBOq/AelsTuhdbhKo5He4wzYGEWJPyoIGQJ8+SCmcxCYdBwRxnMVmRscBdn2tZgi0nwcEuL2aIrCfHjAYnTwxJFSMQy6qKT+aUj7JTHTaGwY0UBGeIICb7og7n/SRc6wrsKxpsxLzd5OSaTk+CIbPCs95p70e7bwA7un49i54/juHGH6ex6+ktWAuyuJJaH4/gyj8u4sKvZ3Dtt1MI/+sYQr99hQs/XxC7IxacJXOGGKR1rIRx4N4gjnzXjRM/XcXZv11C1x/ncfL9DTSoYbhDOkpzvDfj+ObDdVz47SL2/6kLu7+/jr0vu7F7uwe7nvdi17ObaHs4hOAkdzRMgEmjTomj6f4YfHMx2Ipx1GyMo/XJIPY8vYkD39/A0fdXcfjnLlR+N4pSOi4fjaPtT7ew7103dr3uRvM2JaVRBGZlOBJMmzFQsqTCsp6EZ4OtuwQLW34WrHNxOOdUAViySZQiGGh7GsKxv17Bl++v4Yu33Tj+oQsXf7mMM79cweEP19H63aBonZ3LMRz+qRe7Hw+JVQp3XL4Ho/jyXR8+37qJxsURVC5H4FapH8rCk9JRsZoQ9ZZ9SoLLkOBJcsZFjQ0txQaCJ7lTUuC9q8FSTMCel8VJ4+dCtTuDQE5B3dYoXLMR2LIqyHnmqetfTKJ6YxyuiXFYiimUzWv4ZFpC2QLHEqooQTjN5xKT8g3nXR22lSTKbqdgWZJhn1LhHv0I4CYgm/FH+xXsco2gvTKEHRd/uoSun87g8s/n0Pm8H7a5BD6ZUxF4GMX+N7049EMXjrzsxqHHN9FYHECgGIdlURbWjJIFHeUZSiSohpdR051ErRJHy2wE+5bH0LkSQ3WYC0tD4OxLlhNoeTqIo9s9OPF9j1hdnHl3GaffX8Wpd9dw8u11HHlzCw0rEbg5Jb2ho1ZPovNFGA1Px+HbGMeeHwZw+v0VXHh7FSd/7MbRH/rw+XYI/vsJlMxK8KzFse/VAE697cWp1904vN2PtkdjqLqdgiuhopweq3kd1rUkal/EEHwUhX0xheCj/2KvvOlHzdOIgARRe1uW1VG9nsDBFyM49F0/9j8dwKEnt/DN05s4tDWAPUshNM6NwT6ZhHU5hfaXITSxRhpW4JlIwf98GIff9eDk+y58+fYmdr8OwTedhH3MgFPREdyMoXZ7HBWPw6h8FkL1kzAqHybgKSgmZu10Fv4xFcGtJKqeDKPm+Rj8S5IQyxMRUjGhoeMFF6/DqH4UhvN2SiBU/KsJtHwfQsPzYfjvR2BdkFEyocK2lIKLg00+GLIqpsN2TYPvXgIVj8fhuhcRf+5eUYSMQ1DQaYi8mhOuz47AOFpqxrDDO5OE14jBtxAVd3L5ckoc8yRSWrkY/Lho84R0uK8awiP16ayOT+8qKFtRYc1zqSahvjOGhvYEao7qIujcf4VQRBX+ixK8fTrKZnR8siqj7LYCVyyF4IiMqkgSNckY6lIx1KeiqJGjqMom4c4TssTlXxYeRYP/blJMoZ1TSfiWkqidiaJRiaMqloQvkoQ7KYsTkkInnhrOnIKglERNKIbq4RSCA7JQFrLlLs/r+PS2LCw1gU1JiLVssyp8qxJqHoXh30qhbI5OBeY06SjJM7dJgm9Uhm9QF/VZxU1NABmZFcUpM/nAzMzybkXhmVfgHJJRuyyh4mkKvvm46Aabb4+jZj0OXh2cWgu405wM73IKvrsyKtdSqFlOoHopAR93eZSdnqfyIAfXXQ3V9+OofRSHd4VXnyagDeQfBtdjqL8fRdVGXNA0SvNst1mTxlG9HoN/VUI5l5bpDByzOnyrMjxzilhS0uttMdKwL0pCz1TxQBI/v5NpyDolEib4iN53uj1bGH9UP4YdFAYx28CZUeG4lxSdh2U9BcfDFCyLmtBjcGvKzqjyogpnXBWUz7J1CdZ1TewqKHEkiaC1mdw9OgRzQnci4EandaHZKJvTUHZPFtYS/v/1h5h9kBF2DZrCqLDnqJ+iZluElMoJOMMFQR63UIbI9DQSriT6qjMCdkjvD41tnh66P8lqoTqNgncTaFh3SBVCooZDjGcm385A+bSOT2cpYc0IzIkjRXFYFtZsDsLWMm0Ix2bJvIaSaR2lRhaOgTQoQ6VutkoAqZkTlUPNMQax6mID7qDz4UEczlkVrmEJzZvjaPpuXGiYXTd1uPtVsfkvm8mhVMnBpGpSlkCdC6ez9JEZQjrB9YPvugH/ZU61J2BVGTuQFbUf9UqOGOnnNMKlwc+GUhDqnrmmEQElc/SO085LqShlGx8T86inGckIeBT3aSL1LpsXycA2Si+4U8zRJ68JrjBNlNxDcTpOCzBXCI3tEexon8qhOTWBtvksOp7paHqURuNWBm1P09i5mUXjZAHN+jRaUjNoCxXRlCuifr2A+ocZND7IoWl5Am3JCey7lMGBbw18fi6PvVcm0dkzgY7QFDoGJrEzNoH65QnUbeVQu5RHSzSPfRfz+PxsDvvPF7D/7AQOnMlj36U8OoaKaNaKaMpOo9GYQdPMFJrmi2hSi2hOFtGSmUF7dBK7ugvY3VNE5/AUOkZn0B6bQvvYFDqGJtExUMCe6wV8diGP/ZcmsO9CAbuv5NGaKKBxuYi6hSnUZqbRqBXRrEyi3iiiYXIaVRN5VM8XUHtvEjVredQtTaJxaho7k0XsHpjC3p5J7O0qYG/3FHb1T6Ozb0J8Js35abRvFdC2baB1NYedSgYHH2o4/L2M5mIOLeMTaIln0bJcQMNaHjXFCdRNTKMhP41GtSj+/vbQBHZ35dF+cxJtsVl0jPDnmERbfBptqSm0DubRHC2gqTCFpnQRDfokGmam0Dgxg+bYJJoSRTTkplC/UEDjagFN05NoHee/bwJt0Sm0jxfRMTKFXb1T2N09ibbkJOon82iY5mc9gyb+HWNFNCpTaJiaRsPUDBqNInYqU2iRZtA5OoPPz2Xx2Rkd/xc0KEo1VD9Q0gAAAABJRU5ErkJggg==;fontFamily=Arial;" parent="1" vertex="1">
          <mxGeometry x="921.8999999999999" y="1068" width="91.8" height="51.44" as="geometry" />
        </mxCell>
        <mxCell id="BStY4UZLv6UZcWrJa_nu-58" value="&lt;font style=&quot;font-size: 18px;&quot;&gt;Sentence Level &lt;br&gt;Features&lt;/font&gt;" style="text;html=1;align=center;verticalAlign=middle;resizable=0;points=[];autosize=1;strokeColor=none;fillColor=none;fontFamily=Arial;" parent="1" vertex="1">
          <mxGeometry x="1839.1" y="1308.44" width="150" height="60" as="geometry" />
        </mxCell>
        <mxCell id="BStY4UZLv6UZcWrJa_nu-59" value="" style="edgeStyle=none;orthogonalLoop=1;jettySize=auto;html=1;rounded=0;entryX=0.5;entryY=1;entryDx=0;entryDy=0;fontFamily=Arial;" parent="1" target="BStY4UZLv6UZcWrJa_nu-25" edge="1">
          <mxGeometry width="100" relative="1" as="geometry">
            <mxPoint x="1291" y="1490.47" as="sourcePoint" />
            <mxPoint x="1337" y="1617.91" as="targetPoint" />
            <Array as="points" />
          </mxGeometry>
        </mxCell>
        <mxCell id="BStY4UZLv6UZcWrJa_nu-60" style="edgeStyle=orthogonalEdgeStyle;rounded=0;orthogonalLoop=1;jettySize=auto;html=1;exitX=0.5;exitY=0;exitDx=0;exitDy=0;entryX=0.5;entryY=1;entryDx=0;entryDy=0;" parent="1" source="BStY4UZLv6UZcWrJa_nu-61" target="BStY4UZLv6UZcWrJa_nu-10" edge="1">
          <mxGeometry relative="1" as="geometry" />
        </mxCell>
        <mxCell id="BStY4UZLv6UZcWrJa_nu-61" value="" style="whiteSpace=wrap;html=1;fillColor=#f5f5f5;fontColor=#333333;strokeColor=#666666;fontFamily=Arial;" parent="1" vertex="1">
          <mxGeometry x="1478.1" y="1216.44" width="251" height="30" as="geometry" />
        </mxCell>
        <mxCell id="BStY4UZLv6UZcWrJa_nu-62" value="&lt;font style=&quot;font-size: 25px;&quot; face=&quot;Arial&quot;&gt;(a) Model Architecture&lt;/font&gt;" style="text;html=1;align=center;verticalAlign=middle;resizable=0;points=[];autosize=1;strokeColor=none;fillColor=none;" parent="1" vertex="1">
          <mxGeometry x="749.35" y="1589.44" width="270" height="40" as="geometry" />
        </mxCell>
        <mxCell id="BStY4UZLv6UZcWrJa_nu-63" value="&lt;font style=&quot;font-size: 25px;&quot; face=&quot;Arial&quot;&gt;(c) Context Encoder&lt;/font&gt;" style="text;html=1;align=center;verticalAlign=middle;resizable=0;points=[];autosize=1;strokeColor=none;fillColor=none;" parent="1" vertex="1">
          <mxGeometry x="1587.1" y="1589.44" width="250" height="40" as="geometry" />
        </mxCell>
        <mxCell id="BStY4UZLv6UZcWrJa_nu-64" value="&lt;font style=&quot;font-size: 25px;&quot;&gt;&lt;font style=&quot;font-size: 25px;&quot; face=&quot;Arial&quot;&gt;(d) Prompt Strategy&lt;/font&gt;&lt;/font&gt;" style="text;html=1;align=center;verticalAlign=middle;resizable=0;points=[];autosize=1;strokeColor=none;fillColor=none;" parent="1" vertex="1">
          <mxGeometry x="2076" y="1589.44" width="240" height="40" as="geometry" />
        </mxCell>
        <mxCell id="BStY4UZLv6UZcWrJa_nu-65" value="" style="rounded=0;whiteSpace=wrap;html=1;strokeColor=#d6b656;align=center;verticalAlign=middle;fontFamily=Helvetica;fontSize=12;fillColor=#fff2cc;" parent="1" vertex="1">
          <mxGeometry x="1548.4" y="1221.44" width="21.5" height="20" as="geometry" />
        </mxCell>
        <mxCell id="BStY4UZLv6UZcWrJa_nu-66" value="" style="rounded=0;whiteSpace=wrap;html=1;fillColor=#e1d5e7;strokeColor=#9673a6;" parent="1" vertex="1">
          <mxGeometry x="1570.3999999999996" y="1221.44" width="21.5" height="20" as="geometry" />
        </mxCell>
        <mxCell id="BStY4UZLv6UZcWrJa_nu-67" value="" style="rounded=0;whiteSpace=wrap;html=1;fillColor=#e1d5e7;strokeColor=#9673a6;" parent="1" vertex="1">
          <mxGeometry x="1591.8999999999996" y="1221.44" width="21.5" height="20" as="geometry" />
        </mxCell>
        <mxCell id="BStY4UZLv6UZcWrJa_nu-68" value="" style="rounded=0;whiteSpace=wrap;html=1;fillColor=#e1d5e7;strokeColor=#9673a6;" parent="1" vertex="1">
          <mxGeometry x="1613.0199999999995" y="1221.44" width="21.5" height="20" as="geometry" />
        </mxCell>
        <mxCell id="BStY4UZLv6UZcWrJa_nu-69" value="" style="rounded=0;whiteSpace=wrap;html=1;fillColor=#e1d5e7;strokeColor=#9673a6;" parent="1" vertex="1">
          <mxGeometry x="1634.5199999999995" y="1221.44" width="21.5" height="20" as="geometry" />
        </mxCell>
        <mxCell id="BStY4UZLv6UZcWrJa_nu-70" value="" style="rounded=0;whiteSpace=wrap;html=1;strokeColor=#d6b656;align=center;verticalAlign=middle;fontFamily=Helvetica;fontSize=12;fillColor=#fff2cc;" parent="1" vertex="1">
          <mxGeometry x="1656.0199999999995" y="1221.44" width="21.5" height="20" as="geometry" />
        </mxCell>
        <mxCell id="BStY4UZLv6UZcWrJa_nu-71" value="" style="rounded=0;whiteSpace=wrap;html=1;strokeColor=#d6b656;align=center;verticalAlign=middle;fontFamily=Helvetica;fontSize=12;fillColor=#fff2cc;" parent="1" vertex="1">
          <mxGeometry x="1483.1" y="1221.44" width="21.5" height="20" as="geometry" />
        </mxCell>
        <mxCell id="BStY4UZLv6UZcWrJa_nu-72" value="" style="rounded=0;whiteSpace=wrap;html=1;strokeColor=#d6b656;align=center;verticalAlign=middle;fontFamily=Helvetica;fontSize=12;fillColor=#fff2cc;" parent="1" vertex="1">
          <mxGeometry x="1504.6" y="1221.44" width="21.5" height="20" as="geometry" />
        </mxCell>
        <mxCell id="BStY4UZLv6UZcWrJa_nu-73" value="" style="rounded=0;whiteSpace=wrap;html=1;strokeColor=#d6b656;align=center;verticalAlign=middle;fontFamily=Helvetica;fontSize=12;fillColor=#fff2cc;" parent="1" vertex="1">
          <mxGeometry x="1700.21" y="1221.44" width="21.5" height="20" as="geometry" />
        </mxCell>
        <mxCell id="BStY4UZLv6UZcWrJa_nu-74" value="" style="rounded=0;whiteSpace=wrap;html=1;fillColor=#e1d5e7;strokeColor=#9673a6;" parent="1" vertex="1">
          <mxGeometry x="1539.1" y="1093.44" width="21.5" height="20" as="geometry" />
        </mxCell>
        <mxCell id="BStY4UZLv6UZcWrJa_nu-75" value="" style="rounded=0;whiteSpace=wrap;html=1;fillColor=#e1d5e7;strokeColor=#9673a6;" parent="1" vertex="1">
          <mxGeometry x="1559.6" y="1093.44" width="21.5" height="20" as="geometry" />
        </mxCell>
        <mxCell id="BStY4UZLv6UZcWrJa_nu-76" value="" style="rounded=0;whiteSpace=wrap;html=1;fillColor=#e1d5e7;strokeColor=#9673a6;" parent="1" vertex="1">
          <mxGeometry x="1581.1" y="1093.44" width="21.5" height="20" as="geometry" />
        </mxCell>
        <mxCell id="BStY4UZLv6UZcWrJa_nu-77" value="" style="rounded=0;whiteSpace=wrap;html=1;fillColor=#e1d5e7;strokeColor=#9673a6;" parent="1" vertex="1">
          <mxGeometry x="1625.4700000000003" y="1093.44" width="21.5" height="20" as="geometry" />
        </mxCell>
        <mxCell id="BStY4UZLv6UZcWrJa_nu-78" value="" style="rounded=0;whiteSpace=wrap;html=1;fillColor=#e1d5e7;strokeColor=#9673a6;" parent="1" vertex="1">
          <mxGeometry x="1646.9700000000003" y="1093.44" width="21.5" height="20" as="geometry" />
        </mxCell>
        <mxCell id="BStY4UZLv6UZcWrJa_nu-79" value="" style="rounded=0;whiteSpace=wrap;html=1;fillColor=#f5f5f5;fontColor=#333333;strokeColor=#666666;" parent="1" vertex="1">
          <mxGeometry x="1742.1" y="1088.44" width="140" height="30" as="geometry" />
        </mxCell>
        <mxCell id="BStY4UZLv6UZcWrJa_nu-80" value="" style="rounded=0;whiteSpace=wrap;html=1;fillColor=#ffe6cc;strokeColor=#d79b00;align=center;verticalAlign=middle;fontFamily=Helvetica;fontSize=12;" parent="1" vertex="1">
          <mxGeometry x="1747.85" y="1093.44" width="21.5" height="20" as="geometry" />
        </mxCell>
        <mxCell id="BStY4UZLv6UZcWrJa_nu-81" value="" style="rounded=0;whiteSpace=wrap;html=1;fillColor=#ffe6cc;strokeColor=#d79b00;align=center;verticalAlign=middle;fontFamily=Helvetica;fontSize=12;" parent="1" vertex="1">
          <mxGeometry x="1769.35" y="1093.44" width="21.5" height="20" as="geometry" />
        </mxCell>
        <mxCell id="BStY4UZLv6UZcWrJa_nu-82" value="" style="rounded=0;whiteSpace=wrap;html=1;fillColor=#ffe6cc;strokeColor=#d79b00;align=center;verticalAlign=middle;fontFamily=Helvetica;fontSize=12;" parent="1" vertex="1">
          <mxGeometry x="1790.85" y="1093.44" width="21.5" height="20" as="geometry" />
        </mxCell>
        <mxCell id="BStY4UZLv6UZcWrJa_nu-83" value="" style="rounded=0;whiteSpace=wrap;html=1;fillColor=#ffe6cc;strokeColor=#d79b00;align=center;verticalAlign=middle;fontFamily=Helvetica;fontSize=12;" parent="1" vertex="1">
          <mxGeometry x="1834.0299999999997" y="1093.44" width="21.5" height="20" as="geometry" />
        </mxCell>
        <mxCell id="BStY4UZLv6UZcWrJa_nu-84" value="" style="rounded=0;whiteSpace=wrap;html=1;fillColor=#ffe6cc;strokeColor=#d79b00;align=center;verticalAlign=middle;fontFamily=Helvetica;fontSize=12;" parent="1" vertex="1">
          <mxGeometry x="1855.5299999999997" y="1093.44" width="21.5" height="20" as="geometry" />
        </mxCell>
        <mxCell id="BStY4UZLv6UZcWrJa_nu-85" value="&lt;font style=&quot;font-size: 15px;&quot;&gt;...&lt;/font&gt;" style="text;html=1;align=center;verticalAlign=middle;resizable=0;points=[];autosize=1;strokeColor=none;fillColor=none;" parent="1" vertex="1">
          <mxGeometry x="1516.85" y="1215.44" width="40" height="30" as="geometry" />
        </mxCell>
        <mxCell id="BStY4UZLv6UZcWrJa_nu-86" value="&lt;font style=&quot;font-size: 15px;&quot;&gt;...&lt;/font&gt;" style="text;html=1;align=center;verticalAlign=middle;resizable=0;points=[];autosize=1;strokeColor=none;fillColor=none;" parent="1" vertex="1">
          <mxGeometry x="1668.1" y="1215.44" width="40" height="30" as="geometry" />
        </mxCell>
        <mxCell id="BStY4UZLv6UZcWrJa_nu-87" value="" style="whiteSpace=wrap;html=1;fillColor=#f5f5f5;fontColor=#333333;strokeColor=#666666;fontFamily=Arial;" parent="1" vertex="1">
          <mxGeometry x="1577.1" y="1430.94" width="260" height="30" as="geometry" />
        </mxCell>
        <mxCell id="BStY4UZLv6UZcWrJa_nu-88" value="" style="rounded=0;whiteSpace=wrap;html=1;strokeColor=#d6b656;align=center;verticalAlign=middle;fontFamily=Helvetica;fontSize=12;fillColor=#fff2cc;" parent="1" vertex="1">
          <mxGeometry x="1655.3999999999996" y="1435.94" width="21.5" height="20" as="geometry" />
        </mxCell>
        <mxCell id="BStY4UZLv6UZcWrJa_nu-89" value="" style="rounded=0;whiteSpace=wrap;html=1;fillColor=#f8cecc;strokeColor=#b85450;" parent="1" vertex="1">
          <mxGeometry x="1677.3999999999996" y="1435.94" width="21.5" height="20" as="geometry" />
        </mxCell>
        <mxCell id="BStY4UZLv6UZcWrJa_nu-90" value="" style="rounded=0;whiteSpace=wrap;html=1;fillColor=#f8cecc;strokeColor=#b85450;align=center;verticalAlign=middle;fontFamily=Helvetica;fontSize=12;" parent="1" vertex="1">
          <mxGeometry x="1698.8999999999996" y="1435.94" width="21.5" height="20" as="geometry" />
        </mxCell>
        <mxCell id="BStY4UZLv6UZcWrJa_nu-91" value="" style="rounded=0;whiteSpace=wrap;html=1;fillColor=#f8cecc;strokeColor=#b85450;align=center;verticalAlign=middle;fontFamily=Helvetica;fontSize=12;" parent="1" vertex="1">
          <mxGeometry x="1720.0199999999995" y="1435.94" width="21.5" height="20" as="geometry" />
        </mxCell>
        <mxCell id="BStY4UZLv6UZcWrJa_nu-92" value="" style="rounded=0;whiteSpace=wrap;html=1;fillColor=#f8cecc;strokeColor=#b85450;align=center;verticalAlign=middle;fontFamily=Helvetica;fontSize=12;" parent="1" vertex="1">
          <mxGeometry x="1741.5199999999995" y="1435.94" width="21.5" height="20" as="geometry" />
        </mxCell>
        <mxCell id="BStY4UZLv6UZcWrJa_nu-93" value="" style="rounded=0;whiteSpace=wrap;html=1;strokeColor=#d6b656;align=center;verticalAlign=middle;fontFamily=Helvetica;fontSize=12;fillColor=#fff2cc;" parent="1" vertex="1">
          <mxGeometry x="1763.0199999999995" y="1435.94" width="21.5" height="20" as="geometry" />
        </mxCell>
        <mxCell id="BStY4UZLv6UZcWrJa_nu-94" value="" style="rounded=0;whiteSpace=wrap;html=1;fillColor=#fff2cc;strokeColor=#d6b656;" parent="1" vertex="1">
          <mxGeometry x="1582.1" y="1435.94" width="21.5" height="20" as="geometry" />
        </mxCell>
        <mxCell id="BStY4UZLv6UZcWrJa_nu-95" value="" style="rounded=0;whiteSpace=wrap;html=1;fillColor=#fff2cc;strokeColor=#d6b656;" parent="1" vertex="1">
          <mxGeometry x="1603.6" y="1435.94" width="21.5" height="20" as="geometry" />
        </mxCell>
        <mxCell id="BStY4UZLv6UZcWrJa_nu-96" value="" style="rounded=0;whiteSpace=wrap;html=1;strokeColor=#d6b656;align=center;verticalAlign=middle;fontFamily=Helvetica;fontSize=12;fillColor=#fff2cc;" parent="1" vertex="1">
          <mxGeometry x="1811.21" y="1435.94" width="21.5" height="20" as="geometry" />
        </mxCell>
        <mxCell id="BStY4UZLv6UZcWrJa_nu-97" value="&lt;font style=&quot;font-size: 15px;&quot;&gt;...&lt;/font&gt;" style="text;html=1;align=center;verticalAlign=middle;resizable=0;points=[];autosize=1;" parent="1" vertex="1">
          <mxGeometry x="1619.1" y="1429.94" width="40" height="30" as="geometry" />
        </mxCell>
        <mxCell id="BStY4UZLv6UZcWrJa_nu-98" value="&lt;font style=&quot;font-size: 15px;&quot;&gt;...&lt;/font&gt;" style="text;html=1;align=center;verticalAlign=middle;resizable=0;points=[];autosize=1;strokeColor=none;fillColor=none;" parent="1" vertex="1">
          <mxGeometry x="1779.1" y="1429.94" width="40" height="30" as="geometry" />
        </mxCell>
        <mxCell id="BStY4UZLv6UZcWrJa_nu-99" style="edgeStyle=orthogonalEdgeStyle;rounded=0;orthogonalLoop=1;jettySize=auto;html=1;exitX=0.5;exitY=0;exitDx=0;exitDy=0;entryX=0.5;entryY=1;entryDx=0;entryDy=0;" parent="1" source="BStY4UZLv6UZcWrJa_nu-100" target="BStY4UZLv6UZcWrJa_nu-46" edge="1">
          <mxGeometry relative="1" as="geometry">
            <mxPoint x="1811.96" y="1318.44" as="targetPoint" />
          </mxGeometry>
        </mxCell>
        <mxCell id="BStY4UZLv6UZcWrJa_nu-100" value="" style="whiteSpace=wrap;html=1;fillColor=#f5f5f5;fontColor=#333333;strokeColor=#666666;" parent="1" vertex="1">
          <mxGeometry x="1751.96" y="1340.44" width="120" height="30" as="geometry" />
        </mxCell>
        <mxCell id="BStY4UZLv6UZcWrJa_nu-101" value="" style="rounded=0;whiteSpace=wrap;html=1;strokeColor=#d6b656;align=center;verticalAlign=middle;fontFamily=Helvetica;fontSize=12;fillColor=#fff2cc;" parent="1" vertex="1">
          <mxGeometry x="1757.4099999999999" y="1345.44" width="21.5" height="20" as="geometry" />
        </mxCell>
        <mxCell id="BStY4UZLv6UZcWrJa_nu-102" value="" style="rounded=0;whiteSpace=wrap;html=1;strokeColor=#d6b656;align=center;verticalAlign=middle;fontFamily=Helvetica;fontSize=12;fillColor=#fff2cc;" parent="1" vertex="1">
          <mxGeometry x="1778.9099999999999" y="1345.44" width="21.5" height="20" as="geometry" />
        </mxCell>
        <mxCell id="BStY4UZLv6UZcWrJa_nu-103" value="" style="rounded=0;whiteSpace=wrap;html=1;fillColor=#f8cecc;strokeColor=#b85450;align=center;verticalAlign=middle;fontFamily=Helvetica;fontSize=12;" parent="1" vertex="1">
          <mxGeometry x="1800.33" y="1345.44" width="21.5" height="20" as="geometry" />
        </mxCell>
        <mxCell id="BStY4UZLv6UZcWrJa_nu-104" value="" style="rounded=0;whiteSpace=wrap;html=1;strokeColor=#d6b656;align=center;verticalAlign=middle;fontFamily=Helvetica;fontSize=12;fillColor=#fff2cc;" parent="1" vertex="1">
          <mxGeometry x="1821.83" y="1345.44" width="21.5" height="20" as="geometry" />
        </mxCell>
        <mxCell id="BStY4UZLv6UZcWrJa_nu-105" value="" style="rounded=0;whiteSpace=wrap;html=1;strokeColor=#d6b656;align=center;verticalAlign=middle;fontFamily=Helvetica;fontSize=12;fillColor=#fff2cc;" parent="1" vertex="1">
          <mxGeometry x="1843.21" y="1345.44" width="21.5" height="20" as="geometry" />
        </mxCell>
        <mxCell id="BStY4UZLv6UZcWrJa_nu-106" style="edgeStyle=orthogonalEdgeStyle;rounded=0;orthogonalLoop=1;jettySize=auto;html=1;exitX=0.5;exitY=0;exitDx=0;exitDy=0;entryX=0.5;entryY=1;entryDx=0;entryDy=0;" parent="1" source="BStY4UZLv6UZcWrJa_nu-107" target="BStY4UZLv6UZcWrJa_nu-79" edge="1">
          <mxGeometry relative="1" as="geometry" />
        </mxCell>
        <mxCell id="BStY4UZLv6UZcWrJa_nu-107" value="" style="whiteSpace=wrap;html=1;fillColor=#f5f5f5;fontColor=#333333;strokeColor=#666666;" parent="1" vertex="1">
          <mxGeometry x="1751.9599999999996" y="1165.44" width="120" height="30" as="geometry" />
        </mxCell>
        <mxCell id="BStY4UZLv6UZcWrJa_nu-108" value="" style="rounded=0;whiteSpace=wrap;html=1;strokeColor=#d6b656;align=center;verticalAlign=middle;fontFamily=Helvetica;fontSize=12;fillColor=#fff2cc;" parent="1" vertex="1">
          <mxGeometry x="1757.4099999999999" y="1170.44" width="21.5" height="20" as="geometry" />
        </mxCell>
        <mxCell id="BStY4UZLv6UZcWrJa_nu-109" value="" style="rounded=0;whiteSpace=wrap;html=1;strokeColor=#d6b656;align=center;verticalAlign=middle;fontFamily=Helvetica;fontSize=12;fillColor=#fff2cc;" parent="1" vertex="1">
          <mxGeometry x="1778.9099999999999" y="1170.44" width="21.5" height="20" as="geometry" />
        </mxCell>
        <mxCell id="BStY4UZLv6UZcWrJa_nu-110" value="" style="rounded=0;whiteSpace=wrap;html=1;fillColor=#ffe6cc;strokeColor=#d79b00;" parent="1" vertex="1">
          <mxGeometry x="1800.33" y="1170.44" width="21.5" height="20" as="geometry" />
        </mxCell>
        <mxCell id="BStY4UZLv6UZcWrJa_nu-111" value="" style="rounded=0;whiteSpace=wrap;html=1;strokeColor=#d6b656;align=center;verticalAlign=middle;fontFamily=Helvetica;fontSize=12;fillColor=#fff2cc;" parent="1" vertex="1">
          <mxGeometry x="1821.83" y="1170.44" width="21.5" height="20" as="geometry" />
        </mxCell>
        <mxCell id="BStY4UZLv6UZcWrJa_nu-112" value="" style="rounded=0;whiteSpace=wrap;html=1;strokeColor=#d6b656;align=center;verticalAlign=middle;fontFamily=Helvetica;fontSize=12;fillColor=#fff2cc;" parent="1" vertex="1">
          <mxGeometry x="1843.21" y="1170.44" width="21.5" height="20" as="geometry" />
        </mxCell>
        <mxCell id="BStY4UZLv6UZcWrJa_nu-113" value="&lt;font style=&quot;font-size: 15px;&quot;&gt;...&lt;/font&gt;" style="text;html=1;align=center;verticalAlign=middle;resizable=0;points=[];autosize=1;strokeColor=none;fillColor=none;" parent="1" vertex="1">
          <mxGeometry x="1594.27" y="1087.1100000000001" width="40" height="30" as="geometry" />
        </mxCell>
        <mxCell id="BStY4UZLv6UZcWrJa_nu-114" value="&lt;font style=&quot;font-size: 15px;&quot;&gt;...&lt;/font&gt;" style="text;html=1;align=center;verticalAlign=middle;resizable=0;points=[];autosize=1;strokeColor=none;fillColor=none;fontFamily=Helvetica;fontSize=12;fontColor=default;" parent="1" vertex="1">
          <mxGeometry x="1803.4699999999998" y="1086.1100000000001" width="40" height="30" as="geometry" />
        </mxCell>
        <mxCell id="BStY4UZLv6UZcWrJa_nu-115" style="edgeStyle=orthogonalEdgeStyle;rounded=0;orthogonalLoop=1;jettySize=auto;html=1;exitX=0.5;exitY=0;exitDx=0;exitDy=0;entryX=0.5;entryY=1;entryDx=0;entryDy=0;" parent="1" source="BStY4UZLv6UZcWrJa_nu-116" target="BStY4UZLv6UZcWrJa_nu-14" edge="1">
          <mxGeometry relative="1" as="geometry" />
        </mxCell>
        <mxCell id="BStY4UZLv6UZcWrJa_nu-116" value="" style="shape=orEllipse;perimeter=ellipsePerimeter;whiteSpace=wrap;html=1;backgroundOutline=1;" parent="1" vertex="1">
          <mxGeometry x="958.4000000000001" y="1297.5" width="19" height="19" as="geometry" />
        </mxCell>
        <mxCell id="BStY4UZLv6UZcWrJa_nu-117" style="edgeStyle=orthogonalEdgeStyle;rounded=0;orthogonalLoop=1;jettySize=auto;html=1;exitX=0.5;exitY=1;exitDx=0;exitDy=0;" parent="1" edge="1">
          <mxGeometry relative="1" as="geometry">
            <mxPoint x="1568" y="1619.4400000000005" as="sourcePoint" />
            <mxPoint x="1568" y="1619.4400000000005" as="targetPoint" />
          </mxGeometry>
        </mxCell>
        <mxCell id="BStY4UZLv6UZcWrJa_nu-118" value="&lt;font style=&quot;font-size: 20px;&quot;&gt;Word Sequence&lt;br&gt;of Paragraph&lt;/font&gt;" style="text;html=1;align=center;verticalAlign=middle;resizable=0;points=[];autosize=1;strokeColor=none;fillColor=none;fontFamily=Arial;" parent="1" vertex="1">
          <mxGeometry x="660.9000000000001" y="1384.94" width="170" height="60" as="geometry" />
        </mxCell>
        <mxCell id="BStY4UZLv6UZcWrJa_nu-119" value="" style="endArrow=classic;html=1;rounded=0;dashed=1;strokeColor=#878787;strokeWidth=1;" parent="1" target="BStY4UZLv6UZcWrJa_nu-24" edge="1">
          <mxGeometry width="50" height="50" relative="1" as="geometry">
            <mxPoint x="745" y="1380" as="sourcePoint" />
            <mxPoint x="1354.9" y="1317.94" as="targetPoint" />
          </mxGeometry>
        </mxCell>
        <mxCell id="BStY4UZLv6UZcWrJa_nu-120" style="edgeStyle=orthogonalEdgeStyle;rounded=0;orthogonalLoop=1;jettySize=auto;html=1;exitX=1;exitY=0.5;exitDx=0;exitDy=0;entryX=0;entryY=0.5;entryDx=0;entryDy=0;entryPerimeter=0;" parent="1" source="BStY4UZLv6UZcWrJa_nu-10" target="BStY4UZLv6UZcWrJa_nu-56" edge="1">
          <mxGeometry relative="1" as="geometry" />
        </mxCell>
        <mxCell id="BStY4UZLv6UZcWrJa_nu-121" style="edgeStyle=orthogonalEdgeStyle;rounded=0;orthogonalLoop=1;jettySize=auto;html=1;exitX=0;exitY=0.5;exitDx=0;exitDy=0;entryX=1;entryY=0.5;entryDx=0;entryDy=0;entryPerimeter=0;" parent="1" source="BStY4UZLv6UZcWrJa_nu-79" target="BStY4UZLv6UZcWrJa_nu-56" edge="1">
          <mxGeometry relative="1" as="geometry" />
        </mxCell>
        <mxCell id="BStY4UZLv6UZcWrJa_nu-122" value="" style="edgeStyle=none;orthogonalLoop=1;jettySize=auto;html=1;rounded=0;" parent="1" edge="1">
          <mxGeometry width="100" relative="1" as="geometry">
            <mxPoint x="1706.96" y="1561.2" as="sourcePoint" />
            <mxPoint x="1706.9835007610347" y="1526.7800000000002" as="targetPoint" />
            <Array as="points" />
          </mxGeometry>
        </mxCell>
        <mxCell id="BStY4UZLv6UZcWrJa_nu-123" value="&lt;div style=&quot;font-size: 16px;&quot;&gt;&lt;font style=&quot;font-size: 16px;&quot; face=&quot;Arial&quot;&gt;Previous text 1:Sunlight filtered through the treetops and scattered onto the path.&lt;/font&gt;&lt;/div&gt;&lt;div style=&quot;font-size: 16px;&quot;&gt;&lt;font style=&quot;font-size: 16px;&quot; face=&quot;lmwVX9qWhPRzO5o1v8vg&quot;&gt;……&lt;/font&gt;&lt;/div&gt;&lt;div style=&quot;font-size: 16px;&quot;&gt;&lt;font style=&quot;font-size: 16px;&quot; face=&quot;lmwVX9qWhPRzO5o1v8vg&quot;&gt;Previous text n: I noticed what he was wearing.&lt;/font&gt;&lt;/div&gt;&lt;div style=&quot;font-size: 16px;&quot;&gt;&lt;font style=&quot;font-size: 16px;&quot; face=&quot;lmwVX9qWhPRzO5o1v8vg&quot;&gt;Input text:He wore a loose-fitting red shirt.&lt;/font&gt;&lt;/div&gt;&lt;div style=&quot;font-size: 16px;&quot;&gt;&lt;font style=&quot;font-size: 16px;&quot; face=&quot;lmwVX9qWhPRzO5o1v8vg&quot;&gt;Following text 1:The color of the shirt appeared particularly bright in the sunlight.&amp;nbsp;&lt;/font&gt;&lt;/div&gt;&lt;div style=&quot;font-size: 16px;&quot;&gt;&lt;font style=&quot;font-size: 16px;&quot; face=&quot;lmwVX9qWhPRzO5o1v8vg&quot;&gt;……&amp;nbsp;&lt;/font&gt;&lt;/div&gt;&lt;div style=&quot;font-size: 16px;&quot;&gt;&lt;font style=&quot;font-size: 16px;&quot; face=&quot;lmwVX9qWhPRzO5o1v8vg&quot;&gt;Following text n:This red shirt made him look even more sunny and handsome..&lt;/font&gt;&lt;/div&gt;" style="rounded=1;whiteSpace=wrap;html=1;fillColor=#F5EAFC;strokeColor=#9673a6;align=left;imageWidth=24;arcSize=4;" parent="1" vertex="1">
          <mxGeometry x="2046" y="1330.1100000000001" width="341" height="224" as="geometry" />
        </mxCell>
        <mxCell id="BStY4UZLv6UZcWrJa_nu-124" value="" style="shape=image;verticalLabelPosition=bottom;labelBackgroundColor=default;verticalAlign=top;aspect=fixed;imageAspect=0;image=data:image/png,iVBORw0KGgoAAAANSUhEUgAAAMgAAADICAYAAACtWK6eAAAAAXNSR0IArs4c6QAAIABJREFUeF7tfQmYFNXV9nuqh0FwZVjcV1QQjcr0oML0IEbFJTDdwAyJUdxYjPoZNHGJyfdF/PIncUsimkUFNEHNZxiWqYaIYoyErgaVrkaNEhDBfWGZURIFHabr/NYMKCLdXXXrdldNz63n8VGfPufcc95736mqW+eeQ1CXQkAhkBUBUtgoBBQC2RFQBFGrQyGQAwFFELU8FAKKIGoNKATEEFB3EDHclFYnQUARpJNMtApTDAFFEDHclFYnQUARpJNMtApTDAFFEDHclFYnQUARpJNMtApTDAFFEDHclFYnQUARpJNMtApTDAFFEDHclFYnQUARpJNMtApTDAFFEDHclFYnQUARpJNMtApTDAFFEDHclFYnQUARpJNMtApTDAFFEDHclFYnQUARxOeJHlhT3xuZTPcVS+e+6bMravjdIKAI4tOyqBwSu5SI60E4f7sL/wJgEHNDKhl/yie31LC7IKAI4sOSCEdivwL4B9mGZsZv0kk96+8+uNxph1QEKfLUV0aiMwkYl39Yeso0Gofnl1MShURAEaSQ6O5iO1wdvRWEnzoeknGvmdS/71heCUpHQBFEOqS7NziwJnamxvw3geGuNg399wJ6SkUCAoogEkDMZyIcntSFu61fTMCQfLK7+50J56YT+pMiukrHGwIdliCVkVgYsEbuCF8j2gymFRnq8sqKRMNGb7DI1Q7X1P4CTDd7sapZ1inLl85f7sVGsXRPPi12RFmIB1jEp+wYk0AbOMOL0svirxXLDxnjdCiCDBoychCTVs+EEQCOywYAgxcSaQszITz8wuLGj2QAJWqjMlJ7LoEWiurvrKch1He5MXedDFuybQwaEjs5o1kxAp0L4NQc9p9l5rlWRmt44dnGN2T7IdtehyFIOBKdC2CUSwBeANGtZqKx0aWeFPFweGR3dNNSucjscqC12KM8bP6tYbNLvYKKV1bHriXiWwDs52KgT0D4g5nQb3ChU3TRDkGQcCRq35b7CqPD/EszGf+xsL6gYlUk+lsGrhZUz6JGC0yj8YtHS7m23VkLn1W/L29tmUGEMe40d5ImLDIT+jnC+gVWDDRB7AnApy3vA+jmFQcCHkoZ+uVe7TjVr6yuHU1Ec5zKu5Ij+pOZaLzUlY5k4crBtUdrGs1kwmDPpgmPmgn9Is92CmAgsASxJ4BCZD8aHS8rbiK+O5WIXyfLXjY7Jw+L7Rdq5ZUADizUWH5/bQ9Hos8AGCYrPgbfmjbiU2TZk2UnsASpikQXMmC/8Mm9iEaJvJOEh8SGg/jENsISjnDglLTFk20sYiyBhi5gdGGgDECXnf5p/39q/x1tv1MXgLsQYRkzVjB4ftqIP+Eglq+IVEZqpxDIfueQerFFl6WXNv5RqlGPxgJJkKpI9GIG/uQxtt2qE5BKGfogN7YLtSDc+FAwWcJ9ZkK/0ql9e7fK0niFU3lXcow3Mhk6I0i7W4EkSDgSfQ7AF3vorkB2IMzE49KJ+CMORBGORNcD6ONEtqPKMPiOtBG/yYn/VTW1v2Gma53IisgQ8LuUof+XiG4hdAJHEPsDIIHtrdGCXQz8LW3oZ+cbIByJ3Q3w5HxypfA7a9qZ6SXz/p4rFvsDYKis7e7hZjvXLTzvmoZ+iFulQskHkCCFeb7dFUDWrDPTS+ZnXRD2QSaNWzYUCvig2SXGslRSz5kKU6xHTQKdkTIaFwcBo8ARRPCDoACWPNY04g3ZFKsisWEMtndqinDRGoDfAXBGEQbb/RCMlq0flu+9cmVDSzYfwjXRR8C4sAg+TjYN/Z4ijJN3iCASxNtHwbwhtwsw6Iq00fhAVoLURK9jxq8dmvMmRplw6LMub2bKMy8DdIA3Y+LaFvOgFcl41sfbcCT6bJ40EvHBv6LJM0wjPkGSMU9mgkgQ9hSRc+UfmYZ+e447yAUM/rNzc6KSNNU0GtteeiurR55GpC0TteRVT9Nw2PIl+ttZ7yCRaBOACq/jONBfbBq6f3fTnRzstAQh4ptSifgdWQkytHYgW5R2MJnCIsy8PJ2Mf2W3rioSG8fgmcJGRRUZb5hJ/chc6uFI1M6S7iU6hAs9RZAcf6WKcgchpgmpZOOMrH60JxrahRQOczGx7kQtOsdc2rhoV6VwpPZnAP23O2PepIlxZyqp35iHIAaAam8jOdJWBMn6l7s6ulRKfk+eeWDmMelk3M4QznoV8q95vtSKqproY8z4tqPl5F3I0dZquDr6EAiFzwHzKbl0dzAG7hGrWFuJbFlnppdm3+bdAVZh/OFrTSM+Nd+6rorU3s+gSfnkvP7OxCelE/GX8tkpDBZfHzVIJyiDR5Ca6DnEcJ0flG9yv/o7G6YRr3GqU1kdrSHCNAD9nOpkkXuZQHekjMaHndqpitRezqCsj4JO7WSRS2gIXer0EFZB00y+cJA3lm3bdvRzzy38t8fYpKgHjiB2VJXVseeJ2FW+lBs0RJLiTjxx+J5d9+o6IIPQ8dAsJ8mKX7ikQVvLFpaaSxvXuvFzh2x42MhelKF+YPSzJLwTaQx782F1Khlf7dafcE3saTB/062eC/nfm4Yu+QyNi9F3EQ0oQWpvIKKsO0zi4bZ9AMm7W+PJfokrhyPR7wJ4tFBhBukruh1jIAkyYEB9ebeKliWF+iilsXXC8uT8Vwo1yaVsNxyJzQK4vhAxEviBlBG/ohC2RW0GkiB2MOHqEYeBQvYjiX2uQfKlqhaKADrw9FGDtYy1VETXgY5pGnqVA7miigSWIG0kiUTt6hh2eoP0i5jOTyUbpVQbke5cQA0WMtXENPRArsVAOrXz+hhYc15vjctnyTzeud3+atPQ+wd0LQbOrcrq6LeJ8FgBHJtnGvroAtiVYjLwBNkRZTgSvQ3AD6U+cjFfaSbj90lBsoSN1NfXh9a93/IWgIMkh3mbaeieCupJ9udr5joMQWzPq4aMOoFD1iWf70TZX3Nl5ARttajl8BWJhYGqxFjoSXdrP1wdvR6EO93qZZF/G6C5lmbNXbEkbm/EBPrqUATZgeSpw0Yfsm1bplojHM2Mo0GwP/qJ1c0i+qWZaCxozaxhw4aVNbf0qOjCrRVaF60iY1kVGkI9GFYFmCpY4wqy/w3uQSCLQesJvIGZ1muE9RnChlCG1mdCZeuLXVb1lKEjj8xYmnA1RwLmM2gdwOsY2rpPy8oWr1zc8HGgWbGTcx2SILuCWxmJjiIgZ15VrgnJdw7C7WQOGho9lBmnsoWhIBoK8ElubeSQt5M51wO0/vO8qDcYVjJElPxkU3kq12En0fHDkaidEiPUgmF32cqifvilVxIEscGrrInOJhas8OexcFl4aPQbZPEgC3QKMZ8OIj9e/m3i2Nm2SbIo1WrB9FodZFDNqNMttsSPvjJ/00zGi3QqszAUKhmChIfE+kJj4crhRKhPJfTZTmBuKwyXwQXMPJRgVzCno5zo+SDzChjLCWRmYD2b67Tg7nwLR6LzAMSE/Pb4R0dozAIolQxBbGzC1bH/AfH/CuKU2Lx3y9mvLVz4WTb9gZFRJ2mwvgPATrco3DkRwQDyq/EsRujhtDFvQT5Zz7XJLDpaNPcsn2/F/L20CNJ+yMlOxBPMuqXrTaPxV7tOQFV1bS0T2WczbGJ0+MuuyGhp/EiXlm1/2V3W7PbSqXY3rLBQsIRbzIQu+odKaMhCKZUUQWyQqobExrDGjh6VdgPqWyFoZz9vzHt1YHXtQZqmjQFbYwGKFGoCfLb7KgiPotWaZS6bv2qHL+FI7X8D9DNB394qz3w6cNmyJ5sF9QOlVnIEaSOJh9N4TPxbYq0F4LqO+RgltL7+w8CfifkvrKGJmOw+7ULVJAm4JGXoxT9TLxR2fqWSJEiBk+ryo9qBJZgQJ0atWAillwRakgRpe2Gvqf1fMP2P2EQrLREEGNpIJxsAIrb90ilZgpw8LHZEqJXt3Rpp/UX8mqSOMC4D96cN/XsdwVc3PpYsQbbfRa4Ek+ox7mZFiMl+SsRnpRLxpJh6cLVKmiBHn3de130+Lp8l/kwd3IkLmGeBz8oVxaukCdK+ozUqymz50uU2z6TYRaI3ALShLTHR/m+y/7/t3HwfAvowqA/A9m6S/U+56CQXWO9l1rSx6SXz7CJ7JXeVPEHsGauMRO8jwKezzvwiQK+AeC1ntHVt/wavXZGMv+dmNdnfZQjUF0x9KWQdZf8b4OMBkpkI6caldi4T35hOxGWlwrsev9AKJU+QqurYfzHxvYUG8gv7hNeY8bRGvJhCrYuXL378g0KOPWjY+QdwpmyYxTSMCGfCTv8v0kWEJaFyHvvc03G7C1dJXiVNkHBN9E4wri/CzD3H4CfA/EQ6Ob8gZ+idxmBXiAfRuQSyG6DaZ/oLepXq7tUO0EqWIIUsT7MdvDZSEGihaeh2T8XAXXbRCwafVwSyPGkauvyOxAFAtCQJUtgmoPQUCL8XaSXt53yHa2IxMK4COG9vRkE/X8VWa6Bpzt8iqB9ItZIjSDgStZ/595eNNgNL7Q6spqEXoamObO+/tGdXRmTgagJy9iMU9KAFFg0ohTT3knzECkei9l+vboKTm01tJRPfnU7E7eLVJXNV1tROpPZ2zgNkB8WMoemknpBt1w97JXMHCUei/wRwgkQQt4D4V5mQ9usXFjd+JNHu100x07j1i7qHum7pYv+Y+az7tof3H74FRAVtJtR+MtL6AZjsckrdZcaYr52bzLEKaaskCOLpaOju0Z1pQfv1CmPei7LAH79h1tEc0k7SwAOY6RjScHhbnSlGbwD7ZhlnMwgbwXiPGW8S8RoLtJIy1osz+owVPl6861jbT0r+AMDFsuK1eb4Hc49kMv4fiTaLbqrDEyQcid0N8GRJyL3OwA/Thm6fxfZ0Tdo0uz+H6Gy2eBjA1QBJfi9iu7JJkpgWE/ipB3rVfXHgSdTx7dVh7BOVOXsVOrVPQCpl6AVrY+HUDy9yHZoglZHa2wmUs6+ec3B4QQihH9qnCZ3rfFVyfPPcEzS26plg7xidKGpHSI/wEjEaLdIaZlSMflnIBoBTIqOOzSDzK4BGiNrYWY+Ah1KGfrkMW37Y6LAECVdHbwXhp5JAu9009B+J2rp806xLQxQaz+BAHM0lkJHhzIwHe439o2hM20u93iSq/xWSEN+dSsSvk2Gr2DY6JEE8V9zYCWUmGpdOND7iFvhxH8zcs2tZt8kgugbAAW71iyT/AZjv/ax169SHD7j4E7djVtbELiJmx+3ictnP17TUrW/Fku9wBAnXjKgEh56UU5uXx5pGvMEt2BOb59zMzPaj3X5udX2S/wjMd07vVf8Lt+OHI7X1ANnV9b1fxCPMRPyv3g0Vz0KHIsj2zlN2g88zvEKkAWcvN3S7tI3ja/ym2Zd83pNrCgGuehQ6HqDAggy8AcaUGb3q/uRmqEGR6FkWYBdy8Hr9c5ulnfXS0nntaf0d4OpQBAlXR+8BwX6k8XRpCPV12tnVHmjCprnHQbPuAEPKi6sn52UoExbA0m6c3mu04zMcgyKjj7KQEWpCurPLDHowbTSOlxFGMWx0GIJURkZOImj3ewXFbSejiR/OucayeCoFtJ+jBzyYNJo8rccYV0cBwpGo94+XRFeZicY/ePC9aKodgiADh4warGmW/d6xtxdktlna/k5v75dv1PcOaa0PMNguNVqyF4Eey1hlkx7sHXX0Qe/EIaP6dNEsb+c/GJst8FluawX7MQkdgiBVkehCBjylU5OlfSO1dJ6j7wPjN887hVoz9hbpcX5MSvHHpH9xmXbpjH1HPe9k7LZGRpplp/YIXwz8LW3ohcosFvZrV8XAE0TGlq5FdNaKROPTTlAb39RQTyA7Y7cA3XWdeOCbTCtD++6MnqMd7eoNrImdqTG72uT4emR8rWnE7f4jgb0CTZD2XattywCuFEXQzXeO8ZsariKi34mOVQp6zHz1jF71jkolSfhO8vo2SzvN6WOvH/gGmiASeuM5/kI+vqnhegKVbPEBN4uLwTfM6Fl/lxMdr1/cifGLVFL/iZOx/JAJLEHsPoStrZllAA4RA4YXmEZ8pBPd8RsbridNkWNnrNjiG2b0dkqS2vkecrc+IUs7zen7oZP5lCkTWIJ4LLjwegjauU4SDyc0z77y8zpUjh4pZALfIWwRrppeUZd3O7Y9wdGyP+CKZQETppsJfWIQMQkkQbank9h3D6FiaQyMdpKyPqFpTt3ntaUcvZQGcfKK4xPVT+85Jm+/Fc+NVF1spBQn7vZRgkkQD51VAcw0Df2SfCBO3DRnEGtsgMVImM9+yfxOaCGLItN6jVmeL6ZwJGqnsAgdurLbLqQTejTfGMX+PXAEGTjk/MM1rcsLgomAWyxoQ/KdBGzLxO3S3S7Voyq/O1txr3y2bcup+TKCt59MXCp8fJe1GjM5z+7UG5grcATx1P6L+GdmIp73jMiE5jmPgPnCwMxCR3CE6NHpFWMuyueqt74s/AfTiF+Vb4xi/h4oggweXN+tJdRi3z2OFQBhZaaMqvMVWJjYPOcqZu7U3zoEsG1/Hie6elrFmJwbGtsbgNptENxXS2FsBjInmskFb4n6KFsvUASpjMQmEVgoIZGJJ+UrzTNx42PHslZmp5u0VQ9Rl2sEtpHVesK03t/JeSx5e0mhB1xbtxUYN5tJ/TYh3QIoBYog4UjUfv6sdhunXdQtbeh59SY2z57HjJhb+0r+SwSI0Ditom5UPkwqI9GkYHG6f5qGXtzz/DmCCQxBPG4TXpiv4uH45jnfJeZH802s+j0/Akx04YyKMTkrTNoVHAGI4p13PvN7KUciMAQR3yJ01ll1YtPsVxk4Rg5sndsKAWum9azL+54YjsQWCdYC/qtp6IE4nBYkgrwtlFZCNCpfIekJzbNvAOOOzr2sJUdPuHF6RV3O3LX2gtksUmOsVdNw1PIlur0mfL0CQZDwkNhwaGwfiHJ7PWca+mm5lK5Zc0/XrRUHvgNQL7fGd5b/ZPUmND/9Gra81owta5uwZ7/e6Na3AvsOOgT7VB7kxXTBdAvrM2/q1rznIfcec/5nuQIIR6J2vxTXfUqIaUIq2TijYOA4NBwMggg2unFSSmZ885wbifl2h3jsVqxp0Rq89bvsfXF6nXssDr3S9Rrw4lJe3WL4zEQ3zagYk/POXBmpnUKgW/I6vIsAA4+lDf0Ct3qy5YNBkEjMFDzzcVq+5jUTmma/A+BgUeDe/LWB5n+8nle997f64ZBJp+SVK4bAuv/3DDYvt8POfR14wUk44DueNozend6zLme2td3EB4D7rluEJjOhe7rr54vfye++EyRcPeIwUOhNJ87uIpP38Wrih3PGscUzBWy3qdiLzF5sTq/Dr61GxRlHORUviNyGxpV49yHTse1jbz8Xe/a362eLXaTRxdN6jMlZXE70MQsWnWMubVwk5pkcLd8JIlqthMFT0kb81lwwTGia/Q8AQ0Wheuu3y9D0lPMi6t2O6IH+U/3dfFl13V+xdV2z45BtQtvE9nAtmd6z7vRc+pWR2lsINMX9GDTVNBrtHia+Xb4TpCoSm8Pg0W4RYLYG52qYeVnTrAEhaK+4tbuz/CsT56Flw8euTJw06wJoXf05zm591ooXx/6fK3+79OyOEx4c40pnV+EMrOMf6jl2ZTYjdmNRIs0+vuDyojWm0Zh3O9mlUVfivhMkHIm6395lvGEm9ZyHcyY0NdzyeTa/wF+tdvy2vvkRVn1/viswbeF+d52P7sf0dK0nQ8HeXVv9g8ddm+p/9wh0O7KHa70vFXjK9J71Oe/m4ero6yD3FSktaumzIrFwowfnPKn6SpDwsJG90Kq5D57wqJnQc2aWTmhqWAHQyaLofPzyeqz5ifvH32N+Phx7nSC5FYjDIHz0+YXpPesG5nIzXBN9BAzXGdSWxqevWBJf4hAC6WK+EkS45ithopnQp2dDY3tS4movaPm42ITd9tNnslr75UpiDNdEJ4Dhus8jMb6XSupCCazCQO6k6CtBRKuWtGYyh7y4bMG7WQkiIaXdz8UmOrF++pwvFf6kwSMOLguF8u89fy14f1/UfSVIVXXsYSbOewhnF8xeMg39pFyLaELTnFkA14suNFvPz8Um6re/PlPD9J5jxuZ8zIpE7Z6P7j68EBaZCf0cUUy86vlKEMHOtH82DT3ns+yEpoZ3AfKU/+HvYhObVn995vem96zP+UE2HIna2b12lq+b623T0A9zoyBT1jeCDBs2rOw/rftucx1MnmO13/tw3hGtVib/p+88A/u72Fyj0qbgt89lWujI+3qMeiOb96LHcbeWle+9cnGDu/12MQi//oAnyY5rMwOra6s0oryVMnY1zBZdll7amLX33vhNs2NEEMkg/cpQfi8214AGgCDMGDWjV11jNt8rh8QuJY0fchubFgqdsvwfc12vFbfj7E7etztIuKb2W2Ba4DYIZgxNJ/VENr0Jmxp+DKKfu7W7q7zIRzfbxvEzRqO8155ehxfS39a8BS9fNse17kl/uQDaHhI+bjL/JFebt8rqaA0R3G/Z+ti6zTeCVFbXXkhErptnWswHr0jG38tKkKY5DwJ8metVshuF12/7Bz5a5rx+QHmfvXD8tLynUWW4ltXGyu814rP3HbX6aLOxT/hg9P3pNyX5RA9N7zkma8vngdW1B2lEWXcfsznBzBelk3HR04meYvONIOFI1C7v4ra6SItp6F1zRTx+0+y/E3nvYWiPsemJV/H2H+zyWc6uPtHjcPDlVc6ECyT1zrTl2LhglWPrh08egopv9nUsn0uQGc/M6FWXk23hSNQ+P+K2YubVpqH7Uh7WN4JU1kR/TAy3j0LvmIZ+aK5JmrCpYRWI+kmZcQArr2jEZx/k/4u8x2H7taWZaF1DsoYWsmM/Gq6avMDRXWTP43rj2Ns89SXa1cfV03vW9c/luEhqERN+kk7orjv0CgG4i5J/BInU3k4gu5Wyi4vSptEYzkmQ5jmbPu8NLi0Zys5vWnPzItgLL9vV7fD9cNBlYewz0NPOsgsccov+O/Uu3puZbssny3ZRmYb+94zEHgfvI21cAM3Te9blxD4scPaHwXekjfhNMh11ass3glRFau9n0CSnjtpyBDyRMvTzchKkabb3JpO7GWDj/H+1pb7vvOjsBL8e1Ueg98j+cl5y3YCRR9b6tBUb56/Ch4nXv+az/d5x0LicqVPCnkzvWZdzTYm00yPwAykjfoWwUx4U/SNITfQxZnzbpe85C1Nfw4933dq85VOXNl2JZz5uwdY3PmzLfg3t6fZR2tVQ0oSL6XO3iu573EvZz6mLVK8hwl9SCd2XZqq+ESQcidr9JNylEBDuMhP6DdlWzlU8a6+WZi3/C4O0pacM7YpAeYW19+9pbNaPeoJ9X540DV3qy5LTmfOTIPZZ1mFOHbXl8hVpsFs3a9q2f7uxqWTlImBZXfbJ1VJasIjDYtPQz5DrqTNriiDOcFJSDhFQBHEIVD6xcCSq7iD5QOqAvyuCSJo0RRBJQAbMjCKIpAlRBJEEZMDMKIJImhBFEElABsyMIoikCVEEkQRkwMwogkiaEEUQSUAGzIwiiKQJUQSRBGTAzCiCSJoQRRBJQAbMjCKIpAlRBJEEZMDMKIJImhBFEElABsyMIoikCVEEkQRkwMwogkiaEEUQSUAGzIwiiKQJUQSRBGTAzCiCSJoQRRBJQAbMjCKIpAlRBJEEZMDMKIJImpBSJkjLpk+wdW0zuNWShFZuM3YBBrsltV8F63b2ThFE0pSXIkGan1nXVkvrk1XuewLJgNVuxmm3pPazkagiiIyZBFBKBMl80oLXb1+C/7z4viR0vJnZ+6QDceRNQ30pKqEI4m3uvtAuJYK8OXUpmv++VhIycszY1RLtqonFvhRBJCFeKgTZsmYTVl+/UBIqcs30u+s8dD+ml1yjeawpgkiCu1QI4rYWriT4HJnpPaI/Dpk4yJGsLCFFEElIlgpBXpkwFy0bP5GEilwz5b33xPHTXbeg9+SEIogn+L5ULhWCrIg+LAmRwpgZqI8rjOEsVhVBJMFdKgR5ZdI8tKz3pTtY3pko338vHP9AcfuVKILknRZnAqVCkHf/aGLDvJXOgi6yVJ/YABx8Wc5i+NI9UgSRBGmpEMSu9r7q+/MloSLXTP97RqDb4T3kGlW7WMXBs1QIYqP19v3PY9Pjq4sDnMNRep3fD4decYpDaXli6g4iCcvKSPT/CHBb0n6eaeg5t2UmbJr9HggHSnLTkRm2GG/clcBHyTcdyRdaaL/qw3HE9TUgrcillxnvT+9Vl7OLUDgSnQvA1YsRA4+lDf2CQuO2O/tFRvBLF6pqan/DTNe6DHqtaehH59KR1eXWpV9t4ptT76DpyTXY/Pw7IuqedfY95RD0OudY7FN1sGdbQgbydLm1bYYj0dcAuGqKSMR3pxLx64R88qjkI0FiNzLz7W79L8+U91y2rKE5m94Ufqbs7eam1QQc5da2LHmrJYOt64qczXtUBbRy//ojMrDu0Iqe/abQGVl71Q0eXF/REmppcoszEd2USjTe4VZPhrx/BIlEL2bgT26DcNIS+NINs48JhfBLAsa4ta/k3SPAwJxMBjf/sU/dmlzaoq2/CbgkZegz3XvmXcM3goSHxIZD4yddh0B41EzoFznRu3zjrH6hkHaGZXFxE5KcOFcCMppGmzIZ65kHe491tEMRrok+AsaFrkO36BxzaeMi13oSFHwjyPbnUbufYM6+57uLkRlD00k9ISF+ZaJICFRWR2uIsERkuL3LNndbvHhxQXtPZvPLb4I8AGCiW9CYMSed1Ovc6il5/xCorI7OJnL/yEvA/JSh1/rlua8EqaqOncfEjwsFz7jBTOp3CekqpaIiEK6OXg/CnUKDMl9pJuP3CelKUPKVIO2PWbG1AAvtOGkaDlu+RH9bAg7KRIEQGDQ0eqhl4S1h8xnrOHPZ/FXC+h4V/SdIdfQeEK7xEMdppqE/50FfqRYIgXAkeiqAZz2Yf9Y09MEe9D1iSROQAAADCklEQVSr+k6QykgsTOCUl0js9tDbkJn6T+OvH3qxo3TlIPCNyLd6dEFoMoFu8WLRz+3dHX77ThDbkapI7f0MmuQFTACrQTTVQpfZKxIN/pQV8RhAR1cfWFPfW8O2OjBPBtDPSzwEPJEy9PO82JChGwiCyLiL7ATGNjAnWKOnNYvWs2Z9QKwF88ifjBn00QaTtSdZ2gGWxvuTxWeCqAZAFxkuMfi8tBF/QoYtLzYCQRCJdxEvWCjd4CAw0zT0S4LgTmAIUllTeyIx2V9L9w8CMMoH3xBYz8TD04n4S755sNPAgSFI+10kNo7BvuTcBGEylA8AgS5OGY2BOegfKILYCyQcid4G4Ca1WDolArebhv6jIEUeOIK0kyQ2C+D6IAGlfCk0AtRgGo1jCz2KW/uBJEgbSUQzP90ioOT9R8BFhnaxnQ0sQdrfScTOjBQbRDWeOAJB+BiYy/tAE8R2vDJSey6BHgVQIT4NSjOACDQz+MIgfOvo0ARpf9waUUkc+jkD5wZwopVLLhGwv5IzZX5iJhakXaoWXTzwd5CdEWl/5KLJAFcWHSk1oAQEKE3gqX4dnxUJoEMRxA5wwID68m49Wr4Pgp3vc4hI0Eqn6Ai8A8bUrR+W37NyZUNL0Uf3MGCHI8iOWNsyRrlsOBGfDdBwAId6wEGpykfgbYAXMdNT26h1UUfNtO6wBNl1Pu2zB3aCG0D24au+1F57SaWtyF/4u7O4ngG7xZZ9+G0dgRaWyhmdkiHI7mZtwLD6vfbIfHaUxpraASsAUSyymj8NdV23cnFDMMvbS4i5pAkiAR9lopMjoAjSyReACj83AoogaoUoBHIgoAiilodCQBFErQGFgBgC6g4ihpvS6iQIKIJ0kolWYYohoAgihpvS6iQIKIJ0kolWYYohoAgihpvS6iQIKIJ0kolWYYohoAgihpvS6iQIKIJ0kolWYYohoAgihpvS6iQIKIJ0kolWYYohoAgihpvS6iQIKIJ0kolWYYohoAgihpvS6iQIKIJ0kolWYYohoAgihpvS6iQI/H/qJqCM2MKgCQAAAABJRU5ErkJggg==;" parent="1" vertex="1">
          <mxGeometry x="2000" y="1327.1100000000001" width="46" height="46" as="geometry" />
        </mxCell>
        <mxCell id="BStY4UZLv6UZcWrJa_nu-125" value="" style="edgeStyle=none;orthogonalLoop=1;jettySize=auto;html=1;rounded=0;entryX=0.5;entryY=1;entryDx=0;entryDy=0;" parent="1" target="BStY4UZLv6UZcWrJa_nu-12" edge="1">
          <mxGeometry width="100" relative="1" as="geometry">
            <mxPoint x="968" y="1409.06" as="sourcePoint" />
            <mxPoint x="1008" y="1405.06" as="targetPoint" />
            <Array as="points" />
          </mxGeometry>
        </mxCell>
        <mxCell id="BStY4UZLv6UZcWrJa_nu-126" value="" style="endArrow=classic;html=1;rounded=0;exitX=0.25;exitY=0;exitDx=0;exitDy=0;entryX=0.5;entryY=1;entryDx=0;entryDy=0;" parent="1" source="BStY4UZLv6UZcWrJa_nu-87" target="BStY4UZLv6UZcWrJa_nu-44" edge="1">
          <mxGeometry width="50" height="50" relative="1" as="geometry">
            <mxPoint x="1868" y="1374.44" as="sourcePoint" />
            <mxPoint x="1918" y="1324.44" as="targetPoint" />
            <Array as="points">
              <mxPoint x="1642" y="1414.44" />
              <mxPoint x="1604" y="1414.44" />
            </Array>
          </mxGeometry>
        </mxCell>
        <mxCell id="BStY4UZLv6UZcWrJa_nu-127" value="" style="edgeStyle=none;orthogonalLoop=1;jettySize=auto;html=1;rounded=0;exitX=0.75;exitY=0;exitDx=0;exitDy=0;entryX=0.5;entryY=1;entryDx=0;entryDy=0;" parent="1" source="BStY4UZLv6UZcWrJa_nu-87" target="BStY4UZLv6UZcWrJa_nu-100" edge="1">
          <mxGeometry width="100" relative="1" as="geometry">
            <mxPoint x="1748" y="1414.44" as="sourcePoint" />
            <mxPoint x="1848" y="1414.44" as="targetPoint" />
            <Array as="points">
              <mxPoint x="1772" y="1414.44" />
              <mxPoint x="1812" y="1414.44" />
            </Array>
          </mxGeometry>
        </mxCell>
        <mxCell id="BStY4UZLv6UZcWrJa_nu-128" value="" style="shape=image;verticalLabelPosition=bottom;labelBackgroundColor=default;verticalAlign=top;aspect=fixed;imageAspect=0;image=data:image/png,iVBORw0KGgoAAAANSUhEUgAAAMgAAADICAYAAACtWK6eAAAAAXNSR0IArs4c6QAAIABJREFUeF7tXQlcVNX3/96ZYWAGxAU3XFDczdKfayoMUtqilVnZ8k+zZNBMM7XScqmwNNfKcitjMFPbTE1zycpCHmZmmZnlhvuOGyDLADPz/t5BDJj33rw3G2+Gdz4fPohz77nnnnO/c7dzzyFQSNGAogFeDRBFN4oGFA3wa0ABiDI6FA0IaEABiDI8FA0oAFHGgKIB1zSgzCCu6U2pVUU0oACkihha6aZrGlAA4prelFpVRAMKQKqIoZVuuqYBBSCu6U2pVUU0oACkihha6aZrGlAA4prelFpVRAMKQKqIoZVuuqYBBSCu6U2pVUU0oACkihha6aZrGlAA4pre/KJWbGxiPCFoSwjq2Wy2HJbFb9u3p6T7hfAyEVIBiEwM4Skx4uKMHVkWEwE8ACCEg28+gA8B9VyGWXLOU+0GKh8FIJVo2ZiYhGoqlSaMkKIwiyUolBBrGCEqjVptKySEXCwoMGfu3LkyR4yIlJdarVrGsuxDYsoDyAPIIIZJXieyfJUspgDEy2bv2XNEXZXK2k2lsrVhWTQD0BxASwDRYpsmhJwB2Issi5MAfiWE7FSptL+lpi7KpTzi4xMbWa3sFgC3iOX5Xzl2AsOkzJFer2rUUADiYTvHxz9Tw2bT3MmyiAfY3q4NWnFCsSz2qVRkN8uy/wPQXlwtx1KEsIPT0lJWulo/kOspAPGQdePijM8CSGRZdPEQS5+yoSBLT0/5y6eN+kFjCkDcMJLBMLQOy6peIAQjANR2g1WlVyUEe1Sqxl1TU5MslS6MjARQAOKCMeLiEtuyrG08QIa6UN1nVXpHaNA5XINaQQR/XbPi+0vFuFzMCrRPXmeY5Ld8JqAfNKQARIKRYmKGR6nVtrdYlh0ioVqlFB3dJBj31wkq13ZmEYtxB/JxqUgQJB0YJnlvpQgtw0YVgIgwCj2JUqstUwB2tIjioorUCiNoXEeFMB1BaDBBaAhQTVdijrxCoKCQRUERi4JCICuPxbELVhQWi2KNLtXVmN5Sx1n4aL4Nz/1Lr0J46U+GMXUS11Lgl1IAImDjPn2GVy8stL4CkLEAyz3iRIyRZvVVaN9UjeaRakTXU4H+TYEhlY5fsCHjnBUZZ23YddiKw2etnCwmRIeALq/4aPnZIqw4W8T7Od2PsCwyr58gpzKMaYZUOQOpvHQrBVLvBfoSG5vQhxCy/Pqtc32pXW5QS4U72mvQsbka7aLUCA3xvJo37irGrK/NnKLR2YPOIkI0/J98nCiwienaXq22+M6tWz+9LKZwoJXxvOUCQEOxsQlzCSEvSelKjVCCuzsF4c72GtwSJTw4pfDlK7v9XwsmLivg/Pix+loYG2kFm8nIt2GU8FLrZn06o2i16vgff1yS7QnZ/YmHApAy1urZc3hztdr6JYDOYo3YuLYKQ3prcU+n8htisfVdLZeZxWLgDPtFugOFqQlmttahpV4lyH7pmSJ8cY5/qVW+MrtLrQ65s/T23lW5/a2eApAbFruxpFoDoJoYIzaPVOHp3sGIv41/rS+Gjztl+r+Za9/Ac1GwChjaMBgP1RMG7v/9lYcrgke/5bjv1OmKen///fI8d+T2p7oKQADExiYMIYSkAHC6NqpVjWBE32Dc29m3MwbXoJr/bSFWpQvPAM31KoyPDkG0znE2+fp8MT4+XSh1vKar1da7UlM/4d4ASeUm8/JVHiBxccZpLIvJzuykUQOPxGhhvEuLEK081JadV7LMcnb8qyLAw/WCMKRBMOjMQsnZSZawPtifLl++1vfff1eJXZ85U69sP5eHpStBPZ07Dw/S662fAnjCWfMNI1R46ykdWkQKr+md8fHG59/9UYy3vxL3ZV5XSzC2aQh251hAZw836TuGMfV1k4fsq1dZgBgMCd8C5H5nFurbJQjjHgyWzazBJe+yrUUwfS95qcTb9bp1a+HO3t3wxeffOVPPNwxjEvv+xBkvWX5eBQGSpDIYTq0GMEDIIjotwauPhtjvM/yB0vZZ8NYXBU6XW876EhlZG/MXvIqI2jXw5Rdb8OHiVU6qsF8zTNTjQJKoSxVn7cvt8yoHkLg4o+n6w6MEIUPUqU7w3jA9ourIb0klJPeZyzZM/9KMfSe4b9idDb4mTRvg3fdeQq1a1W8WXfXVD1i0kJ588xPLsjPT01PoM9+AoyoFkLi4hPdZlrwgZEXqBvJuoh70tMpf6UumCAs3SFtyNWveCPPmjUe18FCHbosBidWqbvHLL0uO+KvO+OT231Eg0RJxccYxLIt5QtW6tNRg+pAQ0OWVvxOdTWZ8Zcbe485nkzZtmmLOOy8iLEzP2+3XpixEOvOngFps8QyzdJu/662i/P4/EkRY5Eakj91CRTu3UNuXVYFGg+fm4eRF/u1B+/YtMXP2WOh0wbxdX7N6K+Z/8LmgaghhE9PSUkyBpr+AB0jnzsP1er11z41ACZz2a9lAjQXP6QJi5qjYwUfezsXFbP73H0lTn0OveH7PmrVrfsIH738mctyTlSwbNDo9ffFVkRVkXyzgAWIwJKQIvfyjdxyLR+lBnQ0DkYbPz8eB0/zLLK02CDNnj0HHjm0cui8NHDerXySEfT4tLeWrQNBnYI6KG5aJi0t8nGXZL/gMRW/EU8bo0ai2f51WSRl4B89YMewDwQdSCAkJtp9etb2FRiUqIRfBUVa0dYBtGMMsvShFXrmVDViA3H77oHCtNuQ4gJp8Sn9zsK5SnQ19NRh2HLBg8qcFsAjs1+keZMHCiaCnWevWpWLeuys8Id4ptRr9UlNN+zzBrDJ4BCxADAbjLAAT+JT6UI8gjBvAFZmzMszg/TYpSF5Zyv1+pLT18PAw9H+wF1Ys3ygoUHUNQbZF6F17ueq5hJBuaWnJ+73fS8+3EJAAiYlJaKBSETp7cLrcUlf1j0eHgjogViX6/bAFLyYLg8SZPqg/1ztt9LhcbMOcY4U4YxZzgU7+vnw5u4s/OjcGJEBiY40rCcGTfMZe/lIomtQN3H2H0CD/9aAFE1JcA0nDEBVmt9Khdpl7ok/PFmGlwPv2/2Txz5BCAQcQZ3cejxu0GHU//5m/s2/QQPicziQTlgrvSSr2s1GICnNb61AzyHHInDTT2cSMQ3mCs8lViyWn4Y4dq1xDZyUpPuAAYjAYfwRAY+I6UEQ1gpXjQ6EPDrhuSx4+UmeSW8PUeKeNcGAX+nyXPuPlI5bFY+npJmfej5L74s0KATVSYmKGtVOpbLwnJm88qUPvDvL1zl29vQi/H7bagz482D0I4XrvmmfnQQvGS1huPR8VjAfqCr+kXHOhGB+d4vYDY1l8lJ5uomFa/Ya8awEfq8FgSFwMsJwGaHo9HtWnLzo64vlYRM7mzl+14fUV5nIXevR2f/4InddnOykziVYFmG4NBd2oC9Fje/L4Trn+YRjTrXLQuVgZAgYgJcloVBf4ArxNeixEFu/IuQyzcGMhvkxzXJoY2lHnSZfj1YkdA6AzyWsrzDALhiQtYdcxXI2ZrYRlmnK4ALuyOS9dDjOMqZVowWRQMGAAIuStS/cea6eEyUDd3CI8814ejp7n3uDSR1v9ung/QAT1/v2KKcLxTJv9QvFvAS/gsU2C0bdC3N+yPRMISrefYUwuJPmpPNMFDEAMBuMhPofEYfcE46k7hQOpVZ4JgHtfz0V+IffFG3WHWTZOj8havjuWpsEgBs3NQ04+t0w6FcGSW/WcS63dOVZMPMR7UOV379gDAiC9eg3rarPZfuMb5BveCPP6htcdgMW9ck2wOt20fzjKt674qX9b8PoK/hPZBsEq+6kWTa1QSvtyrZiaYUYO7y07O5lhUt52R1e+rhsQADEYEl8D2De5lBdziwYznvb+Ot5Vw9Fv6funckdILMuT9mPqIB20PjyEe21FAbb9zZ9Ph4YQ6hSuQVSICvQuZEeWs9w7xO9SKwQEQOLijDtYFt25BikdVHIOvLD/lBXPLhD2ti3tV+uGasxK0IGmTvAFUfA+OYd/qSVNBnYDw6TQ1NR+Rb7RtBdV0qOHsZZGA87I4zSq+uap8t2cU7Ws+aUI89aJfz9eO5zgrcE6tGviG0cy5p8ST2A36apabe2UmvoJ9Y/zK/J7gBgMRhr4jfM96APdgjD+EXl77NJ1Pl3vS6UB3YPwbN9gr6RWKJUl45zNHizvvW/MWLvD9UBzLEvuSE9PTpXaRzmU93uAxMUlLuNLiTbjGR1i2vpw0S7RojRk6ANv5oq6f+BiTSOvjOnv2dhdpy/ZQKOibP3LgtwC1n5R+XRvLX7PsGLXIalAJgUA+yjDmIT95yXqzZfF/R4gBoPxIADOy6eNSWE305r5Uqli26LB3qYsd3v5guj6KgzorsXdHTUuzyj0snDdr8VI/5cbBNRN5+o1Gz7eUmRPDSeGWBY/p6eb7hRTVq5lAgEgnNaiS4OUsfJ0LSkdDOM+zscfGdzP/EYY78aevcfx6y56vSOeaJ6S9tFqe5q35vVVvCFT/zlhtQeYo2GB6KUgXxqF0pZLTwPzzCxWpRfjl/0WZGbZcCWXHywsiwvp6SbJGbrE99b7Jf0aIEKu7TQS+5j+8nVrp4Ny1GL+06vNayYjNDQEpk+3YtlK15fv9KCiZhixn3ypVAAd4IfPinnkVH7w1a1B8PVExwMPCpDPU4vsyzIuslgQsWOH6Yr3h7J3WvBrgMTGGp8iBDRCuwP5ykXDVbOMXJTPGyK0zx3t8fqrj95kzfyyH2/NXAWzszwHrgojoh49PVszmftE8Mc9xXjzc+4I84SgV1qaKU1EE7Is4tcAEXp3vvA5PW5r6pujUKmW3fR7MWau4k9Z8M7bT6Nr5xbl2J48fQmvTFmOM+cq58tYyJ9NKHIKy2JUerppkVQdyaW8vwOEno7041Lm+tfDZBnril6+PT4rz77U4aKWLSJhWjiS87OiIgs2fPcHPvuKQeZF3+bTFAJIsQXoPZnbXYYQLEpLM42Sy4CXKoe/A+Sv63dt7St2msbW3fKW/C4IbTZg7Mf52HOUP/7O4nnD0a5tY0E7WixWfPfDHqz8Ms1nM4ozj+jHZuaBvmvhoPUMY3pQ6sCUS3l/B8hRANEVlUmPPZeNk98J1uzVZmz4jf/CLbZHW7ydxBtrgnPM/HvgNHbuOoQdvx3CgUNnXB5XobogdGpXF38fuoSsHMebfaE9CG1UYE+VyjCmO1wWrJIr+jtAaNS+2hV1eGsTNRaN9K33qzM7LthQaH9vIUQrTWPQuJFDd5yxvvl5dnY+dvx2EEeOXcDVrFxczcrDlSv0dy6uXM1FcHAQQnVa6IIJ9Log1AwPRoe2ddC5XT3c0iLCzmfI+M04fibHoU1nAKHhhGgwCA76g2FMXUR3QmYF/R0gnAv57q01mJ0gHw9eMdloRw67B08MjPX+8CjOA3KO8bbjKkAmLSvgu2T0u1eEZZXjtwDp23d0cG5uPudREA3MQG9+K5voIyh6U04DMQhRXMwtmPb6//lGXCcAeWr8ZpzgmEGc7UHoMS897nUkNpNhUur5pnOeb8VvAdK795CIoqKgS1wq6X97EF5+uHKdFP88YsWMVWa+jetNsaOb1sNHHzyLkGDvP6u1N+olgMxdY8b6nZz7KzPDmCr/28pF7PgtQAyG4ZGA9SxXvwfGavHCA85v0YssAHXOo24ZniJ6Q578fSEoQJwRvSlPWTQSkfV542s7YyH9cy8tsT5YX4ivt3PvsRjG5LfjzG8FdxcgZfcFNP3BvZ2D7MER6GZUKl25xuLnvcX45tdinMgU58YRUasa5kwfghbNfOyqpABEknmljwZJ7L1XOD7+mfpWq/qcKzPI1+lF+OBb7kdKHZup0baxGs0iVfb4vY1rqxxiUx05Z8OxC1YcOmPDrsMW0L+lEL0MnP3WU6Ag8Tk5AcjTE77DsdOOl5A08+/qSfx3S1SfVK9cpMwgPrcycCOCO+fB/8AYLV4QcFQcsyRf1BLIG93q3q0V3pzyhO/2HBU74aU9yPvrC0EjQyoA8caocYGnO0ssZ3n7XBDHaRWdTovnEu/BgPu7OS3r1QLKEkuSev12ieXODDJgWi7ovsFXRI9xxz1/f+UsqZQZxC0zKwBxS33ClevUDsfLY/qjR7fWXmxFImtliSVJYQpAJKnLeWGNRo3uXVvhnj4d0LN7GwTJLY2VAhDnRixTwm8B4s4e5OHpubiU47klVrUwHbp0ao7bu7aEoWdb0L9lS8oeRJJpFICUUVdM9zYY9kwfUA/ZQxlncfxkZjllBmuDoNcH239C9cGoUT0UHTtEO3VPl2QRbxdWACJJw34LEG9s0nve3hoz3xwsSYEVC9OHTNSrNqpxbbv3rC+osLAYJ09dQvXqetStU124SWWJJckkCkDKqMsdgOzZewxLl/+MP/eWeMpGRFRD/75dMfQp7z6FoG2u37wLly+XvOjr2D7a3ub/2js8kynpqQIQBSDOLgr5jnndAciY8Sk3wVHWAtTXqkXzSElGEVs448g5JIx0fO5NQfL+nARuNgpAxKrXXk6ZQTwwgxw/kYkhw+dzKp7efzz0wO2SjCK28Npvd+K9BRs4i3+6ZDSaNqnr+JkCELHqVQBSUVOuziB0efXC+BROxQ8dfKfXlll0ebV0xU+c7X4wJ4F7maUARAGIr5dYCkAAxRdLEu68X1hOp1gKQBSAeH/ES2xBAQjsp2bKEkviwJFYXNmke2CTTu8+Bg6ey6n6NyY+ht7xt0k0i7jiW1P/xtQZX3EW/nrFy9x3IsoeRJxyb5RSAOIBgFAWXMe8UY1qY+F7w1A93DshiLJz8jFq3MegYUnLknLMKwkDgoUVgHgIIJTN+4s2YvW6X+0cGzWIwJiR99n9s7xJO3cdtrd7+mxJFrpHHuxub5eXlBlEkjkUgHgQIJTV+QtZyMrKs99BhIT4xtXEbC4GvYupUSMU9evVEB4ACkAUgPj6mFeSxiu7sAIQSRZQZhAPzyCStF8ZhRWASNK6AhAFIOUGjKuRFZWLQkm4835h4XuQILzQnz+yojecFb3fYw+14K0ZZJ0Zq3/hjlyvhP3xkO2ksBEESKereOEBDRBSB1A5bpQVgPAHr5Y8g9iKgPzzeH8jsHo3d4RIBSBSRraHygoD5DJeuON8ibOyvgGgqwOo/5tRFIB4ACCWfKDgPFBAM1CweP+nSKz+sxandRWAeGjQS2EjDiBlOOrqlcwoQWFQAOIGQIpyAHMmYC5/OakARMro9UFZyQAplSkkAgPer48ruY5Cuuru7oPueq4Jl/cgwNrR54BC7iSiCkA8ZyKPcHIZIAAGfNgaV/I0DnIoAAF49yChFqwdcZDXdgpAPDKsPcdEMOxPp9I9CHd7D3/UGpdyHQES06MNZiQN8pyQcuTkYlSTOmHFWP3sId4effBzfXy9uySNW0VS9iCVMBDcmUEGL22Bk1cc84cIOvlVQh+90mRRNnDtFC/rgaO/ReblfIfPm9QqxPKhGcoM4hWjeIGpOwB5/oto7D3j6GFLvW9XmMZ4QVoZsSy4ZD+W5SKWBe4c8hWsVsegeh0a5WP+4/ybe2WJJSMbU1HcAcjkdVFgMhxzc9BgcJvXTpFZTz0sTt5ZwMy90abpn/uP+IazwbiWOZjWn3/mUQDiYTu5y84dgMz+vgE2/M19qfXTxiTQ+LoBS9dOAEUlMbQqUsaJLCRM3ML5Wf/2V/HyXZwZ7+zlFYDIbMS4A5CPmHpY+Rt3PvIvPnkRDSJ9mDPQ13rNygCsnMmBsfOvcxg/K41ToiHdLyIxpnwo1rIFFYD42pBO2nMHIF/+HoGF27hzAy58dxhuaxcls956UJwr+wGWO8HoxtRjmLXkN87GqGfCwE4lj7K4SAGIB23kCVbuAOTXY2GYsKYJpxhjR92Ph/t7LtDb4YxzXonTWxqPl+Y7FE22YuAq/13GvE92Y833hznZvTvwBLo04bhdvVFaAYhoK/imoDsAyS9Sod+CtrBxZECgOQRpgk13iUYc2fzDbvsLQxqn941XH+WPlyuxMRpmaOrMVfZ4vPQFYd+7OokLTleYDeTyb7QfHrUel64WOEijVrHYMno/tBr+lBEKQCQa0dvF3QEIlW3YimY4eMExj0dQkAbfrZ0M+ttV4gvHwxsOVEJDfGFORUVwzDsHmLmXSafPX8OTL27ilKRdZAEWP3lUUEoFIBKM6Iui7gJkYWp9fPkH980vzV9+exfXgy3QOL10IFckGv6HhgFyh2iYHxrupyLRN/AUgIKUnQFYuDfoX393CB98+idn9UHdLuFZwwUFIO4Yztd13QXI9iPVMPEb7s34wAE98MJz/VzuUr9HpiM3l3sguhMnSygOVlhYCDatnswvs5P9x8szt+G3vdwXiLMfPoHu0fz7D9qoMoO4PFy8U9FdgNB9yL3z23IK16hhBD5LGeuy4JOSPkP6jv2c9ZtE1cGUCQPRumUDSfwPHj6LabO/xomT9P2FI8X2aIu3k57k5yngYlJsseHehNWgvyuSigCbR++HLsjxs7JlFYBIMqf3C7sLECphwqfNkXGR+2nusiWjEc2VPkBE12gKt9EvJaPYwn2cWqO6Hq++9DCo97AY+mXnQcx8Zw2ysh19pGh9mih0/juJuKVNI352AjfoabtOY8p72znrtqlfgCWDhPcfygwixoo+LuMJgHy+qzYWp9XjlJwm45z+hsA3spP+CsXNLa3av18XPNCvK+9sQmeNbzftwvpNvwu25nSDbikAso9w8rCxLIa+ugXHTmVzfj46/jwe7cx//1FaSZlBfAwAZ815AiB0mUVd3+lvLloyfwTatGroTBTOz+nsQWcROps4o25dWoLOKjVrhNmLXs3Ktc8Wv/3OfSdRlh+dNejsIZhuWmD2+D79BKYtKokGWZHCgq1YO+IQgjXCyytlBnFm4Ur43BMAoWInp9fFpzvrcPag/a1NsOCdRJd7R/chSdO/QlGxxWUeQhW114+ikyY/Brr/4CWB2cNiteHxMRtw8Yrj3QflN7RnJob24N7zVGxPmUG8YmLXmXoKIFkFGjzyUSsUW7lDhM2e9hS6d23lsqB//3MSM+auuRk712VGFSrS2L8TX37YuVuMwOwhdLRLZw06e9BZRAwpABGjJR+W8RRAqMjvbY3E2j3cETmaRdfDJx8+71bPzpy9gjnz1mH3X843u2Ia6tShGcaPfRANG3DLfJOHwOxhLrSAPo7KyS3ibJLuO+j+QywpABGrKR+V8yRAruZr8NTSFsgxc7u5G4f0xtOD4t3qWUFBERZ9/B02bdnNe7rlrAG6z+h3TyeMHHYvdDqts+KAgGt70vwd+GnHSU4e4SFWfGY8DPpbLCkAEaspH5WLj3+mvtWqPsfVHPU6LYmLJZ62HQ7Ha+sb81aYMXUQYrq3Ec+QpyS9Yd/0/W47UHKuca/9K1YNr6azA6Pf3Z24M9dytZWfCRRwu6d/ufEgFq7cw9uX1/udRp+23KdafJXm/RSJNUpcLLfHh8cY3HLLo9qIiPBCLob01pfe/kqlpA2N8NPB6pzV6Df2x/NHIKox94ZealsXMrOwacufOHEqE8dPXsSJExdhtZWcFqlVKjRpUgdNo+qgSeO66HdPR9Sr6yStQVkBiq8BOdz9/2PfBbw0Yxvo8S4XdY7Kw3uPHpfaHbz4dRP8fqLkFK4CXWYYE/fjG8mt+L6C3wavpqoyGIz0ay68otr0Whu+SDyMGjppp0fXzGr7UutKPrejYsMGEUheMAKhofxxf101IQXHyZMlwdiiomrbQeIS0bceOcc4fa7OXMjFsMnfIzefO4ZuSJANK4dmoE417s/55KH6eiK5JczFnDLvZRhTB5f6IoNKfg6QxFSA7cWlx7vaZuO1fs7vICrWFfLRomW7dWmBudOfloHpeETIOwOYrzp8SDflw6b8gBNncnhlH9f7HB76H/d7daEOT93YCFsPcM+8AD5hGNNQ+SpMWDK/BkhcnPFllsUcvi72bHYNxphMRNUqsl920W84i42U/Fhx4zdBsf3v0v8nmJ9aHwfOO7rCl7ZD34wkTXoMep1j6KBKHQj5F27Eyi0vxeWsAkycm44DR/kHf/uG+VjwBH/Ukor9KrSocPKKFh8y9bDrOOfSyl6FZfFYerppVaXqxY3G/RogPXoYa2k0oFZ1WGa5oRNRVeleZO70Ic5Tnoni5oFCeecd4uVSrgePXcWrcxhQkFQCnQ0L0zfbvHk+516xEuSR3KRfA4T21tksIlkjEipUC9PZ/bX+176phFpeKMpzGSjkRuIFKRxY+vvsQTvk9wABklQGw+ktANvHF0av2IZarcLoEf08+o5dUj9yTwOFWeWq0BOqxZ/9BXqcW3nELmWYlITKa98zLQcAQIA+fYZXN5ut6YTgVs+oRTqXTv9rhlHD70XL5hKCKEhv5r8a1kKA7jloOoIy9MufZ/HR53tx7LS0ewx3RKlYl2XBpKeb4jzJs7J4BQRAqPLi45+pYbWqN9Cgi5WmTEIQb2iH4Ql3oWGkEzcQd4QsvFoCDtt/x9h0A75o5R7s2S/OudCd5p3UXRcWpn/cn/cdZfsXMAAp7VRsbMJDhKhGVtaSq1QO+tYjYUhv1KrJf8IjeZBSQFBgUIDcIHq3QZdT9NFTZRIhZC0hWLxtW/IPlSmHp9sOOICUKigubmhjliVPEELasCwaAcRDZ7IsDagleldOl17du7ZEj26tQZ/bukx0KUXBYS20H9f+9td50OXUvxnOHzOVafMgQKT54PAKzNJjsVMA+7darfk8NXVJ+ZRTLndUXhUDFiDeVLPBYKR3Ly9LbSOyfk3QO5RunVvYXUdqVA9F7QjHINpl+V44cwrZFzNx5mwmduw+ix17ziH7mkunppMYxjRDqsxVvbwCEBdHgMFgpHud5QCiXWRxsxq9cKxRo+RFocViRVZ2HrKz82EulObywSUHIdhjtaoGb9/+8T/uylkV6ysAccPq8fHPhNhs6udZFpOuR76RW8TrgyzLvh0ZeW3iEjDvAAAPZklEQVTlqlWrxPutu6GPQKyqAMQDVr1xgjYRwAsAPO/JKE3Gy9f3GSMYJvlradWU0pwzsKIWz2nAYEgYAZDFnuPoGieWRf/0dNO3rtVWapXVgDKDeGg8xMcbW1itoLE7PXiu66pwhJ4wdWeY5L2uclDqlWhAAYgHRsKN14008wxvQN8O0WoUW4F/T7q+HWjZQI2WDVRo0UCFK9dYrPiZ+z35jS6ds9nYLtu3p/CnhfJA3wOdhQIQNy1sMAytA6i2AeCNvfNwTy3GPvjfNcyhM1YcPGPDhSwbruWzKCgC8gtZ+49WQxBRjSAinKBmmMr+7/o1CVo1dHwvP3JRPvad4AccPcHKy1PH/PHHEu6QjG72vSpUVwDihpVjYxPjCWE/AsAbF6hhhApLx+kREuR5VZ+8aMPguXnOenCEZTHRn99kOOugNz/3vNW8Ka0XeMfFJUZbrbaGajWaAKrGLMtGAWxjQFXmBs9mZlkVk56ePJ2KEBOT2F2lYulF4SPORFo8Uo92TbyXFHRlahE+2izm4pBss1rJ2MJCckivt71ECNuDZUmZXNhsIcuSU4SwJ+lvlQonrFbbme3bUyrTJdiZer3+eZUESIm/FhkkZoBXsEDq9TBa9G1pRzGWeWVgCO7rGiSmqFtlpn1ZhO93iwGJvRnqasKdoJFHCpbFz4TgM7U6+IvU1EXCeRDc6on8KlcZgMTEJMQSQgYTgkcBeNHVFiAEmGDsgPs6q4HCS+WcCz06BEIigJB6sIXUQ9KiP5G6kz+9mmfapadj7DpCyPJ69bK3VIULyIAHiMFg7AbgcwDNPDNInHOZMKwr7r+jTHM0wqH5YsmTWJqnw+ri81dVEBAUBoTUAXR1gaDyL43f+OAX/Pyrt0FS2n82kxDVc2lpyWuca8R/SwQ0QHr1GtbVZrNx5zX2gs3q1NJj0ohu6Hwrd0qFm01St3Uau4r+ULDQ7E/0/1j6YwOIBlDRn6CSf2vDS4ChCXUq9Yp1+7HkS99dfxBCHglkkAQ0QGJjjfMIwRino8oDBR64sxlGP9URIcGuJ//0gBh2FifPXUPSB78g40T5p7ie4l+WDyHYnJZmcj1fnTeE8iDPgAaIwWDcLXZD7apO60aUzBqd2jmZNVxtwI16W3ecxLI1/+C4QCwsN9iXrTqMYUzJHuIlKzYBCRC6IVepyAIAghH96mgJYmtq0LW6BtU1BGFqIMz+m+CxPXnItvDnBe/ZsQHuMTTFHd354/nKxdL0tSEFymGeGaVmEMEXHULt/c23ssi1ApeKbNiZbcUvVy2Cevivj2QbIZZhaWmfOM/6IxfFiJAjoABiMAyPZFnrXEIgmDutY7gaiY2C0ULPH95z/MEC7L3GfUu9fE5fNGno81BcIszJX2TvwUt4fupWzgKdw9V4uxV/oLx9uVYsPlmIjHznmaYIwaC0NNNnbgkro8oBA5DY2IQ+hBB6oiL8RA/AY/W1MDYSTh+w8GQh1mdyP1h6MaEzBvRpISMzOheF5kCnCXO46PH6WiQ40cesY2b8dFlsrGMyj2GSxzmXSv4lAgIgcXHGMSyLd2hgdDEqFwOQHVkWJGVw5zrveEtdvD/lDjFNyaIMDeT+0Mh1uJLN3Z85rXVoX01YdTOPmvHzFbEAsYccZYKDix/auvVTSY/mZaGwMkL4PUBiYxPeIIQkSVGsGIAU2FgM2M3v57TuwwdRM7yy30aJ6zVNeTDubeoE4Eh0v7W6o/Pj4xlHzUiVAJAbLf0THKyO+fHHJZUXpEucinhL+TVAXA07KgYgVGPTj5iRdpX7W5Me645P7Oqm+n1T3Tjpexw+7hjxnbbev24QRkU5D/gy/agZadIBQptIv3w5p/e//64S9M33jSakt+K3ADEYjDRx4HzpXRa3B6F8f8+2YvJh7ltv6k7y0Zt3oU1zr3qtuNK9cnW2MMcxffFOXj5L2unRROc8F8m0I2YwPF8WIoRczzCNHwKSnO/yRTDzZRG/BEhMTEJflYpsElKU8dFbsWrzIc4klWJnEMrfuC8fp83cdm3TrBaWTLvLl/aS1FaB2YInX9zEG9mdnubNFDi9KtvYW0fMSOcASHiYFn17RTuNA8yyeDU93TRLUgdkUNjvANKjx5CGGk3QPgCcOck0ahUmj7wdvXtEoV/iGs5sSlIAsuVSMd49zu8p269XNF59lrp7yYuKiq32VGt/HeAPRTq7tQ4dnGzOS3v15hEztvMAZMOSh2BatQ/L1gpGFioihPwvLS15v7w0JSyN3wEkLs64g2XRnatb1M1j1ngD6CkTpfuHr3V7BnE2i9DPqYvJo31dz6XujQEzflYadv7FmePU3pyzu4+KMk3NMOOX6yd7FYnOIBQglFau34+PvuD3A6MvHNPSTKKeCnhDJ67w9CuAxMYaRxKChVwdrV1Th3cm9kJ0o/9SgXkKIP/kWvHiAWEP3EnP3Y57DaIjkrpiK1F18gqKMXX+Dvy6hx8cWhVgujUUdbXizU+PvOnRtxBA6Gd0WTt/OY1dwUuvMIxptqjOyKCQeA1VsrB33/1UaH6+9sj1AMmcTk+fzLoXzRqXz5PnKYDQri85VYjVF4QjHfaJaYLxxi7QhVSOwyJNeTDpnXTQgNZCND46BH0ipMn4RoYZv4oACG13bvLvWP/TET4RLqvVwU395eGV3wAkLs44hWXxFpfWhwy4BYmP3ebw0X3D1uJanuPpopQ9SFmmkw4V4I8c4agk9Wrr8fzgjujVrZFPv1JWbzlsj/JO9x5C5GrfXztsxm/ZjjNItVAtNn5cssQqJZpFd/BLm3gvJgnBa2lppmk+VZCLjfkFQDp3Hh6k11vpbtMhlWrDemH4dE5fBGkcjyo9sUkvq9cCK4sXDxbgqAifpKYNw/Fk/7a4O6YJVCrvqJmeUq354bB9WXMli/uWvKz8vSM0oLOHK9LQ42567F2RuABCy1BPYrrU46EstdoanZr6iff98V0ERmk1V3TlZpPSqxsMCY8AhDOU5sKk3ritFXeeek8usUqlvmZh8dLBApwoEHekX6t6CHr3jMJdMU1Aj4U9Qbv2nsembcewffcZmAvFxdnqVUuDSc1cv/mffKgAv3PMnmU36RX7NmF2Gu9eiBDyfFpaMud+0hM68hQPPwGIcSMAh0c5XW6rj3cncqZJt+vHGwChfKlLOL1Z5vpGFTJMVINwtGpaAw3rVQOd+SLrhoJ+A4fpg+y/S/cuefnF9qUh/aGpDs5cyMOZzFycvZCLfYcu8S5d+NoeFKnFkIbCzpnOBhTf8lIIIDR3yYjXf+Rjnc4wJoOzdiv7c9kD5Ma9B2f6JGcnR94CSKnRlp0pwmfn5OtBoVcTTIgORo8a0jbkXINy4qEC7JY4g1A+j4/ZgHMXuX3aCLFFpaUt9dUjepewJnuAGAzGRAAfc/Xuu5RHoBc4MfI2QKhMdNkx+6hZ5KMil2zkUqU2oWpMbh4i6ShXqKFXDxXgTxcAQt/H03fyXEQIeTktLZl6YcuWZA+QuDijiWXhkE6YnhK9NVY4X6enN+l8VqSb9+Vni7AusxgCjxB9MghqBREMbajFXbWDXNqM8wnJ94CMb5NeyufoqWw888p3PGzZLQyTcq9PFONiI7IHiMFgpG4l7Sr2b9q4GMR1FT5K9RVASmW7XMzimwvF2HSxGLlW/ue6LtpKsFq0ToUH6wWhT0QQvBDlFC8fLMDfHC8snQGECv30hO/40lJnMYxJbomHyulZ1gC5/fZB4VptCOdbgjUL+4PengsRP0CCYGzk3MXb1YFcaANSrxRjw8ViHMoTd9rlSlsUCPRN/f11g3ArfVDvRXrpQAHo09uKJAYgc5J34dufjnJKp1ZbI1NTP/FQYlHPK0DWAImNTehACNnD1e20eU0BXR1A3wBQcx9f8u1BBuoLkFCPgOhDodIJg8xdlVNP4F3ZVvyeY8H+XBvy3JxZGoao0C5Mjdurq9G5uho6L92xlPbbVpAPW24exp/V4N9ixzCqQqdYNCMvzJlYuuYAlm6+wqlKlYrtuW1bCu+Fibv6d7e+rAESF2eMY1nQ1ALlKFxPsOGNMnlqgmsC+sgSsKj+O87kBYguH0/rS9wxiFoNVWio/YeEeBcstL1LRSxOmW24Uswiy8Iix8La/00jitC9DKVqGoIaNA1CEEH1oJJ/19YSNNOpQf2ovE02c4EdFLa8XMBWMgNOyK6J/RYRALHRXA7ngYLzJZEkAazfWYy5a/guMskAhkle5+0+ucpf1gAxGIwDrofuWVuxc41rq7ByPM8zURqNkIJEpUW/SaeRy3GhN7AMQMrxJsQOGGg0IGoNiEYN3PhN/y75f3VJ8F1/JJYFa7UCFgtYqwWsxQrc+E3/Lvl/q/1BeUV6ObsmDnIApJpehY3TGwEUGPYfR3+17fstmPgJn7MnO5xhUjhPKeWgYllb2mBIeAYgSysqqn1TNRY8VyZyP48m+yXlIrfA0di8AJGDRWQqw0vZNXGICyA6go1JwlnnDpy2Yvh87hw+LEumlKaVkGPXZQ2Q2NjE4TcS1JTTXZeWGryb6Hw5dF9SLq4pAPHIuHsxuyYOuwgQmknr0Rm8ATDeZRjTSx4R0gtMZA2QuDjjsyyLDyv2u0tLNd5NVGYQL4wHXpbjsmshw+J4I19NxAxy9ooNT8ziu01nP0hLS/FJ/GRX9OVTgMTEJFTTaHCr1aoSecZqu58Q4vDt0qaRGs/d55wFXffSvH8VKS7YjHuDnXu/uqLQQK2zIK8azlodj5L1wQQznhGezS9cteHtr3j1vZpl7WFinZJabSu0WLBv+/aUa04Le6iAzwBiMCSsAshAD8mtsKnSGmA/Z5gUwfCynlKPTwASG5swhBCyzFNCK3wUDbAseTI9PZkmRvIq+QggicmEsEav9kRhXtU0sJhhTCO93WmfAMRgMH5BPZ+93RmFf1XSgG+WWT4BSFyccRrLYnJVMp/SV+9qgGXZpPT0lKnebQUe9YjmlTU+/pn6VquaZnuK9HaHFP5VQgOntNrijr6IHO+TGaTUZLGxw+4nxHYbIcT5GW2VsLPSSSkaYFm2kBDyV1pasmDYWSk8nZX1KUCcCaN8rmhAbhpQACI3iyjyyEoDCkBkZQ5FGLlpQAGI3CyiyCMrDSgAkZU5FGHkpgEFIHKziCKPrDSgAERW5lCEkZsGFIDIzSKKPLLSgAIQWZlDEUZuGlAAIjeLKPLISgMKQGRlDkUYuWlAAYjcLKLIIysNKACRlTkUYeSmAQUgcrOIIo+sNKAARFbmUISRmwb+H48VKebQl5yXAAAAAElFTkSuQmCC;" parent="1" vertex="1">
          <mxGeometry x="2351" y="1070.44" width="41" height="41" as="geometry" />
        </mxCell>
        <mxCell id="BStY4UZLv6UZcWrJa_nu-129" value="&lt;font style=&quot;font-size: 16px;&quot;&gt;Please expand the given sentence by generating n previous and following sentences. The generated one should fit the context of the given sentence and flow naturally and seamlessly. Additionally, use &quot;Previous text:&quot;, &quot;Input text:&quot;, and &quot;Following text x.&quot; to denote the expanded previous sentences, the original sentence, and the following sentence, respectively, with &quot;x&quot; representing the generated sentence number. The sentence that needs to be expanded is: He wore a loose-fitting red shirt.&lt;/font&gt;" style="rounded=1;whiteSpace=wrap;html=1;arcSize=4;fillColor=#ffe6cc;strokeColor=#d79b00;align=left;" parent="1" vertex="1">
          <mxGeometry x="2010" y="1071.44" width="340" height="240" as="geometry" />
        </mxCell>
        <mxCell id="BStY4UZLv6UZcWrJa_nu-130" style="edgeStyle=orthogonalEdgeStyle;rounded=0;orthogonalLoop=1;jettySize=auto;html=1;exitX=0.5;exitY=1;exitDx=0;exitDy=0;entryX=0.5;entryY=0;entryDx=0;entryDy=0;" parent="1" source="BStY4UZLv6UZcWrJa_nu-131" target="BStY4UZLv6UZcWrJa_nu-22" edge="1">
          <mxGeometry relative="1" as="geometry" />
        </mxCell>
        <mxCell id="BStY4UZLv6UZcWrJa_nu-131" value="" style="shape=image;verticalLabelPosition=bottom;labelBackgroundColor=default;verticalAlign=top;aspect=fixed;imageAspect=0;image=data:image/png,iVBORw0KGgoAAAANSUhEUgAAAMgAAADICAYAAACtWK6eAAAAAXNSR0IArs4c6QAAIABJREFUeF7tfQmYFNXV9nuqh0FwZVjcV1QQjcr0oML0IEbFJTDdwAyJUdxYjPoZNHGJyfdF/PIncUsimkUFNEHNZxiWqYaIYoyErgaVrkaNEhDBfWGZURIFHabr/NYMKCLdXXXrdldNz63n8VGfPufcc95736mqW+eeQ1CXQkAhkBUBUtgoBBQC2RFQBFGrQyGQAwFFELU8FAKKIGoNKATEEFB3EDHclFYnQUARpJNMtApTDAFFEDHclFYnQUARpJNMtApTDAFFEDHclFYnQUARpJNMtApTDAFFEDHclFYnQUARpJNMtApTDAFFEDHclFYnQUARpJNMtApTDAFFEDHclFYnQUARpJNMtApTDAFFEDHclFYnQUARpJNMtApTDAFFEDHclFYnQUARxOeJHlhT3xuZTPcVS+e+6bMravjdIKAI4tOyqBwSu5SI60E4f7sL/wJgEHNDKhl/yie31LC7IKAI4sOSCEdivwL4B9mGZsZv0kk96+8+uNxph1QEKfLUV0aiMwkYl39Yeso0Gofnl1MShURAEaSQ6O5iO1wdvRWEnzoeknGvmdS/71heCUpHQBFEOqS7NziwJnamxvw3geGuNg399wJ6SkUCAoogEkDMZyIcntSFu61fTMCQfLK7+50J56YT+pMiukrHGwIdliCVkVgYsEbuCF8j2gymFRnq8sqKRMNGb7DI1Q7X1P4CTDd7sapZ1inLl85f7sVGsXRPPi12RFmIB1jEp+wYk0AbOMOL0svirxXLDxnjdCiCDBoychCTVs+EEQCOywYAgxcSaQszITz8wuLGj2QAJWqjMlJ7LoEWiurvrKch1He5MXedDFuybQwaEjs5o1kxAp0L4NQc9p9l5rlWRmt44dnGN2T7IdtehyFIOBKdC2CUSwBeANGtZqKx0aWeFPFweGR3dNNSucjscqC12KM8bP6tYbNLvYKKV1bHriXiWwDs52KgT0D4g5nQb3ChU3TRDkGQcCRq35b7CqPD/EszGf+xsL6gYlUk+lsGrhZUz6JGC0yj8YtHS7m23VkLn1W/L29tmUGEMe40d5ImLDIT+jnC+gVWDDRB7AnApy3vA+jmFQcCHkoZ+uVe7TjVr6yuHU1Ec5zKu5Ij+pOZaLzUlY5k4crBtUdrGs1kwmDPpgmPmgn9Is92CmAgsASxJ4BCZD8aHS8rbiK+O5WIXyfLXjY7Jw+L7Rdq5ZUADizUWH5/bQ9Hos8AGCYrPgbfmjbiU2TZk2UnsASpikQXMmC/8Mm9iEaJvJOEh8SGg/jENsISjnDglLTFk20sYiyBhi5gdGGgDECXnf5p/39q/x1tv1MXgLsQYRkzVjB4ftqIP+Eglq+IVEZqpxDIfueQerFFl6WXNv5RqlGPxgJJkKpI9GIG/uQxtt2qE5BKGfogN7YLtSDc+FAwWcJ9ZkK/0ql9e7fK0niFU3lXcow3Mhk6I0i7W4EkSDgSfQ7AF3vorkB2IMzE49KJ+CMORBGORNcD6ONEtqPKMPiOtBG/yYn/VTW1v2Gma53IisgQ8LuUof+XiG4hdAJHEPsDIIHtrdGCXQz8LW3oZ+cbIByJ3Q3w5HxypfA7a9qZ6SXz/p4rFvsDYKis7e7hZjvXLTzvmoZ+iFulQskHkCCFeb7dFUDWrDPTS+ZnXRD2QSaNWzYUCvig2SXGslRSz5kKU6xHTQKdkTIaFwcBo8ARRPCDoACWPNY04g3ZFKsisWEMtndqinDRGoDfAXBGEQbb/RCMlq0flu+9cmVDSzYfwjXRR8C4sAg+TjYN/Z4ijJN3iCASxNtHwbwhtwsw6Iq00fhAVoLURK9jxq8dmvMmRplw6LMub2bKMy8DdIA3Y+LaFvOgFcl41sfbcCT6bJ40EvHBv6LJM0wjPkGSMU9mgkgQ9hSRc+UfmYZ+e447yAUM/rNzc6KSNNU0GtteeiurR55GpC0TteRVT9Nw2PIl+ttZ7yCRaBOACq/jONBfbBq6f3fTnRzstAQh4ptSifgdWQkytHYgW5R2MJnCIsy8PJ2Mf2W3rioSG8fgmcJGRRUZb5hJ/chc6uFI1M6S7iU6hAs9RZAcf6WKcgchpgmpZOOMrH60JxrahRQOczGx7kQtOsdc2rhoV6VwpPZnAP23O2PepIlxZyqp35iHIAaAam8jOdJWBMn6l7s6ulRKfk+eeWDmMelk3M4QznoV8q95vtSKqproY8z4tqPl5F3I0dZquDr6EAiFzwHzKbl0dzAG7hGrWFuJbFlnppdm3+bdAVZh/OFrTSM+Nd+6rorU3s+gSfnkvP7OxCelE/GX8tkpDBZfHzVIJyiDR5Ca6DnEcJ0flG9yv/o7G6YRr3GqU1kdrSHCNAD9nOpkkXuZQHekjMaHndqpitRezqCsj4JO7WSRS2gIXer0EFZB00y+cJA3lm3bdvRzzy38t8fYpKgHjiB2VJXVseeJ2FW+lBs0RJLiTjxx+J5d9+o6IIPQ8dAsJ8mKX7ikQVvLFpaaSxvXuvFzh2x42MhelKF+YPSzJLwTaQx782F1Khlf7dafcE3saTB/062eC/nfm4Yu+QyNi9F3EQ0oQWpvIKKsO0zi4bZ9AMm7W+PJfokrhyPR7wJ4tFBhBukruh1jIAkyYEB9ebeKliWF+iilsXXC8uT8Vwo1yaVsNxyJzQK4vhAxEviBlBG/ohC2RW0GkiB2MOHqEYeBQvYjiX2uQfKlqhaKADrw9FGDtYy1VETXgY5pGnqVA7miigSWIG0kiUTt6hh2eoP0i5jOTyUbpVQbke5cQA0WMtXENPRArsVAOrXz+hhYc15vjctnyTzeud3+atPQ+wd0LQbOrcrq6LeJ8FgBHJtnGvroAtiVYjLwBNkRZTgSvQ3AD6U+cjFfaSbj90lBsoSN1NfXh9a93/IWgIMkh3mbaeieCupJ9udr5joMQWzPq4aMOoFD1iWf70TZX3Nl5ARttajl8BWJhYGqxFjoSXdrP1wdvR6EO93qZZF/G6C5lmbNXbEkbm/EBPrqUATZgeSpw0Yfsm1bplojHM2Mo0GwP/qJ1c0i+qWZaCxozaxhw4aVNbf0qOjCrRVaF60iY1kVGkI9GFYFmCpY4wqy/w3uQSCLQesJvIGZ1muE9RnChlCG1mdCZeuLXVb1lKEjj8xYmnA1RwLmM2gdwOsY2rpPy8oWr1zc8HGgWbGTcx2SILuCWxmJjiIgZ15VrgnJdw7C7WQOGho9lBmnsoWhIBoK8ElubeSQt5M51wO0/vO8qDcYVjJElPxkU3kq12En0fHDkaidEiPUgmF32cqifvilVxIEscGrrInOJhas8OexcFl4aPQbZPEgC3QKMZ8OIj9e/m3i2Nm2SbIo1WrB9FodZFDNqNMttsSPvjJ/00zGi3QqszAUKhmChIfE+kJj4crhRKhPJfTZTmBuKwyXwQXMPJRgVzCno5zo+SDzChjLCWRmYD2b67Tg7nwLR6LzAMSE/Pb4R0dozAIolQxBbGzC1bH/AfH/CuKU2Lx3y9mvLVz4WTb9gZFRJ2mwvgPATrco3DkRwQDyq/EsRujhtDFvQT5Zz7XJLDpaNPcsn2/F/L20CNJ+yMlOxBPMuqXrTaPxV7tOQFV1bS0T2WczbGJ0+MuuyGhp/EiXlm1/2V3W7PbSqXY3rLBQsIRbzIQu+odKaMhCKZUUQWyQqobExrDGjh6VdgPqWyFoZz9vzHt1YHXtQZqmjQFbYwGKFGoCfLb7KgiPotWaZS6bv2qHL+FI7X8D9DNB394qz3w6cNmyJ5sF9QOlVnIEaSOJh9N4TPxbYq0F4LqO+RgltL7+w8CfifkvrKGJmOw+7ULVJAm4JGXoxT9TLxR2fqWSJEiBk+ryo9qBJZgQJ0atWAillwRakgRpe2Gvqf1fMP2P2EQrLREEGNpIJxsAIrb90ilZgpw8LHZEqJXt3Rpp/UX8mqSOMC4D96cN/XsdwVc3PpYsQbbfRa4Ek+ox7mZFiMl+SsRnpRLxpJh6cLVKmiBHn3de130+Lp8l/kwd3IkLmGeBz8oVxaukCdK+ozUqymz50uU2z6TYRaI3ALShLTHR/m+y/7/t3HwfAvowqA/A9m6S/U+56CQXWO9l1rSx6SXz7CJ7JXeVPEHsGauMRO8jwKezzvwiQK+AeC1ntHVt/wavXZGMv+dmNdnfZQjUF0x9KWQdZf8b4OMBkpkI6caldi4T35hOxGWlwrsev9AKJU+QqurYfzHxvYUG8gv7hNeY8bRGvJhCrYuXL378g0KOPWjY+QdwpmyYxTSMCGfCTv8v0kWEJaFyHvvc03G7C1dJXiVNkHBN9E4wri/CzD3H4CfA/EQ6Ob8gZ+idxmBXiAfRuQSyG6DaZ/oLepXq7tUO0EqWIIUsT7MdvDZSEGihaeh2T8XAXXbRCwafVwSyPGkauvyOxAFAtCQJUtgmoPQUCL8XaSXt53yHa2IxMK4COG9vRkE/X8VWa6Bpzt8iqB9ItZIjSDgStZ/595eNNgNL7Q6spqEXoamObO+/tGdXRmTgagJy9iMU9KAFFg0ohTT3knzECkei9l+vboKTm01tJRPfnU7E7eLVJXNV1tROpPZ2zgNkB8WMoemknpBt1w97JXMHCUei/wRwgkQQt4D4V5mQ9usXFjd+JNHu100x07j1i7qHum7pYv+Y+az7tof3H74FRAVtJtR+MtL6AZjsckrdZcaYr52bzLEKaaskCOLpaOju0Z1pQfv1CmPei7LAH79h1tEc0k7SwAOY6RjScHhbnSlGbwD7ZhlnMwgbwXiPGW8S8RoLtJIy1osz+owVPl6861jbT0r+AMDFsuK1eb4Hc49kMv4fiTaLbqrDEyQcid0N8GRJyL3OwA/Thm6fxfZ0Tdo0uz+H6Gy2eBjA1QBJfi9iu7JJkpgWE/ipB3rVfXHgSdTx7dVh7BOVOXsVOrVPQCpl6AVrY+HUDy9yHZoglZHa2wmUs6+ec3B4QQihH9qnCZ3rfFVyfPPcEzS26plg7xidKGpHSI/wEjEaLdIaZlSMflnIBoBTIqOOzSDzK4BGiNrYWY+Ah1KGfrkMW37Y6LAECVdHbwXhp5JAu9009B+J2rp806xLQxQaz+BAHM0lkJHhzIwHe439o2hM20u93iSq/xWSEN+dSsSvk2Gr2DY6JEE8V9zYCWUmGpdOND7iFvhxH8zcs2tZt8kgugbAAW71iyT/AZjv/ax169SHD7j4E7djVtbELiJmx+3ictnP17TUrW/Fku9wBAnXjKgEh56UU5uXx5pGvMEt2BOb59zMzPaj3X5udX2S/wjMd07vVf8Lt+OHI7X1ANnV9b1fxCPMRPyv3g0Vz0KHIsj2zlN2g88zvEKkAWcvN3S7tI3ja/ym2Zd83pNrCgGuehQ6HqDAggy8AcaUGb3q/uRmqEGR6FkWYBdy8Hr9c5ulnfXS0nntaf0d4OpQBAlXR+8BwX6k8XRpCPV12tnVHmjCprnHQbPuAEPKi6sn52UoExbA0m6c3mu04zMcgyKjj7KQEWpCurPLDHowbTSOlxFGMWx0GIJURkZOImj3ewXFbSejiR/OucayeCoFtJ+jBzyYNJo8rccYV0cBwpGo94+XRFeZicY/ePC9aKodgiADh4warGmW/d6xtxdktlna/k5v75dv1PcOaa0PMNguNVqyF4Eey1hlkx7sHXX0Qe/EIaP6dNEsb+c/GJst8FluawX7MQkdgiBVkehCBjylU5OlfSO1dJ6j7wPjN887hVoz9hbpcX5MSvHHpH9xmXbpjH1HPe9k7LZGRpplp/YIXwz8LW3ohcosFvZrV8XAE0TGlq5FdNaKROPTTlAb39RQTyA7Y7cA3XWdeOCbTCtD++6MnqMd7eoNrImdqTG72uT4emR8rWnE7f4jgb0CTZD2XattywCuFEXQzXeO8ZsariKi34mOVQp6zHz1jF71jkolSfhO8vo2SzvN6WOvH/gGmiASeuM5/kI+vqnhegKVbPEBN4uLwTfM6Fl/lxMdr1/cifGLVFL/iZOx/JAJLEHsPoStrZllAA4RA4YXmEZ8pBPd8RsbridNkWNnrNjiG2b0dkqS2vkecrc+IUs7zen7oZP5lCkTWIJ4LLjwegjauU4SDyc0z77y8zpUjh4pZALfIWwRrppeUZd3O7Y9wdGyP+CKZQETppsJfWIQMQkkQbank9h3D6FiaQyMdpKyPqFpTt3ntaUcvZQGcfKK4xPVT+85Jm+/Fc+NVF1spBQn7vZRgkkQD51VAcw0Df2SfCBO3DRnEGtsgMVImM9+yfxOaCGLItN6jVmeL6ZwJGqnsAgdurLbLqQTejTfGMX+PXAEGTjk/MM1rcsLgomAWyxoQ/KdBGzLxO3S3S7Voyq/O1txr3y2bcup+TKCt59MXCp8fJe1GjM5z+7UG5grcATx1P6L+GdmIp73jMiE5jmPgPnCwMxCR3CE6NHpFWMuyueqt74s/AfTiF+Vb4xi/h4oggweXN+tJdRi3z2OFQBhZaaMqvMVWJjYPOcqZu7U3zoEsG1/Hie6elrFmJwbGtsbgNptENxXS2FsBjInmskFb4n6KFsvUASpjMQmEVgoIZGJJ+UrzTNx42PHslZmp5u0VQ9Rl2sEtpHVesK03t/JeSx5e0mhB1xbtxUYN5tJ/TYh3QIoBYog4UjUfv6sdhunXdQtbeh59SY2z57HjJhb+0r+SwSI0Ditom5UPkwqI9GkYHG6f5qGXtzz/DmCCQxBPG4TXpiv4uH45jnfJeZH802s+j0/Akx04YyKMTkrTNoVHAGI4p13PvN7KUciMAQR3yJ01ll1YtPsVxk4Rg5sndsKAWum9azL+54YjsQWCdYC/qtp6IE4nBYkgrwtlFZCNCpfIekJzbNvAOOOzr2sJUdPuHF6RV3O3LX2gtksUmOsVdNw1PIlur0mfL0CQZDwkNhwaGwfiHJ7PWca+mm5lK5Zc0/XrRUHvgNQL7fGd5b/ZPUmND/9Gra81owta5uwZ7/e6Na3AvsOOgT7VB7kxXTBdAvrM2/q1rznIfcec/5nuQIIR6J2vxTXfUqIaUIq2TijYOA4NBwMggg2unFSSmZ885wbifl2h3jsVqxp0Rq89bvsfXF6nXssDr3S9Rrw4lJe3WL4zEQ3zagYk/POXBmpnUKgW/I6vIsAA4+lDf0Ct3qy5YNBkEjMFDzzcVq+5jUTmma/A+BgUeDe/LWB5n+8nle997f64ZBJp+SVK4bAuv/3DDYvt8POfR14wUk44DueNozend6zLme2td3EB4D7rluEJjOhe7rr54vfye++EyRcPeIwUOhNJ87uIpP38Wrih3PGscUzBWy3qdiLzF5sTq/Dr61GxRlHORUviNyGxpV49yHTse1jbz8Xe/a362eLXaTRxdN6jMlZXE70MQsWnWMubVwk5pkcLd8JIlqthMFT0kb81lwwTGia/Q8AQ0Wheuu3y9D0lPMi6t2O6IH+U/3dfFl13V+xdV2z45BtQtvE9nAtmd6z7vRc+pWR2lsINMX9GDTVNBrtHia+Xb4TpCoSm8Pg0W4RYLYG52qYeVnTrAEhaK+4tbuz/CsT56Flw8euTJw06wJoXf05zm591ooXx/6fK3+79OyOEx4c40pnV+EMrOMf6jl2ZTYjdmNRIs0+vuDyojWm0Zh3O9mlUVfivhMkHIm6395lvGEm9ZyHcyY0NdzyeTa/wF+tdvy2vvkRVn1/viswbeF+d52P7sf0dK0nQ8HeXVv9g8ddm+p/9wh0O7KHa70vFXjK9J71Oe/m4ero6yD3FSktaumzIrFwowfnPKn6SpDwsJG90Kq5D57wqJnQc2aWTmhqWAHQyaLofPzyeqz5ifvH32N+Phx7nSC5FYjDIHz0+YXpPesG5nIzXBN9BAzXGdSWxqevWBJf4hAC6WK+EkS45ithopnQp2dDY3tS4movaPm42ITd9tNnslr75UpiDNdEJ4Dhus8jMb6XSupCCazCQO6k6CtBRKuWtGYyh7y4bMG7WQkiIaXdz8UmOrF++pwvFf6kwSMOLguF8u89fy14f1/UfSVIVXXsYSbOewhnF8xeMg39pFyLaELTnFkA14suNFvPz8Um6re/PlPD9J5jxuZ8zIpE7Z6P7j68EBaZCf0cUUy86vlKEMHOtH82DT3ns+yEpoZ3AfKU/+HvYhObVn995vem96zP+UE2HIna2b12lq+b623T0A9zoyBT1jeCDBs2rOw/rftucx1MnmO13/tw3hGtVib/p+88A/u72Fyj0qbgt89lWujI+3qMeiOb96LHcbeWle+9cnGDu/12MQi//oAnyY5rMwOra6s0oryVMnY1zBZdll7amLX33vhNs2NEEMkg/cpQfi8214AGgCDMGDWjV11jNt8rh8QuJY0fchubFgqdsvwfc12vFbfj7E7etztIuKb2W2Ba4DYIZgxNJ/VENr0Jmxp+DKKfu7W7q7zIRzfbxvEzRqO8155ehxfS39a8BS9fNse17kl/uQDaHhI+bjL/JFebt8rqaA0R3G/Z+ti6zTeCVFbXXkhErptnWswHr0jG38tKkKY5DwJ8metVshuF12/7Bz5a5rx+QHmfvXD8tLynUWW4ltXGyu814rP3HbX6aLOxT/hg9P3pNyX5RA9N7zkma8vngdW1B2lEWXcfsznBzBelk3HR04meYvONIOFI1C7v4ra6SItp6F1zRTx+0+y/E3nvYWiPsemJV/H2H+zyWc6uPtHjcPDlVc6ECyT1zrTl2LhglWPrh08egopv9nUsn0uQGc/M6FWXk23hSNQ+P+K2YubVpqH7Uh7WN4JU1kR/TAy3j0LvmIZ+aK5JmrCpYRWI+kmZcQArr2jEZx/k/4u8x2H7taWZaF1DsoYWsmM/Gq6avMDRXWTP43rj2Ns89SXa1cfV03vW9c/luEhqERN+kk7orjv0CgG4i5J/BInU3k4gu5Wyi4vSptEYzkmQ5jmbPu8NLi0Zys5vWnPzItgLL9vV7fD9cNBlYewz0NPOsgsccov+O/Uu3puZbssny3ZRmYb+94zEHgfvI21cAM3Te9blxD4scPaHwXekjfhNMh11ass3glRFau9n0CSnjtpyBDyRMvTzchKkabb3JpO7GWDj/H+1pb7vvOjsBL8e1Ueg98j+cl5y3YCRR9b6tBUb56/Ch4nXv+az/d5x0LicqVPCnkzvWZdzTYm00yPwAykjfoWwUx4U/SNITfQxZnzbpe85C1Nfw4933dq85VOXNl2JZz5uwdY3PmzLfg3t6fZR2tVQ0oSL6XO3iu573EvZz6mLVK8hwl9SCd2XZqq+ESQcidr9JNylEBDuMhP6DdlWzlU8a6+WZi3/C4O0pacM7YpAeYW19+9pbNaPeoJ9X540DV3qy5LTmfOTIPZZ1mFOHbXl8hVpsFs3a9q2f7uxqWTlImBZXfbJ1VJasIjDYtPQz5DrqTNriiDOcFJSDhFQBHEIVD6xcCSq7iD5QOqAvyuCSJo0RRBJQAbMjCKIpAlRBJEEZMDMKIJImhBFEElABsyMIoikCVEEkQRkwMwogkiaEEUQSUAGzIwiiKQJUQSRBGTAzCiCSJoQRRBJQAbMjCKIpAlRBJEEZMDMKIJImhBFEElABsyMIoikCVEEkQRkwMwogkiaEEUQSUAGzIwiiKQJUQSRBGTAzCiCSJoQRRBJQAbMjCKIpAlRBJEEZMDMKIJImpBSJkjLpk+wdW0zuNWShFZuM3YBBrsltV8F63b2ThFE0pSXIkGan1nXVkvrk1XuewLJgNVuxmm3pPazkagiiIyZBFBKBMl80oLXb1+C/7z4viR0vJnZ+6QDceRNQ30pKqEI4m3uvtAuJYK8OXUpmv++VhIycszY1RLtqonFvhRBJCFeKgTZsmYTVl+/UBIqcs30u+s8dD+ml1yjeawpgkiCu1QI4rYWriT4HJnpPaI/Dpk4yJGsLCFFEElIlgpBXpkwFy0bP5GEilwz5b33xPHTXbeg9+SEIogn+L5ULhWCrIg+LAmRwpgZqI8rjOEsVhVBJMFdKgR5ZdI8tKz3pTtY3pko338vHP9AcfuVKILknRZnAqVCkHf/aGLDvJXOgi6yVJ/YABx8Wc5i+NI9UgSRBGmpEMSu9r7q+/MloSLXTP97RqDb4T3kGlW7WMXBs1QIYqP19v3PY9Pjq4sDnMNRep3fD4decYpDaXli6g4iCcvKSPT/CHBb0n6eaeg5t2UmbJr9HggHSnLTkRm2GG/clcBHyTcdyRdaaL/qw3HE9TUgrcillxnvT+9Vl7OLUDgSnQvA1YsRA4+lDf2CQuO2O/tFRvBLF6pqan/DTNe6DHqtaehH59KR1eXWpV9t4ptT76DpyTXY/Pw7IuqedfY95RD0OudY7FN1sGdbQgbydLm1bYYj0dcAuGqKSMR3pxLx64R88qjkI0FiNzLz7W79L8+U91y2rKE5m94Ufqbs7eam1QQc5da2LHmrJYOt64qczXtUBbRy//ojMrDu0Iqe/abQGVl71Q0eXF/REmppcoszEd2USjTe4VZPhrx/BIlEL2bgT26DcNIS+NINs48JhfBLAsa4ta/k3SPAwJxMBjf/sU/dmlzaoq2/CbgkZegz3XvmXcM3goSHxIZD4yddh0B41EzoFznRu3zjrH6hkHaGZXFxE5KcOFcCMppGmzIZ65kHe491tEMRrok+AsaFrkO36BxzaeMi13oSFHwjyPbnUbufYM6+57uLkRlD00k9ISF+ZaJICFRWR2uIsERkuL3LNndbvHhxQXtPZvPLb4I8AGCiW9CYMSed1Ovc6il5/xCorI7OJnL/yEvA/JSh1/rlua8EqaqOncfEjwsFz7jBTOp3CekqpaIiEK6OXg/CnUKDMl9pJuP3CelKUPKVIO2PWbG1AAvtOGkaDlu+RH9bAg7KRIEQGDQ0eqhl4S1h8xnrOHPZ/FXC+h4V/SdIdfQeEK7xEMdppqE/50FfqRYIgXAkeiqAZz2Yf9Y09MEe9D1iSROQAAADCklEQVSr+k6QykgsTOCUl0js9tDbkJn6T+OvH3qxo3TlIPCNyLd6dEFoMoFu8WLRz+3dHX77ThDbkapI7f0MmuQFTACrQTTVQpfZKxIN/pQV8RhAR1cfWFPfW8O2OjBPBtDPSzwEPJEy9PO82JChGwiCyLiL7ATGNjAnWKOnNYvWs2Z9QKwF88ifjBn00QaTtSdZ2gGWxvuTxWeCqAZAFxkuMfi8tBF/QoYtLzYCQRCJdxEvWCjd4CAw0zT0S4LgTmAIUllTeyIx2V9L9w8CMMoH3xBYz8TD04n4S755sNPAgSFI+10kNo7BvuTcBGEylA8AgS5OGY2BOegfKILYCyQcid4G4Ca1WDolArebhv6jIEUeOIK0kyQ2C+D6IAGlfCk0AtRgGo1jCz2KW/uBJEgbSUQzP90ioOT9R8BFhnaxnQ0sQdrfScTOjBQbRDWeOAJB+BiYy/tAE8R2vDJSey6BHgVQIT4NSjOACDQz+MIgfOvo0ARpf9waUUkc+jkD5wZwopVLLhGwv5IzZX5iJhakXaoWXTzwd5CdEWl/5KLJAFcWHSk1oAQEKE3gqX4dnxUJoEMRxA5wwID68m49Wr4Pgp3vc4hI0Eqn6Ai8A8bUrR+W37NyZUNL0Uf3MGCHI8iOWNsyRrlsOBGfDdBwAId6wEGpykfgbYAXMdNT26h1UUfNtO6wBNl1Pu2zB3aCG0D24au+1F57SaWtyF/4u7O4ngG7xZZ9+G0dgRaWyhmdkiHI7mZtwLD6vfbIfHaUxpraASsAUSyymj8NdV23cnFDMMvbS4i5pAkiAR9lopMjoAjSyReACj83AoogaoUoBHIgoAiilodCQBFErQGFgBgC6g4ihpvS6iQIKIJ0kolWYYohoAgihpvS6iQIKIJ0kolWYYohoAgihpvS6iQIKIJ0kolWYYohoAgihpvS6iQIKIJ0kolWYYohoAgihpvS6iQIKIJ0kolWYYohoAgihpvS6iQIKIJ0kolWYYohoAgihpvS6iQIKIJ0kolWYYohoAgihpvS6iQI/H/qJqCM2MKgCQAAAABJRU5ErkJggg==;" parent="1" vertex="1">
          <mxGeometry x="722.6500000000001" y="1123.6100000000001" width="46" height="46" as="geometry" />
        </mxCell>
        <mxCell id="BStY4UZLv6UZcWrJa_nu-132" value="&lt;font style=&quot;font-size: 20px;&quot; face=&quot;Arial&quot;&gt;Prompt Text&lt;/font&gt;" style="text;html=1;align=center;verticalAlign=middle;resizable=0;points=[];autosize=1;strokeColor=none;fillColor=none;" parent="1" vertex="1">
          <mxGeometry x="680.9000000000001" y="1071.5" width="130" height="40" as="geometry" />
        </mxCell>
        <mxCell id="BStY4UZLv6UZcWrJa_nu-133" value="" style="edgeStyle=none;orthogonalLoop=1;jettySize=auto;html=1;rounded=0;entryX=0.5;entryY=0;entryDx=0;entryDy=0;" parent="1" target="BStY4UZLv6UZcWrJa_nu-131" edge="1">
          <mxGeometry width="100" relative="1" as="geometry">
            <mxPoint x="746" y="1101.5" as="sourcePoint" />
            <mxPoint x="796.9000000000001" y="1100.5" as="targetPoint" />
            <Array as="points" />
          </mxGeometry>
        </mxCell>
        <mxCell id="BStY4UZLv6UZcWrJa_nu-134" value="&lt;font style=&quot;font-size: 20px;&quot; face=&quot;Arial&quot;&gt;LLM-CE&lt;/font&gt;" style="text;html=1;align=center;verticalAlign=middle;resizable=0;points=[];autosize=1;strokeColor=none;fillColor=none;" parent="1" vertex="1">
          <mxGeometry x="627.9000000000001" y="1146.94" width="100" height="40" as="geometry" />
        </mxCell>
        <mxCell id="BStY4UZLv6UZcWrJa_nu-135" value="" style="endArrow=none;html=1;rounded=0;exitX=0.499;exitY=-0.025;exitDx=0;exitDy=0;exitPerimeter=0;" parent="1" source="BStY4UZLv6UZcWrJa_nu-32" edge="1">
          <mxGeometry width="50" height="50" relative="1" as="geometry">
            <mxPoint x="1427" y="1210.47" as="sourcePoint" />
            <mxPoint x="1287" y="1180.47" as="targetPoint" />
            <Array as="points">
              <mxPoint x="1372" y="1180.47" />
            </Array>
          </mxGeometry>
        </mxCell>
        <mxCell id="BStY4UZLv6UZcWrJa_nu-136" value="" style="endArrow=none;html=1;rounded=0;exitX=0.503;exitY=0.021;exitDx=0;exitDy=0;exitPerimeter=0;" parent="1" source="BStY4UZLv6UZcWrJa_nu-31" edge="1">
          <mxGeometry width="50" height="50" relative="1" as="geometry">
            <mxPoint x="1427" y="1210.47" as="sourcePoint" />
            <mxPoint x="1287" y="1180.47" as="targetPoint" />
            <Array as="points">
              <mxPoint x="1212" y="1180.47" />
            </Array>
          </mxGeometry>
        </mxCell>
        <mxCell id="BStY4UZLv6UZcWrJa_nu-141" value="" style="edgeStyle=none;orthogonalLoop=1;jettySize=auto;html=1;rounded=0;entryX=0.5;entryY=1;entryDx=0;entryDy=0;strokeColor=#878787;dashed=1;" parent="1" edge="1">
          <mxGeometry width="100" relative="1" as="geometry">
            <mxPoint x="967.8" y="1569.6399999999999" as="sourcePoint" />
            <mxPoint x="967.7950000000003" y="1545.58" as="targetPoint" />
            <Array as="points" />
          </mxGeometry>
        </mxCell>
        <mxCell id="BStY4UZLv6UZcWrJa_nu-146" value="&lt;font style=&quot;font-size: 20px;&quot;&gt;Phoneme Sequence&amp;nbsp;&lt;/font&gt;&lt;span style=&quot;font-size: 20px; background-color: initial;&quot;&gt;with Pause&lt;/span&gt;" style="text;html=1;align=center;verticalAlign=middle;resizable=0;points=[];autosize=1;strokeColor=none;fillColor=none;fontFamily=Arial;" parent="1" vertex="1">
          <mxGeometry x="1142" y="1099.44" width="310" height="40" as="geometry" />
        </mxCell>
        <mxCell id="BStY4UZLv6UZcWrJa_nu-147" value="&lt;font face=&quot;Arial&quot;&gt;&lt;span style=&quot;font-size: 20px;&quot;&gt;ERNIE Features&lt;/span&gt;&lt;/font&gt;" style="text;html=1;align=center;verticalAlign=middle;resizable=0;points=[];autosize=1;strokeColor=none;fillColor=none;" parent="1" vertex="1">
          <mxGeometry x="1205.75" y="1493.41" width="170" height="40" as="geometry" />
        </mxCell>
        <mxCell id="BStY4UZLv6UZcWrJa_nu-149" value="&lt;font style=&quot;font-size: 20px;&quot;&gt;RPs Predictor&lt;/font&gt;" style="rounded=1;whiteSpace=wrap;html=1;fillColor=#ffe6cc;strokeColor=#d79b00;" parent="1" vertex="1">
          <mxGeometry x="826.8" y="1455.47" width="135.1" height="40" as="geometry" />
        </mxCell>
        <mxCell id="BStY4UZLv6UZcWrJa_nu-150" value="&lt;font style=&quot;font-size: 20px;&quot;&gt;PIPs Predictor&lt;/font&gt;" style="rounded=1;whiteSpace=wrap;html=1;fillColor=#ffe6cc;strokeColor=#d79b00;" parent="1" vertex="1">
          <mxGeometry x="972.9" y="1455.47" width="135.1" height="40" as="geometry" />
        </mxCell>
        <mxCell id="BStY4UZLv6UZcWrJa_nu-152" style="edgeStyle=orthogonalEdgeStyle;rounded=0;orthogonalLoop=1;jettySize=auto;html=1;exitX=0;exitY=0.5;exitDx=0;exitDy=0;entryX=0.5;entryY=1;entryDx=0;entryDy=0;" parent="1" source="BStY4UZLv6UZcWrJa_nu-151" target="BStY4UZLv6UZcWrJa_nu-149" edge="1">
          <mxGeometry relative="1" as="geometry" />
        </mxCell>
        <mxCell id="BStY4UZLv6UZcWrJa_nu-153" style="edgeStyle=orthogonalEdgeStyle;rounded=0;orthogonalLoop=1;jettySize=auto;html=1;exitX=1;exitY=0.5;exitDx=0;exitDy=0;entryX=0.5;entryY=1;entryDx=0;entryDy=0;" parent="1" source="BStY4UZLv6UZcWrJa_nu-151" target="BStY4UZLv6UZcWrJa_nu-150" edge="1">
          <mxGeometry relative="1" as="geometry" />
        </mxCell>
        <mxCell id="BStY4UZLv6UZcWrJa_nu-151" value="&lt;font style=&quot;font-size: 20px;&quot;&gt;ERNIE&lt;/font&gt;" style="rounded=1;whiteSpace=wrap;html=1;fillColor=#f5f5f5;fontColor=#333333;strokeColor=#666666;" parent="1" vertex="1">
          <mxGeometry x="905.9" y="1505.58" width="122.2" height="40" as="geometry" />
        </mxCell>
        <mxCell id="BStY4UZLv6UZcWrJa_nu-154" value="" style="endArrow=none;html=1;rounded=0;exitX=0.5;exitY=0;exitDx=0;exitDy=0;entryX=0.5;entryY=0;entryDx=0;entryDy=0;" parent="1" source="BStY4UZLv6UZcWrJa_nu-149" target="BStY4UZLv6UZcWrJa_nu-150" edge="1">
          <mxGeometry width="50" height="50" relative="1" as="geometry">
            <mxPoint x="1070.9" y="1505.47" as="sourcePoint" />
            <mxPoint x="1050.9" y="1455.47" as="targetPoint" />
            <Array as="points">
              <mxPoint x="894" y="1445" />
              <mxPoint x="1040" y="1445" />
            </Array>
          </mxGeometry>
        </mxCell>
        <mxCell id="BStY4UZLv6UZcWrJa_nu-155" value="" style="endArrow=classic;html=1;rounded=0;dashed=1;strokeColor=#878787;" parent="1" edge="1">
          <mxGeometry width="50" height="50" relative="1" as="geometry">
            <mxPoint x="967.6" y="1445.47" as="sourcePoint" />
            <mxPoint x="967.6" y="1425.47" as="targetPoint" />
          </mxGeometry>
        </mxCell>
        <mxCell id="BStY4UZLv6UZcWrJa_nu-157" value="&lt;font style=&quot;font-size: 25px;&quot; face=&quot;Arial&quot;&gt;(b) RPs/PIPs Predictor&lt;/font&gt;" style="text;html=1;align=center;verticalAlign=middle;resizable=0;points=[];autosize=1;strokeColor=none;fillColor=none;" parent="1" vertex="1">
          <mxGeometry x="1163" y="1589.44" width="270" height="40" as="geometry" />
        </mxCell>
        <mxCell id="X2Fck_JyabuA38FYuIHg-1" value="" style="rounded=1;whiteSpace=wrap;html=1;fillColor=#fff2cc;strokeColor=#d6b656;rotation=90;arcSize=12;absoluteArcSize=1;" parent="1" vertex="1">
          <mxGeometry x="639.8" y="1493.96" width="22.1" height="24.48" as="geometry" />
        </mxCell>
        <mxCell id="X2Fck_JyabuA38FYuIHg-2" value="&lt;font style=&quot;font-size: 14px;&quot;&gt;Content Extrapolation&lt;/font&gt;" style="text;html=1;align=center;verticalAlign=middle;resizable=0;points=[];autosize=1;strokeColor=none;fillColor=none;" parent="1" vertex="1">
          <mxGeometry x="655.9" y="1491.2" width="160" height="30" as="geometry" />
        </mxCell>
        <mxCell id="X2Fck_JyabuA38FYuIHg-5" value="&lt;font style=&quot;font-size: 20px;&quot; face=&quot;Arial&quot;&gt;GCPI&lt;/font&gt;" style="text;html=1;align=center;verticalAlign=middle;resizable=0;points=[];autosize=1;strokeColor=none;fillColor=none;" parent="1" vertex="1">
          <mxGeometry x="812.8" y="1521.2" width="70" height="40" as="geometry" />
        </mxCell>
        <mxCell id="X2Fck_JyabuA38FYuIHg-7" value="" style="edgeStyle=none;orthogonalLoop=1;jettySize=auto;html=1;rounded=0;" parent="1" edge="1">
          <mxGeometry width="100" relative="1" as="geometry">
            <mxPoint x="1294" y="1181" as="sourcePoint" />
            <mxPoint x="1294" y="1141" as="targetPoint" />
            <Array as="points" />
          </mxGeometry>
        </mxCell>
      </root>
    </mxGraphModel>
  </diagram>
</mxfile>
